<svg width="48" height="54" viewBox="0 0 48 54" fill="none" xmlns="http://www.w3.org/2000/svg">
    <path d="M23.9998 53.25C23.2916 53.2503 22.5957 53.064 21.9823 52.71L15.5623 48.9094C14.6042 48.3731 15.0711 48.1838 15.3879 48.0731C16.407 47.7583 17.3826 47.3174 18.2923 46.7606C18.3685 46.7254 18.4523 46.7102 18.536 46.7164C18.6197 46.7227 18.7004 46.7501 18.7704 46.7963L23.7036 49.7269C23.7954 49.7755 23.8978 49.8009 24.0017 49.8009C24.1056 49.8009 24.208 49.7755 24.2998 49.7269L43.5373 38.6231C43.6273 38.5692 43.7018 38.4928 43.7534 38.4014C43.805 38.31 43.832 38.2068 43.8317 38.1019V15.8906C43.8318 15.784 43.8044 15.6792 43.7521 15.5863C43.6999 15.4933 43.6246 15.4154 43.5336 15.36L24.2961 4.26563C24.2054 4.21454 24.103 4.1877 23.9989 4.1877C23.8948 4.1877 23.7924 4.21454 23.7017 4.26563L4.47544 15.3638C4.38373 15.418 4.30758 15.495 4.25437 15.5873C4.20115 15.6796 4.17268 15.7841 4.17169 15.8906V38.0925C4.17196 38.1972 4.20005 38.3 4.25309 38.3902C4.30614 38.4805 4.38223 38.5551 4.47357 38.6063L9.74982 41.6513C12.6092 43.08 14.3604 41.3963 14.3604 39.705V17.7844C14.3604 17.6352 14.4197 17.4921 14.5252 17.3866C14.6307 17.2811 14.7738 17.2219 14.9229 17.2219H17.3604C17.5096 17.2219 17.6527 17.2811 17.7582 17.3866C17.8637 17.4921 17.9229 17.6352 17.9229 17.7844V39.7069C17.9229 43.5225 15.8454 45.7069 12.2267 45.7069C10.6655 45.7341 9.12884 45.3166 7.79607 44.5031L2.73919 41.6025C2.1253 41.245 1.61591 40.7327 1.26189 40.1168C0.907877 39.5009 0.721612 38.8029 0.721693 38.0925V15.8906C0.719868 15.1791 0.905346 14.4797 1.25949 13.8626C1.61363 13.2454 2.12396 12.7324 2.73919 12.375L21.9786 1.2675C22.5983 0.928442 23.2934 0.750732 23.9998 0.750732C24.7062 0.750732 25.4013 0.928442 26.0211 1.2675L45.2586 12.375C45.8724 12.7318 46.3819 13.2434 46.7362 13.8586C47.0906 14.4738 47.2774 15.1713 47.2779 15.8813V38.0925C47.2769 38.8029 47.0899 39.5007 46.7357 40.1164C46.3814 40.7322 45.8722 41.2445 45.2586 41.6025L26.0211 52.71C25.4065 53.0646 24.7093 53.2508 23.9998 53.25V53.25Z" fill="#83CD29" />
    <path d="M20.3516 30.6618C20.3516 30.5127 20.4108 30.3696 20.5163 30.2641C20.6218 30.1586 20.7649 30.0994 20.9141 30.0994H23.4022C23.5351 30.0998 23.6636 30.1473 23.7649 30.2334C23.8661 30.3196 23.9336 30.4388 23.9553 30.57C24.3303 33.1031 25.4553 34.38 30.5422 34.38C34.5941 34.38 36.3209 33.4631 36.3209 31.3125C36.3209 30.0731 35.8316 29.1525 29.5334 28.5356C24.2684 28.0144 21.0134 26.8481 21.0134 22.6406C21.0134 18.7594 24.2853 16.4437 29.7697 16.4437C35.9328 16.4437 38.9834 18.5831 39.3697 23.1731C39.3756 23.2497 39.3657 23.3268 39.3407 23.3994C39.3157 23.4721 39.276 23.5389 39.2242 23.5956C39.1724 23.6524 39.1094 23.6979 39.0393 23.7294C38.9692 23.7609 38.8934 23.7777 38.8166 23.7787H36.3116C36.1859 23.777 36.0644 23.7332 35.9666 23.6543C35.8687 23.5755 35.8 23.4661 35.7716 23.3437C35.1734 20.6794 33.7091 19.8281 29.7716 19.8281C25.3466 19.8281 24.8328 21.3694 24.8328 22.5244C24.8328 23.9231 25.4403 24.3319 31.4141 25.1212C37.3259 25.9031 40.1347 27.0094 40.1347 31.1644C40.1347 35.3569 36.6397 37.7569 30.5441 37.7569C22.1159 37.7681 20.3516 33.9037 20.3516 30.6618Z" fill="#83CD29" />
</svg>