<svg width="60" height="60" viewBox="0 0 60 60" fill="none" xmlns="http://www.w3.org/2000/svg">
    <path d="M29.7839 0C14.5521 0 15.5031 6.63992 15.5031 6.63992L15.52 13.5191H30.0555V15.5844H9.74681C9.74681 15.5844 0 14.4732 0 29.9223C0 45.3718 8.50726 44.8239 8.50726 44.8239H13.5844V37.6547C13.5844 37.6547 13.3106 29.103 21.9558 29.103H36.3723C36.3723 29.103 44.472 29.2345 44.472 21.2341V8.00569C44.472 8.00569 45.7021 0 29.7839 0ZM21.769 4.6261C22.1125 4.62579 22.4527 4.69357 22.7701 4.82555C23.0875 4.95754 23.3759 5.15115 23.6187 5.3953C23.8616 5.63944 24.0542 5.92934 24.1855 6.24839C24.3168 6.56745 24.3843 6.9094 24.3839 7.25467C24.3843 7.59995 24.3168 7.9419 24.1855 8.26095C24.0542 8.58 23.8616 8.8699 23.6187 9.11405C23.3759 9.35819 23.0875 9.5518 22.7701 9.68379C22.4527 9.81578 22.1125 9.88356 21.769 9.88324C21.4256 9.88356 21.0854 9.81578 20.768 9.68379C20.4506 9.5518 20.1622 9.35819 19.9193 9.11405C19.6765 8.8699 19.4839 8.58 19.3526 8.26095C19.2212 7.9419 19.1538 7.59995 19.1541 7.25467C19.1538 6.9094 19.2212 6.56745 19.3526 6.24839C19.4839 5.92934 19.6765 5.63944 19.9193 5.3953C20.1622 5.15115 20.4506 4.95754 20.768 4.82555C21.0854 4.69357 21.4256 4.62579 21.769 4.6261Z" fill="url(#paint0_linear_370_1985)" />
    <path d="M30.2162 60C45.448 60 44.497 53.3601 44.497 53.3601L44.4801 46.4812H29.9444V44.4159H50.2531C50.2531 44.4159 59.9999 45.527 59.9999 30.0775C59.9999 14.6282 51.4926 15.1761 51.4926 15.1761H46.4155V22.3451C46.4155 22.3451 46.6892 30.8968 38.044 30.8968H23.6275C23.6275 30.8968 15.5279 30.7652 15.5279 38.766V51.9945C15.5279 51.9945 14.298 60 30.216 60H30.2162ZM38.2311 55.3744C37.8876 55.3747 37.5474 55.3069 37.23 55.1749C36.9126 55.0429 36.6242 54.8493 36.3814 54.6052C36.1385 54.361 35.9459 54.0711 35.8146 53.7521C35.6833 53.433 35.6158 53.0911 35.6162 52.7458C35.6158 52.4005 35.6832 52.0585 35.8145 51.7395C35.9458 51.4204 36.1384 51.1305 36.3813 50.8863C36.6242 50.6421 36.9125 50.4485 37.23 50.3165C37.5474 50.1845 37.8876 50.1167 38.2311 50.117C38.5745 50.1167 38.9147 50.1845 39.2321 50.3165C39.5495 50.4484 39.8379 50.642 40.0808 50.8862C40.3236 51.1303 40.5163 51.4202 40.6476 51.7393C40.7789 52.0583 40.8463 52.4003 40.846 52.7456C40.8463 53.0908 40.7789 53.4328 40.6476 53.7518C40.5163 54.0709 40.3236 54.3608 40.0808 54.6049C39.8379 54.8491 39.5495 55.0427 39.2321 55.1747C38.9147 55.3067 38.5745 55.3745 38.2311 55.3741V55.3744Z" fill="url(#paint1_linear_370_1985)" />
    <defs>
        <linearGradient id="paint0_linear_370_1985" x1="5.76598" y1="5.39664" x2="35.6536" y2="34.8322" gradientUnits="userSpaceOnUse">
            <stop stop-color="#387EB8" />
            <stop offset="1" stop-color="#366994" />
        </linearGradient>
        <linearGradient id="paint1_linear_370_1985" x1="24.0167" y1="24.3985" x2="56.1048" y2="54.5747" gradientUnits="userSpaceOnUse">
            <stop stop-color="#FFE052" />
            <stop offset="1" stop-color="#FFC331" />
        </linearGradient>
    </defs>
</svg>