<?xml version="1.0" standalone="no"?>
<!DOCTYPE svg PUBLIC "-//W3C//DTD SVG 20010904//EN"
 "http://www.w3.org/TR/2001/REC-SVG-20010904/DTD/svg10.dtd">
<svg version="1.0" xmlns="http://www.w3.org/2000/svg"
 width="394.000000pt" height="416.000000pt" viewBox="0 0 394.000000 416.000000"
 preserveAspectRatio="xMidYMid meet">

<g transform="translate(0.000000,416.000000) scale(0.100000,-0.100000)"
fill="#000000" stroke="none">
<path d="M1755 3851 c-72 -33 -71 -28 -110 -547 -20 -258 -33 -481 -30 -496 8
-36 42 -77 74 -90 20 -8 722 -67 804 -68 16 0 17 -29 17 -470 l0 -470 -254 0
-255 0 -6 55 -7 55 -143 0 -144 0 -6 -55 c-7 -52 -9 -55 -36 -55 -34 0 -34 0
-15 -145 12 -89 11 -116 -5 -250 -11 -82 -22 -166 -25 -185 l-7 -35 -9 35 c-5
19 -25 172 -44 340 -31 268 -38 312 -61 360 -33 69 -172 207 -271 270 -39 25
-71 47 -71 50 -1 3 42 27 94 55 52 27 95 55 95 62 0 20 -15 16 -75 -18 -30
-17 -59 -28 -65 -24 -6 3 -22 29 -35 56 -24 47 -38 58 -49 41 -2 -4 9 -32 25
-62 l30 -55 -22 -17 c-26 -22 -38 -22 -64 -2 -18 13 -20 29 -24 142 l-3 127
25 -24 c20 -18 37 -23 75 -23 27 0 60 5 73 12 26 14 99 80 99 91 0 3 -14 9
-30 13 -34 6 -49 31 -30 49 10 9 14 9 17 -1 3 -7 13 -17 24 -22 27 -15 57 4
75 46 8 19 19 34 24 34 6 0 10 5 10 11 0 5 -4 7 -10 4 -5 -3 -10 -2 -10 3 0 4
16 16 35 25 19 9 35 21 35 27 0 14 -2 14 -77 -19 -178 -77 -236 -100 -244 -95
-12 7 -44 114 -59 197 -8 44 -21 79 -37 98 -14 16 -21 29 -17 29 4 0 4 4 -2 9
-5 5 -40 12 -78 16 l-68 7 16 -23 c9 -13 16 -41 16 -62 0 -36 -2 -38 -27 -35
-26 3 -28 6 -25 45 2 25 -3 55 -13 73 -21 40 -14 70 25 108 20 20 30 41 30 60
0 16 7 35 15 42 19 15 20 66 2 77 -8 4 -16 18 -19 30 -4 15 0 23 14 26 21 6
16 27 -7 27 -21 0 -29 50 -10 64 14 10 6 16 -49 37 -58 23 -68 24 -86 12 -11
-8 -34 -19 -52 -25 -18 -6 -54 -31 -80 -55 l-48 -44 25 -9 c21 -8 24 -16 23
-47 -1 -46 23 -111 49 -133 36 -29 46 -59 39 -120 -6 -54 -5 -60 29 -108 36
-54 36 -55 -7 -66 -34 -8 -48 14 -48 75 l0 42 -65 -7 c-36 -4 -70 -9 -77 -12
-24 -10 -139 -178 -180 -263 -65 -134 -62 -216 13 -348 l30 -52 35 21 c19 11
33 26 30 33 -2 7 -12 49 -22 94 l-17 81 38 75 c26 50 42 71 46 62 5 -7 11 -88
15 -179 8 -183 10 -175 -61 -193 -22 -6 -39 -16 -38 -22 1 -6 -33 -32 -76 -58
-102 -59 -106 -64 -90 -112 18 -55 39 -83 62 -83 12 0 54 32 103 80 45 44 86
80 91 80 11 0 42 -364 50 -580 4 -122 2 -161 -16 -245 -44 -213 -97 -944 -70
-961 6 -4 15 -1 19 6 5 9 9 9 14 1 11 -18 181 -14 196 4 19 23 6 39 -50 58
l-51 18 6 67 c4 37 24 150 45 252 64 307 98 489 115 615 9 66 32 213 51 327
19 113 34 209 34 213 0 10 12 6 193 -64 87 -33 180 -72 206 -87 l48 -26 6
-111 c6 -112 46 -297 96 -441 12 -32 19 -62 16 -65 -2 -4 5 -36 15 -70 11 -35
20 -73 20 -84 0 -43 13 -49 61 -33 24 8 44 14 46 12 1 -1 -13 -126 -32 -277
-19 -151 -35 -287 -35 -302 l0 -28 137 3 138 3 22 179 c12 98 24 183 26 189 2
6 14 -75 27 -181 l23 -192 140 0 139 0 -7 67 c-3 38 -9 78 -12 91 l-5 22 173
-2 c109 -2 173 -7 172 -13 0 -5 -4 -45 -8 -87 l-7 -78 140 0 139 0 7 73 c9 98
13 107 42 107 13 0 24 -1 25 -2 0 -2 6 -41 12 -88 l12 -85 138 -3 137 -3 0 28
c-1 15 -25 216 -54 445 l-52 417 45 3 c34 2 46 7 44 18 -1 8 -14 117 -29 243
l-27 227 -48 0 -48 0 -6 55 -7 55 -143 0 -143 0 -7 -55 c-3 -30 -11 -55 -16
-55 -5 0 -9 186 -9 466 l0 467 43 -6 c23 -3 188 -16 368 -28 325 -23 325 -23
360 -3 63 36 64 45 102 553 23 300 32 475 26 494 -11 40 -44 74 -83 86 -17 6
-197 22 -401 36 -203 14 -380 28 -392 31 -13 2 -23 13 -25 27 -3 19 -10 22
-56 25 -47 3 -54 1 -59 -17 -4 -16 -13 -21 -39 -21 -37 0 -546 36 -629 45 -36
4 -61 0 -90 -14z m910 -77 c437 -32 771 -61 785 -67 14 -7 33 -28 42 -47 15
-33 15 -59 -18 -495 -23 -309 -39 -470 -48 -491 -29 -64 5 -64 -897 3 -641 48
-824 64 -843 76 -50 33 -50 39 -13 538 21 270 40 475 47 491 19 40 65 59 130
53 30 -3 397 -30 815 -61z m-1805 -408 c0 -37 -23 -50 -50 -28 -31 25 -21 52
20 52 25 0 30 -4 30 -24z m-100 -626 c-14 -4 -47 -8 -75 -8 -39 0 -45 2 -25 8
14 4 48 8 75 8 39 0 45 -2 25 -8z m540 -135 c0 -6 -69 -35 -84 -35 -6 1 5 9
24 20 34 19 60 25 60 15z m-402 -412 l-3 -58 -42 -3 -43 -3 0 54 c0 29 3 57 7
60 3 4 24 7 45 7 l39 0 -3 -57z m965 -718 c59 -118 107 -217 107 -220 0 -3
-55 -5 -123 -5 l-123 0 -23 193 c-13 105 -25 204 -28 220 -5 26 -4 27 38 27
l44 0 108 -215z m447 -5 l110 -220 -153 0 -152 0 -108 215 c-59 118 -107 217
-107 220 0 3 67 5 150 5 l150 0 110 -220z m450 0 l110 -220 -155 0 -155 0
-110 220 -110 220 155 0 155 0 110 -220z m280 218 c0 -2 11 -91 25 -198 33
-257 34 -240 -15 -240 l-40 0 -110 220 -110 220 125 0 c69 0 125 -1 125 -2z
m-530 -663 l0 -195 -200 0 c-110 0 -200 3 -200 8 0 12 -39 324 -45 355 l-4 27
224 0 225 0 0 -195z m-80 -345 c38 -77 70 -144 70 -150 0 -6 -38 -10 -98 -10
l-97 0 -73 145 c-39 80 -72 147 -72 150 0 3 45 5 100 5 l100 0 70 -140z m298
-5 c39 -80 72 -147 72 -150 0 -3 -45 -5 -100 -5 l-100 0 -70 140 c-38 77 -70
144 -70 150 0 6 38 10 98 10 l97 0 73 -145z m73 90 c3 -27 5 -52 3 -53 -3 -4
-54 94 -54 103 0 4 10 5 23 3 18 -2 23 -11 28 -53z m-627 -172 l36 -73 -29 0
c-28 0 -30 3 -36 48 -3 26 -9 61 -12 77 -7 40 -2 33 41 -52z"/>
<path d="M2159 3593 c-98 -100 -107 -112 -112 -154 l-6 -47 99 -7 100 -7 0
-39 0 -39 44 0 c42 0 44 1 50 35 6 29 11 35 31 35 22 0 25 4 25 39 0 33 -4 40
-22 43 -13 2 -22 8 -22 13 1 6 5 61 8 123 l7 112 -48 0 c-48 0 -49 0 -154
-107z m95 -70 c-4 -32 -8 -59 -9 -61 -2 -2 -24 0 -50 4 l-47 7 53 53 c29 30
55 54 56 54 2 0 0 -26 -3 -57z"/>
<path d="M2524 3666 c-43 -19 -71 -58 -83 -117 -38 -178 24 -285 162 -276 110
7 151 73 145 234 -3 81 -6 94 -28 119 -48 51 -130 68 -196 40z m102 -70 c16
-13 19 -26 18 -98 -2 -93 -13 -132 -43 -148 -17 -8 -25 -6 -42 11 -19 19 -21
30 -17 109 6 120 34 162 84 126z"/>
<path d="M2868 3634 c-15 -8 -35 -28 -43 -44 l-15 -29 37 -10 c53 -15 61 -14
73 10 16 30 74 23 78 -9 4 -30 -14 -52 -43 -52 -19 0 -24 -6 -27 -35 -4 -31
-1 -35 19 -35 27 0 63 -33 63 -58 0 -29 -29 -62 -56 -62 -17 0 -30 9 -42 30
-16 27 -22 30 -70 30 -51 0 -53 -1 -47 -22 20 -66 63 -95 152 -104 92 -9 156
36 170 119 5 33 2 41 -28 69 l-34 32 28 27 c48 48 29 116 -39 145 -43 18 -142
17 -176 -2z"/>
<path d="M2085 3134 c-9 -102 -8 -104 83 -104 55 0 62 2 62 20 0 17 -7 20 -45
20 -39 0 -45 3 -45 21 0 19 5 21 45 17 36 -2 45 0 45 13 0 12 -12 18 -41 22
-46 6 -54 11 -45 26 4 6 25 8 51 4 40 -5 45 -4 45 14 0 17 -9 21 -52 27 -102
12 -95 17 -103 -80z"/>
<path d="M2276 3171 c-3 -20 -6 -62 -6 -93 0 -55 1 -58 24 -58 20 0 25 6 28
32 4 45 22 45 43 -2 15 -33 23 -40 47 -40 26 0 29 3 23 23 -4 12 -13 31 -20
43 -11 18 -11 22 6 32 26 17 24 58 -3 76 -13 8 -48 16 -79 18 l-57 4 -6 -35z
m104 -27 c0 -8 -10 -14 -25 -14 -23 0 -34 18 -19 32 10 10 44 -4 44 -18z"/>
<path d="M2477 3160 c-4 -18 -7 -58 -7 -90 0 -54 2 -58 25 -62 21 -5 25 -2 25
21 0 14 4 32 9 40 7 11 14 7 30 -20 12 -19 21 -37 21 -41 0 -5 14 -8 30 -8 35
0 36 5 11 47 -19 31 -19 31 0 49 22 20 25 57 5 73 -7 6 -43 14 -78 18 l-65 6
-6 -33z m101 -27 c-2 -10 -13 -19 -26 -21 -17 -3 -22 2 -22 17 0 16 6 21 26
21 19 0 25 -5 22 -17z"/>
<path d="M2713 3165 c-38 -16 -53 -42 -53 -89 0 -55 35 -89 94 -90 41 -1 51 3
72 27 33 39 33 99 -1 132 -13 14 -31 25 -39 25 -8 0 -20 2 -28 5 -7 2 -27 -2
-45 -10z m76 -57 c4 -12 5 -34 1 -48 -5 -19 -13 -25 -36 -25 -26 0 -29 4 -32
33 -5 47 3 62 33 62 17 0 28 -7 34 -22z"/>
<path d="M2887 3115 c-10 -68 -9 -135 2 -135 5 0 16 -2 24 -6 10 -4 16 6 21
36 5 34 9 40 20 31 8 -7 19 -25 26 -41 10 -24 19 -30 41 -30 34 0 35 5 10 46
-19 31 -19 32 0 48 22 19 25 59 5 75 -7 6 -43 14 -78 18 l-65 6 -6 -48z m103
-15 c0 -15 -7 -20 -25 -20 -18 0 -25 5 -25 20 0 15 7 20 25 20 18 0 25 -5 25
-20z"/>
<path d="M1910 2953 c0 -27 -3 -65 -6 -85 -4 -24 -3 -38 4 -38 6 0 13 18 17
41 l7 40 39 -6 c25 -4 39 -3 39 4 0 6 -11 11 -24 11 -40 0 -56 11 -56 37 0 24
2 25 45 21 55 -7 70 7 17 16 -79 13 -82 11 -82 -41z"/>
<path d="M2074 2967 c-52 -45 -32 -141 31 -147 63 -6 95 20 95 79 0 76 -71
115 -126 68z m88 -14 c24 -22 24 -77 -2 -103 -49 -49 -113 4 -90 75 16 47 57
60 92 28z"/>
<path d="M2236 2925 c-9 -74 -7 -115 4 -115 6 0 10 16 10 36 0 33 2 35 28 32
19 -2 32 -13 47 -40 11 -21 26 -38 33 -38 10 0 8 10 -8 37 l-22 38 21 13 c22
15 27 38 12 61 -6 9 -33 17 -64 21 l-55 6 -6 -51z m108 14 c20 -18 -4 -39 -44
-39 -38 0 -40 2 -40 30 0 30 1 31 38 24 20 -3 41 -10 46 -15z"/>
<path d="M2405 2907 c-4 -29 -5 -66 -3 -82 3 -28 6 -30 50 -33 38 -2 49 1 61
18 16 23 12 60 -6 60 -7 0 -7 4 1 12 18 18 14 56 -7 68 -11 5 -35 10 -55 10
-34 0 -35 0 -41 -53z m93 6 c3 -21 -1 -23 -38 -23 -34 0 -41 3 -36 16 3 9 6
20 6 25 0 6 15 9 33 7 24 -2 33 -8 35 -25z m-10 -52 c8 -5 12 -17 10 -27 -2
-14 -13 -20 -41 -22 -35 -3 -37 -2 -37 27 0 27 3 31 28 31 15 0 33 -4 40 -9z"/>
<path d="M2566 2904 c-9 -69 -7 -124 4 -124 6 0 10 15 10 33 0 17 3 56 6 85 4
32 3 52 -3 52 -6 0 -13 -21 -17 -46z"/>
<path d="M2625 2868 c-3 -44 -5 -82 -2 -84 2 -2 25 -5 52 -6 58 -3 85 23 85
82 0 52 -24 77 -81 83 l-47 4 -7 -79z m103 39 c17 -13 15 -68 -4 -95 -15 -22
-48 -29 -72 -14 -9 6 -10 25 -6 70 l7 61 31 -6 c17 -3 37 -10 44 -16z"/>
<path d="M2795 2854 c-4 -41 -5 -78 -2 -81 3 -2 23 -7 44 -10 57 -7 93 24 93
83 0 59 -25 84 -84 84 l-44 0 -7 -76z m96 46 c14 -8 19 -21 19 -50 0 -48 -21
-70 -67 -70 l-36 0 7 46 c3 26 6 55 6 65 0 22 38 26 71 9z"/>
<path d="M2970 2896 c0 -12 -3 -51 -6 -85 l-7 -61 62 0 c39 0 60 4 56 10 -3 6
-26 10 -51 10 -44 0 -45 1 -42 28 3 25 6 27 51 26 60 0 61 12 2 20 -40 6 -45
10 -45 33 0 24 2 25 50 21 28 -1 50 0 50 3 0 8 -53 19 -91 19 -24 0 -29 -4
-29 -24z"/>
<path d="M3126 2879 c-9 -48 -7 -139 4 -139 5 0 10 30 12 68 l3 67 38 -67 c58
-102 61 -101 71 20 8 89 -9 97 -21 10 l-8 -63 -39 68 c-21 37 -41 67 -46 67
-4 0 -10 -14 -14 -31z"/>
<path d="M830 2190 c0 -36 3 -40 25 -40 23 0 25 4 25 40 0 36 -2 40 -25 40
-22 0 -25 -4 -25 -40z"/>
</g>
</svg>
