<svg width="146" height="221" viewBox="0 0 146 221" fill="none" xmlns="http://www.w3.org/2000/svg">
<path d="M41.6553 58.6391L47.1825 39.5372L63.7714 35.0123L73.8235 12.395L89.41 0.331055L104.488 16.9199L109.013 24.9602L131.129 34.5111L123.089 67.1877L96.9491 88.8026L77.346 95.3322L62.7619 92.318L50.6979 82.2659L41.6553 58.6391Z" fill="white"/>
<path opacity="0.5" d="M41.6553 58.6391L47.1825 39.5372L63.7714 35.0123L73.8235 12.395L89.41 0.331055L104.488 16.9199L109.013 24.9602L131.129 34.5111L123.089 67.1877L96.9491 88.8026L77.346 95.3322L62.7619 92.318L50.6979 82.2659L41.6553 58.6391Z" fill="white"/>
<path d="M77.3674 95.6903H77.2886L62.7116 92.676C62.6535 92.663 62.5994 92.636 62.5541 92.5973L50.4901 82.5738C50.4449 82.5355 50.4104 82.4862 50.3899 82.4306L41.3401 58.8038C41.315 58.7295 41.315 58.649 41.3401 58.5747L46.8387 39.4514C46.8549 39.3921 46.8867 39.3382 46.9308 39.2954C46.9748 39.2526 47.0296 39.2224 47.0893 39.2079L63.5135 34.726L73.494 12.2448C73.5197 12.1902 73.5563 12.1415 73.6014 12.1016L89.1879 0.0734023C89.26 0.0191269 89.3497 -0.00651899 89.4396 0.00141383C89.5295 0.00934665 89.6133 0.0502943 89.6748 0.116358L104.753 16.7052C104.77 16.725 104.784 16.7466 104.796 16.7697L109.264 24.7097L131.272 34.2105C131.349 34.245 131.412 34.3056 131.448 34.3816C131.485 34.4575 131.494 34.544 131.473 34.6258L123.432 67.3023C123.416 67.3771 123.373 67.4433 123.311 67.4885L97.1781 89.1034C97.1431 89.1302 97.1046 89.1519 97.0635 89.1678L77.4533 95.7046L77.3674 95.6903ZM62.9479 91.9887L77.3459 94.9671L96.7915 88.4805L122.788 67.0016L130.728 34.7332L108.87 25.2896C108.797 25.2601 108.737 25.2071 108.698 25.1393L104.195 17.1276L89.3669 0.789365L74.1169 12.5956L64.0934 35.1341C64.0707 35.1818 64.0378 35.2238 63.9969 35.2572C63.9561 35.2906 63.9084 35.3146 63.8572 35.3274L47.4616 39.8022L42.0203 58.5962L50.9985 82.0225L62.9479 91.9887Z" fill="#143A56"/>
<path d="M142.62 19.0821L137.014 17.7576L133.112 26.2847L126.604 35.0123L116.029 38.0193L107.481 39.53L97.4574 57.6296L90.4195 59.1331L75.3413 83.7622L55.2299 70.6959L52.7097 61.6461L44.6694 53.1047L34.6459 53.6058L20.0689 57.1212L15.5154 43.0311L0.322679 38.0981C0.322679 38.857 0.322679 39.6159 0.322679 40.382C0.281069 52.9565 3.3794 65.3425 9.33665 76.4164C19.2599 94.5804 36.8941 113.646 33.6078 136.321C33.0422 140.223 32.6269 143.438 34.8464 146.745H111.49C114.748 142.213 114.046 136.557 113.839 129.963C113.459 117.792 117.01 105.893 123.06 95.4897C128.144 86.7549 135.511 79.0225 139.742 69.8868C143.973 60.7511 145.677 50.4198 145.677 40.3963C145.67 33.1829 144.641 26.0068 142.62 19.0821Z" fill="white"/>
<path d="M111.455 147.154H34.8467C34.7885 147.154 34.7312 147.14 34.68 147.112C34.6288 147.085 34.5852 147.045 34.5531 146.996C32.2119 143.517 32.7131 140.016 33.2501 136.314C35.7488 119.131 26.1835 104.096 16.9333 89.6405C14.0694 85.1586 11.3631 80.9201 9.05767 76.6386C3.0588 65.517 -0.05515 53.0685 0.000739256 40.4324C0.000739256 39.6663 0.000739256 38.9002 0.000739256 38.1413C0.00266715 38.0863 0.0172273 38.0325 0.043302 37.9841C0.0693767 37.9357 0.106259 37.8939 0.151085 37.862C0.195351 37.8283 0.247304 37.806 0.302284 37.7973C0.357263 37.7885 0.413553 37.7936 0.466111 37.8119L15.6588 42.7378C15.7132 42.7536 15.7627 42.7829 15.8028 42.8229C15.8428 42.863 15.8721 42.9125 15.888 42.9669L20.3126 56.7277L34.5674 53.2839L44.684 52.7756C44.7356 52.7718 44.7874 52.7794 44.8356 52.798C44.8839 52.8166 44.9275 52.8456 44.9632 52.8829L53.0106 61.4315C53.0475 61.4765 53.0766 61.5273 53.0966 61.5819L55.5666 70.4956L75.2198 83.2756L90.1047 58.9328C90.1297 58.8913 90.1629 58.8553 90.2023 58.827C90.2417 58.7987 90.2864 58.7787 90.3338 58.7682L97.2142 57.3362L107.188 39.3799C107.214 39.3339 107.25 39.2941 107.293 39.2633C107.337 39.2324 107.386 39.2111 107.438 39.2009L115.987 37.6902L126.39 34.719L132.798 26.1274L136.692 17.6433C136.724 17.5674 136.782 17.5054 136.856 17.4687C136.929 17.4319 137.014 17.4227 137.093 17.4428L142.706 18.7602C142.768 18.7748 142.825 18.8058 142.87 18.8499C142.915 18.894 142.948 18.9496 142.964 19.0107C144.99 25.9901 146.012 33.2223 146 40.4896C146 51.4439 143.931 61.6965 140.029 70.1305C137.566 75.4573 133.986 80.3759 130.535 85.1657C127.955 88.585 125.551 92.1336 123.333 95.7978C116.975 106.738 113.803 118.587 114.161 130.085C114.161 130.873 114.218 131.646 114.254 132.405C114.483 138.09 114.691 142.994 111.748 147.082C111.707 147.114 111.66 147.137 111.609 147.149C111.558 147.161 111.506 147.163 111.455 147.154ZM35.0042 146.438H111.269C113.961 142.572 113.76 137.846 113.538 132.355C113.538 131.596 113.474 130.816 113.445 130.028C113.08 118.401 116.309 106.401 122.717 95.361C124.949 91.6765 127.365 88.1065 129.955 84.6645C133.392 79.9392 136.943 75.0492 139.377 69.7868C143.243 61.4459 145.284 51.3007 145.284 40.4324C145.291 33.3195 144.298 26.2409 142.334 19.4045L137.215 18.1945L133.435 26.4568C133.426 26.4797 133.414 26.5013 133.399 26.5212L126.891 35.2488C126.845 35.3115 126.78 35.357 126.705 35.3777L116.144 38.399L107.732 39.8811L97.7655 57.8303C97.739 57.8749 97.7038 57.9138 97.662 57.9445C97.6202 57.9753 97.5726 57.9973 97.5221 58.0092L90.6345 59.4984L75.6351 83.9987C75.5847 84.0784 75.505 84.135 75.4131 84.1562C75.3657 84.1678 75.3163 84.1693 75.2682 84.1606C75.2201 84.152 75.1744 84.1334 75.1339 84.1061L55.0297 71.004C54.9561 70.9552 54.9027 70.8814 54.8793 70.7963L52.3877 61.8396L44.5122 53.4772L34.6247 53.9712L20.0907 57.4794C20.0035 57.5001 19.9117 57.4873 19.8335 57.4435C19.7553 57.3998 19.6963 57.3283 19.6682 57.2432L15.2006 43.3392L0.637946 38.621C0.637946 39.2152 0.637946 39.8095 0.637946 40.4109C0.581435 52.9273 3.66592 65.2578 9.60896 76.2735C11.9358 80.5334 14.6207 84.7576 17.4846 89.2395C26.7921 103.824 36.4433 118.909 33.9087 136.4C33.3933 140.051 32.935 143.216 35.0042 146.416V146.438Z" fill="#143A56"/>
<path d="M25.102 78.1133H25.0376C24.9447 78.0959 24.8625 78.0425 24.8088 77.9647C24.7552 77.8869 24.7345 77.7911 24.7512 77.6981L25.7535 72.1708L28.1735 63.7941L19.8182 57.4077C19.7778 57.3803 19.7434 57.3448 19.7171 57.3036C19.6909 57.2624 19.6734 57.2162 19.6656 57.168C19.6579 57.1197 19.6601 57.0704 19.6722 57.023C19.6843 56.9757 19.7059 56.9313 19.7358 56.8926C19.7656 56.8539 19.8031 56.8218 19.8459 56.7981C19.8886 56.7745 19.9358 56.7598 19.9844 56.7551C20.0331 56.7504 20.0822 56.7556 20.1287 56.7706C20.1752 56.7856 20.2182 56.8099 20.2549 56.8421L28.8035 63.3717C28.8598 63.4169 28.9013 63.4777 28.923 63.5465C28.9446 63.6153 28.9454 63.689 28.9253 63.7583L26.4122 72.3069L25.417 77.7983C25.4091 77.8792 25.3734 77.9548 25.316 78.0123C25.2585 78.0697 25.1829 78.1054 25.102 78.1133Z" fill="#143A56"/>
<path d="M39.3783 97.7237C39.312 97.7245 39.2467 97.7068 39.1898 97.6727C39.133 97.6386 39.0867 97.5893 39.0562 97.5304L32.2617 83.9271C32.2405 83.8811 32.2295 83.831 32.2295 83.7803C32.2295 83.7296 32.2405 83.6796 32.2617 83.6336L35.19 76.1589C35.2043 76.1118 35.2282 76.0681 35.2601 76.0307C35.2921 75.9932 35.3314 75.9627 35.3757 75.9412C35.42 75.9196 35.4682 75.9074 35.5175 75.9053C35.5667 75.9033 35.6158 75.9114 35.6617 75.9292C35.7076 75.9469 35.7494 75.974 35.7844 76.0087C35.8194 76.0433 35.8468 76.0848 35.865 76.1306C35.8833 76.1763 35.8919 76.2253 35.8903 76.2746C35.8887 76.3238 35.8769 76.3722 35.8558 76.4166L32.992 83.7481L39.7148 97.1939C39.7369 97.2355 39.7502 97.2812 39.7542 97.3282C39.7582 97.3751 39.7526 97.4224 39.7379 97.4672C39.7232 97.5119 39.6997 97.5533 39.6686 97.5888C39.6376 97.6242 39.5998 97.6531 39.5573 97.6736C39.5041 97.7079 39.4417 97.7254 39.3783 97.7237Z" fill="#143A56"/>
<path d="M32.2622 75.2497C32.2149 75.2592 32.1662 75.2592 32.119 75.2497L25.9259 72.572C25.8826 72.5532 25.8435 72.5261 25.8108 72.4921C25.778 72.4582 25.7522 72.4182 25.735 72.3743C25.7 72.2857 25.7018 72.1868 25.7397 72.0995C25.7777 72.0121 25.8488 71.9434 25.9375 71.9085C26.0261 71.8736 26.1249 71.8753 26.2123 71.9133L32.4054 74.5982C32.4774 74.633 32.5357 74.6909 32.571 74.7627C32.6063 74.8345 32.6165 74.916 32.6001 74.9943C32.5836 75.0726 32.5413 75.1431 32.4801 75.1946C32.4189 75.2461 32.3421 75.2756 32.2622 75.2783V75.2497Z" fill="#143A56"/>
<path d="M106.006 79.6097C105.959 79.6061 105.913 79.5932 105.871 79.5718C105.829 79.5504 105.792 79.5208 105.761 79.4849C105.731 79.449 105.707 79.4073 105.693 79.3624C105.679 79.3175 105.673 79.2701 105.677 79.2231L105.935 75.3139C105.944 75.2202 105.988 75.1335 106.058 75.071C106.129 75.0086 106.22 74.9752 106.314 74.9774C106.362 74.9801 106.409 74.9923 106.451 75.0134C106.494 75.0344 106.533 75.0638 106.564 75.0998C106.595 75.1358 106.619 75.1778 106.634 75.2231C106.649 75.2685 106.655 75.3164 106.651 75.364L106.386 79.2732C106.383 79.3202 106.371 79.3663 106.351 79.4087C106.33 79.451 106.301 79.489 106.266 79.5202C106.231 79.5515 106.19 79.5755 106.145 79.5908C106.101 79.6062 106.053 79.6126 106.006 79.6097Z" fill="#143A56"/>
<path d="M106.5 72.0636C106.444 72.0642 106.388 72.0515 106.337 72.0267C106.286 72.0018 106.241 71.9654 106.207 71.9204L103.723 68.4408L98.7108 64.4458C98.6494 64.3971 98.6064 64.3289 98.5891 64.2524L97.0784 57.7157C97.0678 57.6696 97.0665 57.6219 97.0745 57.5753C97.0825 57.5287 97.0996 57.4842 97.1249 57.4442C97.1502 57.4043 97.1832 57.3697 97.2219 57.3426C97.2606 57.3155 97.3043 57.2963 97.3505 57.2861C97.4424 57.2665 97.5384 57.2831 97.6184 57.3324C97.6984 57.3818 97.7563 57.4601 97.78 57.551L99.2549 63.9947L104.188 67.9397C104.213 67.96 104.235 67.9842 104.252 68.0113L106.765 71.5266C106.82 71.6041 106.842 71.6996 106.827 71.7931C106.813 71.8866 106.762 71.9708 106.687 72.0278C106.629 72.0556 106.565 72.0679 106.5 72.0636Z" fill="#143A56"/>
<path d="M98.9897 201.524L91.0353 217.01C90.6149 217.831 89.976 218.521 89.189 219.002C88.402 219.483 87.4974 219.738 86.5749 219.738H59.4685C58.5448 219.739 57.6387 219.485 56.8503 219.004C56.0619 218.522 55.4219 217.832 55.0009 217.01L47.0537 201.524H98.9897Z" fill="#143A56"/>
<path d="M86.5755 220.096H59.4691C58.4798 220.099 57.5089 219.828 56.6646 219.312C55.8202 218.796 55.1355 218.057 54.6865 217.175L46.725 201.682C46.6982 201.627 46.6858 201.566 46.689 201.506C46.6921 201.445 46.7107 201.386 46.7429 201.334C46.7751 201.283 46.82 201.24 46.8732 201.211C46.9265 201.181 46.9863 201.166 47.0472 201.166H98.9903C99.051 201.166 99.1106 201.182 99.1633 201.212C99.216 201.242 99.26 201.286 99.291 201.338C99.3212 201.39 99.337 201.449 99.337 201.51C99.337 201.57 99.3212 201.629 99.291 201.682L91.3438 217.175C90.8953 218.054 90.2126 218.792 89.3712 219.307C88.5298 219.823 87.5623 220.096 86.5755 220.096ZM47.6343 201.882L55.3165 216.846C55.7063 217.609 56.2999 218.251 57.0316 218.698C57.7632 219.145 58.6044 219.381 59.462 219.38H86.5755C87.433 219.381 88.2742 219.145 89.0059 218.698C89.7375 218.251 90.3311 217.609 90.7209 216.846L98.4032 201.882H47.6343Z" fill="#143A56"/>
<path d="M111.218 146.774H34.8105V201.016H111.218V146.774Z" fill="#143A56"/>
<path d="M111.219 201.374H34.8111C34.7162 201.374 34.6251 201.336 34.558 201.269C34.4908 201.202 34.4531 201.111 34.4531 201.016V146.774C34.4531 146.679 34.4908 146.588 34.558 146.521C34.6251 146.454 34.7162 146.416 34.8111 146.416H111.219C111.314 146.416 111.405 146.454 111.472 146.521C111.539 146.588 111.577 146.679 111.577 146.774V201.016C111.577 201.111 111.539 201.202 111.472 201.269C111.405 201.336 111.314 201.374 111.219 201.374ZM35.1691 200.658H110.861V147.132H35.1691V200.658Z" fill="#143A56"/>
<path d="M65.5545 146.774H44.627V201.016H65.5545V146.774Z" fill="white"/>
<path d="M65.5613 201.374H44.6265C44.5316 201.374 44.4405 201.336 44.3734 201.269C44.3063 201.202 44.2686 201.111 44.2686 201.016V146.774C44.2704 146.68 44.3087 146.59 44.3754 146.523C44.4422 146.456 44.5322 146.418 44.6265 146.416H65.5613C65.6557 146.418 65.7457 146.456 65.8124 146.523C65.8791 146.59 65.9174 146.68 65.9193 146.774V201.016C65.9193 201.111 65.8816 201.202 65.8144 201.269C65.7473 201.336 65.6562 201.374 65.5613 201.374ZM44.9845 200.658H65.1961V147.132H44.9845V200.658Z" fill="#143A56"/>
<path d="M111.218 201.016L105.627 208.132C104.992 208.983 104.168 209.673 103.22 210.149C102.271 210.625 101.225 210.874 100.164 210.874H45.8653C44.804 210.875 43.7571 210.628 42.8086 210.152C41.86 209.675 41.036 208.984 40.4025 208.132L34.8037 201.016H111.218Z" fill="#143A56"/>
<path d="M100.164 211.233H45.8652C44.7542 211.229 43.6592 210.969 42.6655 210.472C41.6719 209.975 40.8066 209.255 40.1375 208.369L34.5315 201.259C34.49 201.206 34.464 201.142 34.4564 201.076C34.4488 201.009 34.4599 200.941 34.4885 200.88C34.518 200.819 34.5639 200.769 34.6208 200.733C34.6778 200.698 34.7436 200.679 34.8107 200.679H111.218C111.286 200.678 111.353 200.696 111.41 200.732C111.468 200.767 111.515 200.818 111.545 200.879C111.575 200.939 111.587 201.007 111.58 201.075C111.573 201.142 111.547 201.206 111.505 201.259L105.906 208.376C105.234 209.263 104.367 209.983 103.37 210.479C102.374 210.974 101.277 211.232 100.164 211.233ZM35.5481 201.374L40.6887 207.91C41.2912 208.717 42.0732 209.373 42.9729 209.825C43.8726 210.278 44.8653 210.514 45.8723 210.517H100.164C101.169 210.513 102.159 210.276 103.057 209.825C103.956 209.375 104.737 208.721 105.34 207.918L110.488 201.374H35.5481Z" fill="#143A56"/>
<path d="M65.5185 208.132L59.9268 201.016H44.8916L50.4904 208.132C51.1243 208.983 51.9483 209.675 52.8968 210.151C53.8453 210.627 54.892 210.875 55.9532 210.874H70.9884C69.9262 210.875 68.8785 210.627 67.9289 210.151C66.9792 209.675 66.1539 208.984 65.5185 208.132Z" fill="white"/>
<path d="M70.9818 211.232H55.8893C54.7784 211.229 53.6833 210.969 52.6897 210.472C51.6961 209.975 50.8308 209.255 50.1616 208.369L44.5771 201.259C44.5355 201.206 44.5095 201.143 44.5022 201.076C44.4948 201.01 44.5063 200.942 44.5354 200.882C44.5646 200.821 44.6101 200.77 44.6668 200.735C44.7236 200.699 44.7892 200.68 44.8563 200.679H59.8916C59.9454 200.679 59.9986 200.691 60.047 200.715C60.0955 200.738 60.1378 200.773 60.1708 200.815L65.7696 207.932C66.3728 208.736 67.1542 209.389 68.0524 209.84C68.9505 210.291 69.941 210.527 70.946 210.531C71.041 210.531 71.132 210.569 71.1992 210.636C71.2663 210.703 71.304 210.794 71.304 210.889C71.301 210.975 71.2667 211.058 71.2074 211.121C71.1482 211.184 71.068 211.224 70.9818 211.232ZM45.5938 201.374L50.7344 207.91C51.3376 208.717 52.1198 209.372 53.0193 209.824C53.9189 210.276 54.9111 210.513 55.918 210.517H67.8674C66.832 210.021 65.9309 209.285 65.2398 208.369L59.7555 201.388L45.5938 201.374Z" fill="#143A56"/>
<path d="M111.218 161.051H34.8105V201.016H111.218V161.051Z" fill="#143A56"/>
<path d="M111.219 201.374H34.8111C34.7162 201.374 34.6251 201.336 34.558 201.269C34.4908 201.202 34.4531 201.111 34.4531 201.016V161.051C34.4531 160.956 34.4908 160.865 34.558 160.797C34.6251 160.73 34.7162 160.693 34.8111 160.693H111.219C111.314 160.693 111.405 160.73 111.472 160.797C111.539 160.865 111.577 160.956 111.577 161.051V201.016C111.577 201.111 111.539 201.202 111.472 201.269C111.405 201.336 111.314 201.374 111.219 201.374ZM35.1691 200.658H110.861V161.409H35.1691V200.658Z" fill="#143A56"/>
<path d="M110.767 169.757L35.5913 173.981C34.7844 174.028 33.9918 173.753 33.3877 173.216C32.7836 172.679 32.4174 171.924 32.3694 171.117C32.3224 170.31 32.5975 169.516 33.1342 168.911C33.671 168.306 34.4258 167.938 35.2333 167.888L110.409 163.664C111.217 163.619 112.009 163.895 112.614 164.431C113.218 164.967 113.587 165.721 113.638 166.528C113.685 167.337 113.409 168.131 112.871 168.736C112.333 169.342 111.576 169.709 110.767 169.757Z" fill="#143A56"/>
<path d="M35.434 174.353C34.5946 174.353 33.7846 174.044 33.1572 173.487C32.6541 173.035 32.2959 172.445 32.1279 171.79C31.9599 171.135 31.9896 170.445 32.2132 169.807C32.4368 169.17 32.8444 168.612 33.3845 168.206C33.9245 167.799 34.5729 167.561 35.2479 167.523L110.424 163.299C111.329 163.247 112.217 163.558 112.893 164.161C113.569 164.765 113.978 165.612 114.029 166.517C114.08 167.422 113.77 168.31 113.166 168.986C112.563 169.662 111.715 170.071 110.811 170.122L35.6345 174.346L35.434 174.353ZM110.61 164.007H110.453L35.2765 168.232C34.9209 168.251 34.5726 168.34 34.2518 168.495C33.931 168.65 33.6441 168.867 33.4077 169.133C33.1713 169.399 32.9901 169.71 32.8746 170.047C32.7591 170.384 32.7116 170.74 32.7348 171.096C32.754 171.451 32.8435 171.799 32.9982 172.12C33.1529 172.441 33.3697 172.728 33.636 172.964C33.9024 173.201 34.213 173.382 34.5499 173.497C34.8868 173.613 35.2433 173.66 35.5987 173.637L110.775 169.413C111.491 169.394 112.17 169.091 112.662 168.572C113.155 168.052 113.421 167.358 113.402 166.642C113.383 165.926 113.081 165.247 112.561 164.755C112.042 164.262 111.347 163.996 110.632 164.015L110.61 164.007Z" fill="#143A56"/>
<path d="M35.2621 170.394L110.438 166.17C111.053 166.134 111.665 166.286 112.191 166.606C112.718 166.926 113.135 167.398 113.388 167.96C113.609 167.482 113.702 166.956 113.658 166.432C113.614 165.908 113.435 165.405 113.137 164.971C112.839 164.538 112.434 164.189 111.961 163.96C111.488 163.731 110.963 163.629 110.438 163.664L35.2621 167.888C34.7685 167.916 34.2892 168.064 33.8655 168.319C33.4419 168.574 33.0865 168.928 32.83 169.351C32.5736 169.774 32.4238 170.252 32.3934 170.746C32.3631 171.239 32.4532 171.733 32.656 172.184C32.8867 171.677 33.2512 171.242 33.7104 170.927C34.1696 170.611 34.706 170.427 35.2621 170.394Z" fill="white"/>
<path d="M32.6556 172.556C32.5875 172.557 32.5208 172.537 32.4636 172.5C32.4064 172.464 32.3612 172.411 32.3334 172.349C32.0996 171.844 31.9932 171.289 32.0237 170.733C32.0541 170.178 32.2205 169.638 32.5082 169.162C32.7958 168.685 33.196 168.287 33.6736 168.001C34.1512 167.715 34.6916 167.551 35.2474 167.523L110.424 163.299C110.87 163.275 111.316 163.339 111.738 163.487C112.159 163.636 112.547 163.866 112.88 164.164C113.212 164.463 113.482 164.824 113.675 165.227C113.868 165.63 113.98 166.067 114.003 166.514C114.034 167.06 113.931 167.606 113.703 168.103C113.674 168.167 113.628 168.22 113.569 168.259C113.511 168.297 113.443 168.317 113.373 168.318C113.304 168.322 113.234 168.303 113.176 168.264C113.118 168.225 113.074 168.169 113.051 168.103C112.826 167.608 112.457 167.192 111.992 166.91C111.527 166.628 110.988 166.492 110.445 166.521L35.2689 170.752C34.776 170.781 34.3007 170.946 33.8953 171.227C33.4898 171.509 33.1699 171.897 32.9706 172.349C32.9428 172.411 32.8976 172.464 32.8404 172.5C32.7832 172.537 32.7165 172.557 32.6484 172.556H32.6556ZM110.603 164.029H110.445L35.2689 168.253C34.9139 168.274 34.5665 168.365 34.2466 168.52C33.9267 168.676 33.6406 168.893 33.4045 169.159C33.1685 169.425 32.9872 169.734 32.8709 170.071C32.7547 170.407 32.7059 170.762 32.7272 171.117C32.7272 171.196 32.7272 171.282 32.7272 171.361C33.0261 170.981 33.4021 170.67 33.8304 170.446C34.2586 170.223 34.7294 170.093 35.2116 170.065L110.388 165.841C110.933 165.808 111.478 165.907 111.977 166.131C112.475 166.354 112.913 166.694 113.252 167.122C113.307 166.74 113.279 166.35 113.171 165.979C113.063 165.608 112.876 165.264 112.624 164.972C112.371 164.679 112.059 164.444 111.707 164.283C111.356 164.122 110.975 164.037 110.588 164.036L110.603 164.029Z" fill="#143A56"/>
<path d="M110.767 196.612L35.5913 200.837C34.7844 200.884 33.9918 200.608 33.3877 200.071C32.7836 199.534 32.4174 198.78 32.3694 197.973C32.3224 197.165 32.5975 196.372 33.1342 195.767C33.671 195.161 34.4258 194.794 35.2333 194.744L110.409 190.52C111.217 190.473 112.01 190.748 112.616 191.284C113.221 191.821 113.589 192.576 113.638 193.383C113.685 194.192 113.409 194.987 112.871 195.592C112.333 196.197 111.576 196.564 110.767 196.612Z" fill="white"/>
<path d="M35.4333 201.202C34.5276 201.226 33.6491 200.89 32.9912 200.267C32.3333 199.644 31.9498 198.785 31.9251 197.88C31.9004 196.974 32.2365 196.095 32.8596 195.438C33.4826 194.78 34.3414 194.396 35.2472 194.372L110.423 190.147C111.328 190.096 112.216 190.406 112.892 191.01C113.568 191.613 113.977 192.461 114.028 193.366C114.079 194.27 113.769 195.158 113.166 195.835C112.562 196.511 111.715 196.919 110.81 196.97L35.6338 201.195L35.4333 201.202ZM110.609 190.856H110.452L35.2758 195.08C34.5609 195.121 33.8915 195.444 33.4148 195.979C32.9382 196.513 32.6933 197.215 32.7341 197.93C32.775 198.645 33.0981 199.314 33.6325 199.791C34.1669 200.267 34.8688 200.512 35.5837 200.471L110.76 196.247C111.476 196.228 112.155 195.926 112.647 195.406C113.14 194.886 113.406 194.192 113.387 193.477C113.368 192.761 113.066 192.082 112.546 191.589C112.027 191.096 111.332 190.83 110.617 190.849L110.609 190.856Z" fill="#143A56"/>
<path d="M110.767 183.188L35.5913 187.412C34.7844 187.459 33.9918 187.184 33.3877 186.647C32.7836 186.11 32.4174 185.355 32.3694 184.548C32.3224 183.741 32.5975 182.947 33.1342 182.342C33.671 181.737 34.4258 181.369 35.2333 181.319L110.409 177.095C111.217 177.048 112.01 177.323 112.616 177.86C113.221 178.397 113.589 179.152 113.638 179.959C113.685 180.768 113.409 181.562 112.871 182.168C112.333 182.773 111.576 183.14 110.767 183.188Z" fill="#143A56"/>
<path d="M35.434 187.777C34.5946 187.777 33.7846 187.469 33.1572 186.911C32.6541 186.46 32.2959 185.869 32.1279 185.214C31.9599 184.56 31.9896 183.87 32.2132 183.232C32.4368 182.594 32.8444 182.036 33.3845 181.63C33.9245 181.223 34.5729 180.986 35.2479 180.947L110.424 176.723C110.872 176.698 111.321 176.761 111.744 176.909C112.168 177.057 112.558 177.287 112.893 177.586C113.228 177.884 113.5 178.246 113.695 178.65C113.89 179.055 114.003 179.493 114.029 179.941C114.054 180.389 113.991 180.838 113.843 181.262C113.695 181.685 113.465 182.075 113.166 182.41C112.867 182.745 112.506 183.018 112.101 183.212C111.697 183.407 111.259 183.521 110.811 183.546L35.6345 187.77L35.434 187.777ZM110.61 177.432H110.453L35.2765 181.656C34.9215 181.677 34.5741 181.768 34.2543 181.923C33.9344 182.078 33.6482 182.295 33.4122 182.561C33.1761 182.827 32.9948 183.137 32.8786 183.473C32.7624 183.809 32.7135 184.165 32.7348 184.52C32.7521 184.874 32.8402 185.221 32.994 185.541C33.1477 185.861 33.3639 186.147 33.6298 186.381C33.8922 186.624 34.2 186.812 34.5355 186.935C34.871 187.058 35.2274 187.113 35.5844 187.097L110.76 182.873C111.115 182.864 111.464 182.785 111.788 182.64C112.112 182.496 112.404 182.289 112.648 182.032C112.892 181.775 113.083 181.472 113.21 181.141C113.337 180.81 113.397 180.457 113.388 180.102C113.379 179.748 113.3 179.399 113.155 179.075C113.011 178.751 112.804 178.459 112.547 178.215C112.29 177.971 111.987 177.78 111.656 177.653C111.325 177.526 110.972 177.465 110.617 177.475L110.61 177.432Z" fill="#143A56"/>
<path d="M35.2621 183.818L110.438 179.594C111.053 179.559 111.665 179.711 112.191 180.031C112.718 180.35 113.135 180.822 113.388 181.384C113.609 180.907 113.702 180.381 113.658 179.857C113.614 179.333 113.435 178.829 113.137 178.396C112.839 177.962 112.434 177.614 111.961 177.385C111.488 177.155 110.963 177.053 110.438 177.088L35.2621 181.313C34.7685 181.341 34.2892 181.489 33.8655 181.744C33.4419 181.999 33.0865 182.353 32.83 182.775C32.5736 183.198 32.4238 183.677 32.3934 184.17C32.3631 184.664 32.4532 185.157 32.656 185.608C32.8867 185.101 33.2512 184.667 33.7104 184.351C34.1696 184.036 34.706 183.852 35.2621 183.818Z" fill="white"/>
<path d="M32.6556 185.98C32.5875 185.981 32.5208 185.961 32.4636 185.924C32.4064 185.888 32.3612 185.835 32.3334 185.773C32.0996 185.268 31.9932 184.713 32.0237 184.157C32.0541 183.602 32.2205 183.062 32.5082 182.586C32.7958 182.109 33.196 181.711 33.6736 181.425C34.1512 181.139 34.6916 180.975 35.2474 180.947L110.424 176.723C110.87 176.699 111.316 176.763 111.738 176.911C112.159 177.06 112.547 177.29 112.88 177.589C113.212 177.887 113.482 178.248 113.675 178.651C113.868 179.054 113.98 179.491 114.003 179.938C114.034 180.484 113.931 181.03 113.703 181.527C113.674 181.591 113.628 181.645 113.569 181.683C113.511 181.721 113.443 181.741 113.373 181.742C113.304 181.742 113.237 181.721 113.18 181.683C113.123 181.645 113.078 181.591 113.051 181.527C112.826 181.032 112.457 180.616 111.992 180.334C111.527 180.052 110.988 179.916 110.445 179.945L35.2689 184.176C34.776 184.205 34.3007 184.37 33.8953 184.651C33.4898 184.933 33.1699 185.321 32.9706 185.773C32.9428 185.835 32.8976 185.888 32.8404 185.924C32.7832 185.961 32.7165 185.981 32.6484 185.98H32.6556ZM110.603 177.432H110.445L35.2689 181.656C34.9139 181.677 34.5665 181.768 34.2466 181.923C33.9267 182.078 33.6406 182.295 33.4045 182.561C33.1685 182.827 32.9872 183.137 32.8709 183.473C32.7547 183.809 32.7059 184.165 32.7272 184.52C32.7272 184.599 32.7272 184.684 32.7272 184.763C33.0261 184.384 33.4021 184.072 33.8304 183.849C34.2586 183.625 34.7294 183.495 35.2116 183.467L110.388 179.243C110.933 179.211 111.478 179.31 111.977 179.533C112.475 179.756 112.913 180.096 113.252 180.525C113.307 180.142 113.279 179.752 113.171 179.381C113.063 179.01 112.876 178.667 112.624 178.375C112.371 178.082 112.059 177.847 111.707 177.686C111.356 177.524 110.975 177.44 110.588 177.439L110.603 177.432Z" fill="#143A56"/>
<path d="M35.2621 197.243L110.438 193.018C111.053 192.983 111.665 193.135 112.191 193.455C112.718 193.775 113.135 194.247 113.388 194.808C113.609 194.331 113.702 193.805 113.658 193.281C113.614 192.757 113.435 192.254 113.137 191.82C112.839 191.387 112.434 191.038 111.961 190.809C111.488 190.58 110.963 190.478 110.438 190.513L35.2621 194.737C34.7685 194.765 34.2892 194.913 33.8655 195.168C33.4419 195.423 33.0865 195.777 32.83 196.2C32.5736 196.622 32.4238 197.101 32.3934 197.595C32.3631 198.088 32.4532 198.582 32.656 199.033C32.8867 198.526 33.2512 198.091 33.7104 197.776C34.1696 197.46 34.706 197.276 35.2621 197.243Z" fill="#143A56"/>
<path d="M32.6556 199.405C32.5875 199.405 32.5208 199.386 32.4636 199.349C32.4064 199.312 32.3612 199.259 32.3334 199.197C32.0996 198.692 31.9932 198.137 32.0237 197.582C32.0541 197.026 32.2205 196.486 32.5082 196.01C32.7958 195.534 33.196 195.135 33.6736 194.849C34.1512 194.564 34.6916 194.4 35.2474 194.371L110.424 190.147C110.87 190.123 111.316 190.187 111.738 190.336C112.159 190.484 112.547 190.714 112.88 191.013C113.212 191.311 113.482 191.673 113.675 192.076C113.868 192.479 113.98 192.916 114.003 193.362C114.034 193.908 113.931 194.454 113.703 194.951C113.674 195.015 113.628 195.069 113.569 195.107C113.511 195.145 113.443 195.166 113.373 195.166C113.304 195.166 113.237 195.145 113.18 195.107C113.123 195.069 113.078 195.015 113.051 194.951C112.824 194.459 112.454 194.046 111.989 193.767C111.524 193.487 110.986 193.354 110.445 193.383L35.2689 197.615C34.776 197.644 34.3007 197.808 33.8953 198.09C33.4898 198.372 33.1699 198.76 32.9706 199.211C32.9428 199.274 32.8976 199.326 32.8404 199.363C32.7832 199.4 32.7165 199.419 32.6484 199.419L32.6556 199.405ZM110.603 190.856H110.445L35.2689 195.08C34.9139 195.101 34.5665 195.192 34.2466 195.347C33.9267 195.503 33.6406 195.72 33.4045 195.985C33.1685 196.251 32.9872 196.561 32.8709 196.897C32.7547 197.233 32.7059 197.589 32.7272 197.944C32.7272 198.023 32.7272 198.109 32.7272 198.188C33.0261 197.808 33.4021 197.496 33.8304 197.273C34.2586 197.05 34.7294 196.92 35.2116 196.892L110.388 192.667C110.933 192.635 111.478 192.734 111.977 192.957C112.475 193.181 112.913 193.521 113.252 193.949C113.307 193.567 113.279 193.177 113.171 192.806C113.063 192.435 112.876 192.091 112.624 191.799C112.371 191.506 112.059 191.271 111.707 191.11C111.356 190.949 110.975 190.864 110.588 190.863L110.603 190.856Z" fill="#143A56"/>
<path d="M65.5328 140.724H65.497C65.4499 140.72 65.4041 140.706 65.3624 140.684C65.3207 140.662 65.2837 140.631 65.2538 140.595C65.2238 140.558 65.2014 140.516 65.1879 140.471C65.1743 140.425 65.1699 140.378 65.1748 140.331C65.1748 140.209 66.2846 128.288 66.485 115.387C66.485 115.34 66.4943 115.294 66.5124 115.251C66.5305 115.208 66.557 115.169 66.5903 115.136C66.6236 115.103 66.6632 115.078 66.7065 115.06C66.7499 115.043 66.7963 115.035 66.843 115.036C66.9379 115.036 67.029 115.073 67.0961 115.141C67.1633 115.208 67.201 115.299 67.201 115.394C67.0005 128.324 65.9123 140.281 65.9123 140.402C65.8999 140.493 65.8543 140.577 65.7843 140.636C65.7142 140.696 65.6247 140.727 65.5328 140.724Z" fill="#143A56"/>
<path d="M80.6758 133.601C80.5808 133.601 80.4898 133.563 80.4227 133.496C80.3555 133.429 80.3178 133.337 80.3178 133.243C80.2247 118.802 81.177 96.1986 81.9359 78.0346C82.0075 76.2662 82.0862 74.5336 82.1507 72.8582C80.8851 73.5341 79.5305 74.0282 78.127 74.326C74.1707 75.131 70.0567 74.472 66.5498 72.4716C67.0271 79.4833 67.2658 88.0462 67.2658 98.1604C67.264 98.2547 67.2257 98.3447 67.1589 98.4115C67.0922 98.4782 67.0022 98.5165 66.9078 98.5183C66.8602 98.5183 66.8131 98.5089 66.7692 98.4904C66.7252 98.472 66.6855 98.445 66.6521 98.411C66.6188 98.377 66.5926 98.3367 66.575 98.2924C66.5574 98.2481 66.5489 98.2008 66.5498 98.1532C66.5498 87.8791 66.3136 79.1372 65.8339 72.0205C63.0062 70.2543 60.7642 67.691 59.3902 64.6533C55.209 55.3458 53.7484 47.0263 56.0681 45.6946C57.4142 44.9213 59.5334 46.5323 62.3614 50.4915C64.3661 53.3053 65.7694 60.3861 66.557 71.6124C69.9867 73.6993 74.0759 74.42 78.0124 73.6315C79.4914 73.3147 80.9118 72.7687 82.2223 72.0134C82.5158 64.9325 82.7521 58.854 82.8595 54.5367C83.0313 47.1623 86.4393 41.2556 89.1385 41.2556C90.3484 41.2556 92.3746 42.4369 92.3746 50.0978C92.3746 60.7942 88.9165 68.7558 82.9024 72.4358C82.8261 74.2544 82.7473 76.1302 82.6662 78.0633C81.9072 96.2201 80.955 118.816 81.0481 133.235C81.049 133.283 81.0405 133.33 81.0229 133.375C81.0054 133.419 80.9791 133.459 80.9458 133.493C80.9125 133.527 80.8727 133.554 80.8288 133.573C80.7849 133.591 80.7377 133.601 80.6901 133.601H80.6758ZM89.1027 41.9573C87.0264 41.9573 83.7043 47.3413 83.5396 54.5367C83.4394 58.7681 83.2103 64.6604 82.9239 71.548C88.4655 67.8823 91.6443 60.2573 91.6443 50.0691C91.6443 45.0001 90.6993 41.9644 89.117 41.9429L89.1027 41.9573ZM56.7125 46.253C56.5886 46.2505 56.4659 46.2775 56.3545 46.3318C54.672 47.2983 55.746 54.9233 59.9773 64.3741C61.2179 67.1196 63.2019 69.4632 65.705 71.1399C64.9246 60.4005 63.5571 53.5559 61.6885 50.9211C58.8461 46.8902 57.364 46.2387 56.7125 46.2387V46.253Z" fill="#143A56"/>
<path d="M80.8254 142.486C80.7329 142.486 80.6439 142.45 80.5772 142.386C80.5105 142.322 80.4711 142.234 80.4674 142.142C80.4674 142.142 80.4173 140.338 80.3672 137.345C80.3672 137.25 80.4049 137.159 80.472 137.092C80.5392 137.025 80.6302 136.987 80.7252 136.987C80.8183 136.989 80.9073 137.026 80.9739 137.091C81.0404 137.157 81.0795 137.245 81.0832 137.338C81.1333 140.316 81.1834 142.121 81.1834 142.121C81.1843 142.168 81.176 142.214 81.1589 142.258C81.1418 142.302 81.1162 142.342 81.0836 142.376C81.051 142.41 81.0121 142.437 80.969 142.456C80.9259 142.475 80.8796 142.485 80.8326 142.486H80.8254Z" fill="#143A56"/>
<path d="M109.1 119.518C110.427 111.055 113.342 102.92 117.691 95.5399C122.775 86.8052 130.142 79.0728 134.366 69.9371C138.59 60.8014 140.301 50.4701 140.308 40.4466C140.308 38.5851 140.244 36.7451 140.115 34.9265" fill="white"/>
<path d="M109.1 120.234H108.999C108.811 120.207 108.642 120.107 108.528 119.955C108.413 119.803 108.364 119.612 108.391 119.424C109.721 110.868 112.668 102.643 117.075 95.1891C119.311 91.488 121.734 87.9035 124.335 84.4497C127.758 79.7315 131.302 74.8558 133.722 69.6293C137.566 61.3312 139.6 51.2362 139.6 40.4395C139.6 38.6137 139.535 36.7737 139.406 34.9695C139.4 34.8755 139.412 34.7811 139.442 34.6917C139.472 34.6023 139.519 34.5197 139.581 34.4486C139.642 34.3774 139.718 34.3192 139.802 34.2771C139.886 34.235 139.978 34.21 140.072 34.2034C140.166 34.1968 140.261 34.2088 140.35 34.2387C140.439 34.2686 140.522 34.3158 140.593 34.3777C140.664 34.4395 140.723 34.5147 140.765 34.5991C140.807 34.6834 140.832 34.7752 140.838 34.8693C140.974 36.7093 141.039 38.578 141.039 40.4395C141.039 51.4438 138.955 61.7465 135.032 70.2307C132.547 75.5861 128.968 80.5191 125.502 85.2659C122.94 88.6784 120.55 92.2173 118.343 95.8693C114.014 103.178 111.117 111.246 109.808 119.639C109.78 119.806 109.693 119.957 109.563 120.066C109.433 120.175 109.269 120.234 109.1 120.234Z" fill="#143A56"/>
<path d="M108.354 141.254C108.927 137.911 108.605 134.145 108.476 130.014C108.476 129.298 108.44 128.517 108.476 127.773" fill="white"/>
<path d="M108.354 141.97H108.233C108.139 141.955 108.05 141.921 107.97 141.87C107.89 141.82 107.821 141.754 107.766 141.677C107.712 141.6 107.673 141.513 107.652 141.42C107.631 141.328 107.629 141.233 107.646 141.14C108.104 138.505 107.975 135.526 107.846 132.376C107.846 131.61 107.782 130.837 107.76 130.042C107.739 129.247 107.724 128.524 107.76 127.773C107.76 127.583 107.836 127.401 107.97 127.266C108.104 127.132 108.286 127.057 108.476 127.057C108.666 127.057 108.848 127.132 108.982 127.266C109.117 127.401 109.192 127.583 109.192 127.773C109.192 128.489 109.192 129.255 109.192 129.992C109.192 130.73 109.249 131.553 109.278 132.312C109.518 135.333 109.443 138.37 109.056 141.376C109.028 141.542 108.942 141.692 108.813 141.801C108.685 141.909 108.523 141.969 108.354 141.97Z" fill="#143A56"/>
</svg>
