<svg width="16" height="16" viewBox="0 0 16 16" fill="none" xmlns="http://www.w3.org/2000/svg">
<path d="M12.875 13H3.125L0.875 15.25V2.5C0.875 1.2625 1.8875 0.25 3.125 0.25H12.875C14.1125 0.25 15.125 1.2625 15.125 2.5V10.75C15.125 11.9875 14.1125 13 12.875 13Z" fill="#808080"/>
<path d="M7.25 5.5H8.75V9.625H7.25V5.5Z" fill="white"/>
<path d="M8 4.375C8.41421 4.375 8.75 4.03921 8.75 3.625C8.75 3.21079 8.41421 2.875 8 2.875C7.58579 2.875 7.25 3.21079 7.25 3.625C7.25 4.03921 7.58579 4.375 8 4.375Z" fill="white"/>
</svg>
