<svg width="1440" height="1024" viewBox="0 0 1440 1024" fill="none" xmlns="http://www.w3.org/2000/svg">
<g clip-path="url(#clip0_1461_1371)">
<rect width="1440" height="1024" fill="white"/>
<g filter="url(#filter0_f_1461_1371)">
<path fill-rule="evenodd" clip-rule="evenodd" d="M-89.0517 292.906C-127.16 243.044 -235.763 262.187 -247.837 200.601C-259.144 142.931 -169.113 119.027 -132.091 73.3854C-99.698 33.4495 -93.9506 -33.4459 -45.0625 -49.388C3.8565 -65.3402 48.8761 -17.7245 97.724 -1.55602C143.992 13.7586 194.732 12.955 233.301 42.7491C280.042 78.8561 341.091 123.339 335.521 182.139C329.832 242.193 241.24 254.074 208.484 304.729C174.352 357.513 196.756 442.068 144.678 477.269C92.4016 512.606 9.61325 511.721 -39.9288 472.642C-89.917 433.213 -50.3914 343.492 -89.0517 292.906Z" stroke="url(#paint0_linear_1461_1371)" stroke-width="2"/>
</g>
<g filter="url(#filter1_f_1461_1371)">
<path fill-rule="evenodd" clip-rule="evenodd" d="M1165.94 679.726C1213.68 638.984 1188.71 531.572 1249.55 516.194C1306.53 501.793 1335.25 590.405 1382.82 624.911C1424.45 655.104 1491.56 657.236 1510.11 705.193C1528.68 753.18 1483.56 800.702 1470.05 850.351C1457.25 897.378 1460.79 948 1433.12 988.12C1399.59 1036.74 1358.46 1100.1 1299.44 1097.71C1239.17 1095.27 1222.53 1007.44 1170.18 977.466C1115.63 946.23 1032.41 973.161 994.452 923.058C956.348 872.762 952.768 790.047 989.118 738.469C1025.79 686.428 1117.52 721.058 1165.94 679.726Z" stroke="url(#paint1_linear_1461_1371)" stroke-width="2"/>
</g>
<g filter="url(#filter2_f_1461_1371)">
<path fill-rule="evenodd" clip-rule="evenodd" d="M871.943 -109.274C919.679 -150.016 894.707 -257.428 955.551 -272.806C1012.53 -287.207 1041.25 -198.595 1088.82 -164.089C1130.45 -133.896 1197.56 -131.764 1216.11 -83.8071C1234.68 -35.8196 1189.56 11.7022 1176.05 61.3509C1163.25 108.378 1166.79 159 1139.12 199.12C1105.59 247.74 1064.46 311.099 1005.44 308.708C945.171 306.266 928.53 218.443 876.182 188.466C821.634 157.23 738.41 184.161 700.452 134.058C662.348 83.7623 658.768 1.04671 695.118 -50.5306C731.795 -102.572 823.516 -67.9423 871.943 -109.274Z" stroke="url(#paint2_linear_1461_1371)" stroke-width="2"/>
</g>
</g>
<defs>
<filter id="filter0_f_1461_1371" x="-259.814" y="-63.6111" width="606.69" height="577.511" filterUnits="userSpaceOnUse" color-interpolation-filters="sRGB">
<feFlood flood-opacity="0" result="BackgroundImageFix"/>
<feBlend mode="normal" in="SourceGraphic" in2="BackgroundImageFix" result="shape"/>
<feGaussianBlur stdDeviation="5" result="effect1_foregroundBlur_1461_1371"/>
</filter>
<filter id="filter1_f_1461_1371" x="952.765" y="503.623" width="572.764" height="605.15" filterUnits="userSpaceOnUse" color-interpolation-filters="sRGB">
<feFlood flood-opacity="0" result="BackgroundImageFix"/>
<feBlend mode="normal" in="SourceGraphic" in2="BackgroundImageFix" result="shape"/>
<feGaussianBlur stdDeviation="5" result="effect1_foregroundBlur_1461_1371"/>
</filter>
<filter id="filter2_f_1461_1371" x="658.765" y="-285.377" width="572.764" height="605.15" filterUnits="userSpaceOnUse" color-interpolation-filters="sRGB">
<feFlood flood-opacity="0" result="BackgroundImageFix"/>
<feBlend mode="normal" in="SourceGraphic" in2="BackgroundImageFix" result="shape"/>
<feGaussianBlur stdDeviation="5" result="effect1_foregroundBlur_1461_1371"/>
</filter>
<linearGradient id="paint0_linear_1461_1371" x1="-134.627" y1="354.842" x2="261.012" y2="47.8116" gradientUnits="userSpaceOnUse">
<stop stop-color="#FF7A00"/>
<stop offset="0.499256" stop-color="#F9AA62" stop-opacity="0.45"/>
<stop offset="1" stop-color="#60FF27"/>
</linearGradient>
<linearGradient id="paint1_linear_1461_1371" x1="1101.64" y1="637.556" x2="1429.56" y2="1016.06" gradientUnits="userSpaceOnUse">
<stop stop-color="#FF7A00"/>
<stop offset="0.499256" stop-color="#F9AA62" stop-opacity="0.45"/>
<stop offset="1" stop-color="#60FF27"/>
</linearGradient>
<linearGradient id="paint2_linear_1461_1371" x1="807.64" y1="-151.444" x2="1135.56" y2="227.064" gradientUnits="userSpaceOnUse">
<stop stop-color="#FF7A00"/>
<stop offset="0.499256" stop-color="#F9AA62" stop-opacity="0.45"/>
<stop offset="1" stop-color="#60FF27"/>
</linearGradient>
<clipPath id="clip0_1461_1371">
<rect width="1440" height="1024" fill="white"/>
</clipPath>
</defs>
</svg>
