<svg width="18" height="22" viewBox="0 0 18 22" fill="none" xmlns="http://www.w3.org/2000/svg">
<path d="M9.06302 20.2483C9.47102 21.4207 11.0214 21.9607 11.979 20.9563C12.1758 20.7523 12.3702 20.5303 12.5022 20.3335C12.8862 19.7575 13.0482 18.9979 13.107 18.2575C13.167 17.5039 13.1262 16.6951 13.0494 15.9631C12.9807 15.326 12.8842 14.6922 12.7602 14.0635L12.7482 14.0011H13.8078C14.3352 14.0011 14.8562 13.8854 15.3339 13.6619C15.8115 13.4384 16.2343 13.1127 16.5722 12.7078C16.9102 12.3029 17.155 11.8287 17.2894 11.3188C17.4239 10.8088 17.4446 10.2755 17.3502 9.75667L16.5294 5.24227C16.3955 4.5059 16.1099 3.80541 15.6909 3.18527C15.2719 2.56512 14.7285 2.03885 14.0952 1.63986C13.462 1.24087 12.7527 0.977879 12.0125 0.867567C11.2722 0.757256 10.5171 0.802037 9.79502 0.999069L3.07502 2.83147C2.53782 2.97842 2.05214 3.272 1.67234 3.67934C1.29255 4.08669 1.03364 4.59171 0.924618 5.13787L0.501018 7.25587C0.167418 8.92267 1.44182 10.3255 2.79662 10.8619C3.18422 11.0143 3.53342 11.2087 3.80462 11.4499C5.85302 13.2655 6.59462 14.7175 7.86662 17.2687C8.29142 18.1207 8.72822 19.2799 9.06422 20.2471L9.06302 20.2483ZM11.421 13.5463V13.5487L11.4234 13.5571L11.4318 13.5943C11.4871 13.8264 11.5375 14.0596 11.583 14.2939C11.6742 14.7619 11.7834 15.3979 11.8554 16.0891C11.9286 16.7815 11.9634 17.5099 11.9106 18.1627C11.8578 18.8287 11.7186 19.3447 11.5026 19.6675C11.4318 19.7755 11.2974 19.9339 11.1114 20.1271C10.8726 20.3779 10.3578 20.3191 10.197 19.8547C9.85742 18.8779 9.40022 17.6587 8.93942 16.7335C7.65902 14.1655 6.83222 12.5323 4.60022 10.5523C4.19591 10.2066 3.73466 9.93376 3.23702 9.74587C2.18102 9.32827 1.50062 8.36707 1.67702 7.49107L2.09942 5.37307C2.16505 5.04515 2.32073 4.74201 2.54901 4.49762C2.77729 4.25323 3.06913 4.07727 3.39182 3.98947L10.1118 2.15707C10.6733 2.00399 11.2605 1.96928 11.8361 2.05515C12.4118 2.14101 12.9633 2.34557 13.4557 2.65585C13.9481 2.96613 14.3706 3.37536 14.6964 3.85758C15.0223 4.3398 15.2444 4.88448 15.3486 5.45707L16.1694 9.97147C16.2324 10.3174 16.2185 10.6729 16.1289 11.0129C16.0393 11.3528 15.876 11.669 15.6508 11.9389C15.4255 12.2088 15.1436 12.426 14.8252 12.5749C14.5067 12.7239 14.1594 12.8011 13.8078 12.8011H12.0018C11.9108 12.8013 11.821 12.8222 11.7392 12.8622C11.6575 12.9023 11.5859 12.9604 11.5299 13.0322C11.474 13.104 11.4351 13.1876 11.4162 13.2767C11.3973 13.3658 11.399 13.4579 11.421 13.5463Z" fill="#1F1F1F"/>
</svg>
