<svg width="19" height="16" viewBox="0 0 19 16" fill="none" xmlns="http://www.w3.org/2000/svg">
<path d="M6.25672 11.7543L9.25672 14.7543M9.25672 14.7543L12.2567 11.7543M9.25672 14.7543V8.00434M15.9167 12.5718C16.5688 12.1133 17.0577 11.459 17.3127 10.7037C17.5676 9.94845 17.5753 9.13161 17.3345 8.37171C17.0938 7.61182 16.6171 6.94841 15.9738 6.47777C15.3304 6.00712 14.5538 5.75372 13.7567 5.75434H12.8117C12.5862 4.87525 12.1641 4.05878 11.5773 3.3664C10.9905 2.67403 10.2543 2.12379 9.42413 1.75711C8.59393 1.39043 7.69136 1.21686 6.78437 1.24948C5.87738 1.2821 4.98961 1.52005 4.18789 1.94541C3.38617 2.37078 2.69139 2.97248 2.15587 3.70522C1.62034 4.43795 1.25801 5.28263 1.09617 6.17566C0.934327 7.06868 0.977182 7.98679 1.22151 8.86086C1.46584 9.73493 1.90527 10.5422 2.50672 11.2218" stroke="#1F1F1F" stroke-width="2" stroke-linecap="round" stroke-linejoin="round"/>
</svg>
