<svg width="188" height="188" viewBox="0 0 188 188" fill="none" xmlns="http://www.w3.org/2000/svg">
<g clip-path="url(#clip0_1948_2654)">
<path d="M110.815 93.91L133.881 73.87V113.721L110.815 93.91ZM81.0925 97.3037L89.1925 104.335C90.4638 105.415 92.1213 106.068 93.9325 106.068H93.9962H93.9925H94.045C95.86 106.068 97.5175 105.411 98.8038 104.324L98.7925 104.331L106.892 97.3L131.515 118.446H56.4813L81.0925 97.3037ZM56.4475 69.1187H131.56L95.4813 100.454C95.0756 100.775 94.5735 100.949 94.0563 100.949H94.0038H94.0075H93.955C93.436 100.949 92.9321 100.774 92.5263 100.45L92.53 100.454L56.4475 69.1187ZM54.1188 73.8663L77.1812 93.9063L54.1188 113.706V73.8663ZM135.119 64.7125C134.219 64.2625 133.161 64 132.04 64H55.9712C54.8844 64.0003 53.8124 64.2532 52.84 64.7388L52.8812 64.72C51.7172 65.2942 50.7368 66.1824 50.051 67.2844C49.3651 68.3864 49.0011 69.6583 49 70.9563V116.601C49.002 118.449 49.7367 120.22 51.0429 121.526C52.3492 122.832 54.1202 123.567 55.9675 123.569H132.029C133.876 123.567 135.647 122.832 136.953 121.526C138.26 120.22 138.994 118.449 138.996 116.601V70.9563C138.996 68.23 137.425 65.8675 135.137 64.7313L135.096 64.7125H135.119Z" fill="#55ACEE" fill-opacity="0.7"/>
</g>
<rect x="2" y="2" width="184" height="184" rx="92" stroke="#55ACEE" stroke-opacity="0.7" stroke-width="4"/>
<defs>
<clipPath id="clip0_1948_2654">
<rect width="90" height="90" fill="white" transform="translate(49 49)"/>
</clipPath>
</defs>
</svg>
