<svg width="227" height="226" viewBox="0 0 227 226" fill="none" xmlns="http://www.w3.org/2000/svg">
<mask id="mask0_1575_2387" style="mask-type:alpha" maskUnits="userSpaceOnUse" x="0" y="0" width="227" height="226">
<ellipse cx="113.129" cy="113" rx="113.129" ry="113" fill="#F0F0F0"/>
</mask>
<g mask="url(#mask0_1575_2387)">
<path d="M115.807 186.762C158.557 186.762 193.213 184.738 193.213 182.242C193.213 179.746 158.557 177.723 115.807 177.723C73.0563 177.723 38.4004 179.746 38.4004 182.242C38.4004 184.738 73.0563 186.762 115.807 186.762Z" fill="#F5F5F5"/>
<path d="M146.336 178.781H141.733V40.0697C141.733 39.3231 146.336 39.3231 146.336 40.0697V178.781Z" fill="#263238"/>
<path d="M146.336 92.161L141.733 93.0872V86.7195H146.336V92.161Z" fill="black"/>
<path d="M178.194 44.7237L113.602 39.9236C110.963 39.7276 108.665 41.7076 108.469 44.3462L105.774 80.6197C105.578 83.2583 107.558 85.5562 110.196 85.7523L174.789 90.5524C177.427 90.7485 179.725 88.7684 179.921 86.1299L182.617 49.8563C182.813 47.2177 180.833 44.9198 178.194 44.7237Z" fill="white"/>
<path d="M175.144 91.1748C175.013 91.1748 174.877 91.1748 174.745 91.1748L110.15 86.384C108.727 86.2738 107.405 85.6048 106.473 84.5232C105.541 83.4417 105.074 82.0353 105.176 80.6112L107.875 44.3374C107.984 42.9133 108.652 41.5902 109.734 40.6574C110.816 39.7246 112.223 39.2578 113.647 39.3591L178.242 44.1498C179.666 44.2601 180.988 44.929 181.92 46.0106C182.852 47.0922 183.318 48.4985 183.217 49.9226L180.518 86.1964C180.414 87.5511 179.804 88.817 178.809 89.7419C177.814 90.6667 176.507 91.1826 175.148 91.1867L175.144 91.1748ZM113.24 40.5168C112.181 40.521 111.163 40.9246 110.389 41.647C109.615 42.3694 109.142 43.3573 109.064 44.4133L106.365 80.6871C106.288 81.7902 106.65 82.8791 107.371 83.7172C108.093 84.5552 109.116 85.0746 110.218 85.1624L174.813 89.9531C175.921 90.0324 177.015 89.67 177.856 88.9452C178.698 88.2204 179.218 87.192 179.304 86.0846L182.003 49.8108C182.084 48.7025 181.723 47.6072 180.998 46.7652C180.272 45.9232 179.243 45.4032 178.135 45.3195L113.54 40.5288C113.452 40.5208 113.344 40.5168 113.24 40.5168Z" fill="#00080D"/>
<path d="M130.754 59.2045L122.642 58.5977L122.913 54.9368L131.744 45.8943L135.628 46.1817L134.894 56.0347L136.89 56.1864L136.635 59.6397L134.638 59.492L134.415 62.4902L130.534 62.1987L130.754 59.2045ZM131.013 55.7472L131.377 50.701L126.726 55.4278L131.013 55.7472Z" fill="#00080D"/>
<path d="M138.419 54.6614C138.648 51.6113 139.361 49.526 140.559 48.4055C141.756 47.285 143.473 46.7993 145.709 46.9484C146.614 46.9891 147.506 47.192 148.34 47.5472C148.952 47.8231 149.501 48.2196 149.957 48.7129C150.337 49.1377 150.652 49.6167 150.891 50.1342C151.107 50.6717 151.257 51.2334 151.338 51.807C151.55 53.0527 151.608 54.3198 151.51 55.5797C151.289 58.4914 150.638 60.5833 149.557 61.8555C148.477 63.1277 146.731 63.676 144.319 63.5003C143.191 63.4637 142.087 63.1599 141.098 62.614C140.292 62.1147 139.634 61.409 139.193 60.57C138.802 59.7907 138.558 58.9464 138.471 58.0788C138.336 56.9445 138.318 55.7993 138.419 54.6614V54.6614ZM142.834 54.9968C142.683 57.0408 142.76 58.4501 143.066 59.2246C143.369 59.9951 143.864 60.4223 144.551 60.4622C144.987 60.4929 145.418 60.3493 145.749 60.063C146.164 59.6717 146.457 59.1682 146.591 58.6138C146.859 57.5683 147.018 56.498 147.066 55.42C147.223 53.2908 147.149 51.8469 146.843 51.0884C146.739 50.7528 146.537 50.4565 146.262 50.2384C145.987 50.0203 145.652 49.8907 145.302 49.8667C144.951 49.8337 144.6 49.913 144.297 50.0931C143.995 50.2733 143.758 50.5449 143.621 50.8688C143.248 51.6034 142.986 52.9794 142.834 54.9968Z" fill="#00080D"/>
<path d="M157.926 52.797L153.77 51.731C154.142 50.5145 154.94 49.4727 156.018 48.7967C157.066 48.1526 158.502 47.8998 160.325 48.0382C162.417 48.1952 163.901 48.6982 164.777 49.5473C165.197 49.9286 165.524 50.4019 165.732 50.9302C165.94 51.4585 166.023 52.0277 165.974 52.5934C165.931 53.2639 165.683 53.905 165.264 54.4298C164.772 55.0192 164.147 55.482 163.439 55.7792C163.929 55.924 164.394 56.1406 164.821 56.422C165.318 56.7765 165.713 57.2557 165.966 57.8113C166.231 58.4257 166.335 59.0978 166.266 59.7635C166.181 60.7035 165.852 61.605 165.312 62.3784C164.759 63.1972 163.973 63.8314 163.056 64.1989C161.881 64.6211 160.624 64.7673 159.383 64.6261C158.208 64.5817 157.05 64.3205 155.97 63.8556C155.185 63.4767 154.509 62.9054 154.005 62.1948C153.478 61.4163 153.114 60.539 152.936 59.6158L157.431 59.3563C157.459 60.0513 157.695 60.7219 158.11 61.2805C158.49 61.6672 159.005 61.8915 159.547 61.9063C160.089 61.9212 160.615 61.7256 161.016 61.3604C161.469 60.9053 161.729 60.2934 161.742 59.6517C161.833 59.0263 161.672 58.3906 161.295 57.8831C161.109 57.6612 160.878 57.4816 160.617 57.3563C160.356 57.231 160.072 57.1629 159.782 57.1565C159.291 57.1426 158.799 57.1936 158.321 57.3082L158.788 54.1424C158.977 54.1884 159.169 54.2218 159.363 54.2422C159.631 54.2699 159.901 54.2443 160.159 54.1668C160.416 54.0894 160.656 53.9617 160.864 53.791C161.063 53.6392 161.226 53.4467 161.344 53.2263C161.462 53.0059 161.531 52.7629 161.547 52.5135C161.572 52.3008 161.555 52.0851 161.495 51.8794C161.435 51.6736 161.335 51.482 161.2 51.3158C161.05 51.1554 160.868 51.027 160.667 50.9385C160.466 50.85 160.249 50.8031 160.03 50.8008C159.795 50.7765 159.558 50.7992 159.333 50.8678C159.107 50.9364 158.898 51.0493 158.716 51.2001C158.291 51.6355 158.014 52.1945 157.926 52.797V52.797Z" fill="#00080D"/>
<path d="M124.618 65.4963L130.814 65.9714L130.695 67.5683L126.818 67.2809L126.726 68.4786L130.319 68.75L130.204 70.2751L126.611 70.0076L126.503 71.4808L130.495 71.7802L130.371 73.4729L124.063 73.0018L124.618 65.4963Z" fill="#00080D"/>
<path d="M131.645 73.557L132.203 66.0754L136.056 66.3589C136.61 66.3811 137.157 66.4847 137.681 66.6663C138.044 66.8131 138.348 67.0773 138.543 67.4168C138.729 67.7736 138.818 68.1725 138.803 68.5743C138.787 68.9761 138.668 69.3669 138.455 69.7084C138.251 69.9987 137.976 70.2323 137.657 70.3871C137.393 70.509 137.111 70.5885 136.823 70.6226C137.031 70.7005 137.227 70.8081 137.405 70.942C137.535 71.0686 137.649 71.2107 137.745 71.3652C137.857 71.5181 137.954 71.6811 138.036 71.8523L138.994 74.1039L136.379 73.9083L135.313 71.5129C135.232 71.2867 135.104 71.0801 134.938 70.9061C134.782 70.7781 134.589 70.7027 134.387 70.6905H134.184L133.956 73.7286L131.645 73.557ZM134.299 69.2772L135.274 69.3491C135.481 69.3505 135.688 69.3318 135.892 69.2932C136.046 69.2761 136.188 69.2038 136.292 69.0896C136.395 68.9704 136.457 68.8203 136.467 68.6624C136.482 68.5593 136.473 68.4541 136.44 68.3551C136.407 68.2561 136.353 68.1659 136.28 68.0915C136.033 67.9161 135.736 67.8251 135.433 67.832L134.415 67.7562L134.299 69.2772Z" fill="#00080D"/>
<path d="M139.761 74.1478L140.316 66.6663L144.172 66.9537C144.724 66.9749 145.271 67.0771 145.793 67.2571C146.157 67.4039 146.462 67.6681 146.659 68.0077C146.806 68.2579 146.9 68.5356 146.935 68.8235C146.971 69.1115 146.947 69.4036 146.865 69.6819C146.783 69.9603 146.645 70.2188 146.459 70.4417C146.273 70.6646 146.044 70.8471 145.785 70.9779C145.521 71.0994 145.239 71.1788 144.951 71.2135C145.159 71.2923 145.355 71.3998 145.534 71.5328C145.66 71.6623 145.774 71.804 145.873 71.956C145.986 72.1077 146.082 72.271 146.16 72.4431L147.118 74.6947L144.508 74.5031L143.442 72.1077C143.36 71.8818 143.232 71.6752 143.066 71.5009C142.909 71.3717 142.715 71.2962 142.511 71.2853H142.308L142.084 74.3234L139.761 74.1478ZM142.416 69.8721L143.39 69.9439C143.597 69.943 143.804 69.9243 144.009 69.888C144.163 69.8729 144.306 69.7986 144.408 69.6804C144.514 69.5642 144.578 69.4148 144.587 69.2572C144.601 69.1535 144.591 69.048 144.559 68.9484C144.527 68.8489 144.472 68.758 144.4 68.6824C144.152 68.5062 143.853 68.4164 143.549 68.4269L142.555 68.367L142.416 69.8721Z" fill="#00080D"/>
<path d="M147.685 70.9817C147.671 70.4568 147.774 69.9355 147.987 69.4552C148.199 68.9749 148.515 68.5476 148.912 68.204C149.309 67.8604 149.777 67.6091 150.283 67.4681C150.789 67.3271 151.319 67.3 151.837 67.3887C153.082 67.4792 154.014 67.885 154.631 68.6063C154.953 69.0085 155.189 69.4716 155.326 69.9678C155.463 70.4639 155.499 70.9826 155.43 71.4927C155.403 72.2365 155.197 72.9626 154.827 73.6086C154.497 74.134 154.019 74.5505 153.454 74.8063C152.79 75.1025 152.061 75.2222 151.338 75.1536C150.615 75.1258 149.908 74.9347 149.27 74.5947C148.725 74.2713 148.289 73.7914 148.02 73.2174C147.709 72.516 147.593 71.7435 147.685 70.9817ZM149.996 71.1614C149.903 71.7329 150.009 72.3192 150.296 72.8222C150.432 72.9889 150.601 73.1264 150.792 73.2261C150.983 73.3259 151.192 73.386 151.407 73.4028C151.622 73.4196 151.838 73.3927 152.042 73.3238C152.247 73.2549 152.435 73.1454 152.595 73.0018C152.891 72.6984 153.07 72.1315 153.13 71.2931C153.222 70.7407 153.111 70.1738 152.819 69.6962C152.687 69.524 152.518 69.3834 152.324 69.2846C152.131 69.1859 151.918 69.1314 151.701 69.1253C151.49 69.0993 151.275 69.1217 151.074 69.1908C150.873 69.26 150.69 69.3741 150.539 69.5245C150.171 69.9888 149.978 70.5687 149.996 71.1614V71.1614Z" fill="#00080D"/>
<path d="M156.437 75.3893L156.991 67.9038L160.844 68.1913C161.398 68.2135 161.945 68.317 162.469 68.4987C162.826 68.6461 163.124 68.9089 163.315 69.2452C163.529 69.6205 163.62 70.0533 163.575 70.4828C163.556 70.8602 163.436 71.2256 163.227 71.5408C163.023 71.8302 162.748 72.0625 162.429 72.2155C162.165 72.3378 161.883 72.4186 161.595 72.455C161.985 72.5742 162.315 72.8385 162.517 73.1936C162.628 73.3475 162.725 73.512 162.804 73.6846L163.762 75.9363L161.151 75.7406L160.085 73.3453C160.002 73.1199 159.875 72.9135 159.71 72.7385C159.552 72.6109 159.358 72.5356 159.155 72.5229H158.952L158.724 75.561L156.437 75.3893ZM159.087 71.1096L160.062 71.1815C160.27 71.1829 160.479 71.1642 160.684 71.1256C160.839 71.1105 160.982 71.0361 161.084 70.918C161.191 70.8021 161.254 70.6525 161.263 70.4948C161.276 70.3917 161.266 70.287 161.233 70.1883C161.201 70.0896 161.147 69.9993 161.076 69.9239C160.828 69.746 160.53 69.6548 160.225 69.6644L159.211 69.5885L159.087 71.1096Z" fill="#00080D"/>
<path d="M116.905 81.278L117.412 74.4512L122.019 74.7945L121.959 75.593L118.255 75.3175L118.099 77.4294L121.293 77.6689L121.233 78.4674L118.039 78.2279L117.808 81.3299L116.905 81.278Z" fill="#263238"/>
<path d="M122.658 78.3475C122.674 77.3706 123.073 76.4389 123.768 75.7525C124.093 75.4551 124.477 75.2301 124.896 75.0925C125.314 74.9548 125.757 74.9077 126.195 74.9541C126.795 74.9904 127.374 75.1906 127.868 75.533C128.347 75.8671 128.716 76.3352 128.93 76.8784C129.16 77.4712 129.251 78.1093 129.193 78.7427C129.156 79.3868 128.964 80.0125 128.635 80.5672C128.336 81.0745 127.889 81.4775 127.353 81.721C126.825 81.9639 126.244 82.067 125.664 82.0204C125.057 81.9844 124.472 81.7782 123.976 81.4256C123.498 81.0865 123.132 80.6144 122.922 80.0682C122.705 79.5219 122.615 78.9336 122.658 78.3475V78.3475ZM123.588 78.4313C123.495 79.1389 123.682 79.8548 124.107 80.4275C124.307 80.6687 124.553 80.867 124.831 81.0106C125.109 81.1541 125.414 81.2398 125.726 81.2625C126.038 81.2853 126.352 81.2446 126.648 81.143C126.944 81.0413 127.216 80.8808 127.449 80.671C127.96 80.1319 128.246 79.4178 128.247 78.6749C128.297 78.1759 128.238 77.6721 128.076 77.1977C127.933 76.7899 127.672 76.434 127.325 76.1757C126.976 75.9194 126.56 75.7684 126.127 75.7406C125.822 75.7132 125.515 75.7468 125.223 75.8393C124.931 75.9319 124.66 76.0815 124.427 76.2795C123.948 76.7027 123.664 77.4213 123.588 78.4473V78.4313Z" fill="#263238"/>
<path d="M130.115 82.2599L130.626 75.4331L133.652 75.6607C134.124 75.6747 134.589 75.772 135.026 75.9481C135.335 76.0951 135.586 76.3428 135.736 76.6507C135.903 76.9757 135.975 77.3409 135.944 77.7047C135.934 77.9316 135.879 78.1542 135.782 78.3597C135.685 78.5652 135.549 78.7497 135.381 78.9024C134.956 79.2416 134.428 79.4261 133.884 79.4254C134.073 79.5282 134.248 79.6558 134.403 79.8046C134.668 80.0987 134.897 80.423 135.086 80.7708L136.136 82.719L134.998 82.6312L134.199 81.146C133.968 80.7149 133.772 80.3875 133.616 80.156C133.504 79.97 133.361 79.804 133.193 79.6649C133.073 79.573 132.938 79.5015 132.794 79.4533C132.63 79.4157 132.463 79.3917 132.295 79.3815L131.245 79.3056L131.021 82.3357L130.115 82.2599ZM131.313 78.5151L133.253 78.6589C133.58 78.696 133.911 78.6771 134.231 78.603C134.455 78.5456 134.653 78.4149 134.794 78.2317C134.927 78.0588 135.006 77.8505 135.022 77.6329C135.036 77.4828 135.017 77.3315 134.967 77.1894C134.917 77.0473 134.836 76.918 134.73 76.8104C134.427 76.5503 134.04 76.4085 133.64 76.4112L131.481 76.2475L131.313 78.5151Z" fill="#263238"/>
<path d="M136.966 82.7709L137.473 75.9441L140.036 76.1317C140.465 76.1476 140.886 76.2509 141.273 76.4351C141.57 76.5888 141.813 76.8299 141.968 77.1258C142.12 77.4082 142.19 77.7279 142.168 78.048C142.147 78.3374 142.043 78.6145 141.868 78.8465C141.674 79.1062 141.41 79.3044 141.106 79.4174C141.475 79.5429 141.793 79.7854 142.012 80.108C142.212 80.4225 142.302 80.7947 142.268 81.166C142.247 81.4754 142.156 81.776 142 82.0443C141.866 82.2844 141.677 82.4896 141.449 82.6431C141.213 82.7862 140.951 82.8812 140.679 82.9226C140.311 82.9792 139.939 82.9899 139.569 82.9545L136.966 82.7709ZM137.928 82.0323L139.629 82.1601C139.835 82.175 140.041 82.175 140.247 82.1601C140.433 82.1431 140.614 82.0931 140.782 82.0123C140.935 81.9278 141.063 81.8054 141.154 81.657C141.268 81.4711 141.33 81.2585 141.336 81.0405C141.342 80.8226 141.29 80.607 141.186 80.4154C141.068 80.2154 140.887 80.0608 140.671 79.9763C140.352 79.8648 140.018 79.8015 139.681 79.7887L138.104 79.6729L137.928 82.0323ZM138.164 78.8784L139.641 78.9902C139.928 79.0275 140.219 79.0275 140.507 78.9902C140.717 78.9531 140.908 78.8462 141.05 78.6868C141.185 78.5221 141.263 78.3171 141.269 78.1039C141.289 77.8935 141.249 77.6817 141.154 77.4931C141.059 77.3107 140.902 77.1688 140.711 77.0939C140.377 76.9896 140.03 76.9319 139.681 76.9222L138.315 76.8184L138.164 78.8784Z" fill="#263238"/>
<path d="M143.506 83.2582L144.013 76.4314L144.919 76.4993L144.408 83.3261L143.506 83.2582Z" fill="#263238"/>
<path d="M146.001 83.4418L146.512 76.615L148.863 76.7907C149.268 76.8114 149.669 76.8743 150.061 76.9783C150.424 77.0846 150.756 77.2778 151.027 77.5412C151.37 77.8817 151.619 78.3053 151.75 78.7708C151.898 79.3043 151.947 79.8605 151.894 80.4116C151.868 80.8784 151.773 81.3387 151.61 81.777C151.485 82.1243 151.303 82.4482 151.071 82.7351C150.885 82.9654 150.66 83.1601 150.404 83.31C150.142 83.4531 149.857 83.549 149.562 83.5935C149.196 83.6474 148.825 83.6582 148.456 83.6254L146.001 83.4418ZM146.967 82.7072L148.424 82.815C148.781 82.852 149.142 82.8358 149.494 82.7671C149.728 82.7156 149.947 82.6104 150.133 82.4597C150.382 82.2297 150.574 81.9456 150.696 81.6293C150.857 81.2129 150.952 80.7737 150.975 80.3278C151.05 79.7595 150.97 79.1818 150.744 78.655C150.577 78.2961 150.297 78.0026 149.945 77.8207C149.574 77.6836 149.183 77.6081 148.788 77.5971L147.354 77.4893L146.967 82.7072Z" fill="#263238"/>
<path d="M152.892 83.9567L153.399 77.1299L155.75 77.3016C156.155 77.322 156.557 77.3863 156.948 77.4932C157.31 77.5989 157.64 77.7923 157.91 78.0561C158.253 78.3948 158.502 78.8172 158.632 79.2817C158.78 79.8153 158.83 80.3712 158.78 80.9225C158.751 81.3888 158.655 81.8485 158.497 82.2879C158.372 82.6371 158.188 82.9624 157.954 83.25C157.768 83.4791 157.542 83.6726 157.287 83.8209C157.026 83.9639 156.743 84.0599 156.449 84.1044C156.083 84.1577 155.712 84.1697 155.343 84.1403L152.892 83.9567ZM153.854 83.2181L155.311 83.3259C155.668 83.3629 156.029 83.3467 156.381 83.278C156.615 83.2274 156.834 83.1221 157.02 82.9706C157.269 82.7425 157.462 82.4596 157.583 82.1442C157.744 81.7278 157.838 81.2886 157.862 80.8427C157.936 80.2744 157.856 79.6966 157.63 79.1699C157.466 78.8099 157.184 78.516 156.832 78.3356C156.46 78.1949 156.068 78.118 155.67 78.108L154.237 78.0002L153.854 83.2181Z" fill="#263238"/>
<path d="M159.798 84.4677L160.305 77.6409L165.239 78.0082L165.179 78.8066L161.147 78.5072L160.992 80.5991L164.768 80.8786L164.708 81.6771L160.932 81.3936L160.76 83.7171L164.952 84.0325L164.892 84.831L159.798 84.4677Z" fill="#263238"/>
<path d="M166.13 84.9388L166.637 78.1121L167.563 78.1799L170.757 83.809L171.156 78.4474L172.022 78.5113L171.511 85.3421L170.585 85.2702L167.391 79.6411L166.992 85.0027L166.13 84.9388Z" fill="#263238"/>
<path d="M83.837 81.8966L83.9687 82.6951L84.1204 83.5295C84.2322 84.0844 84.336 84.6433 84.4638 85.1942C84.7073 86.3041 84.9868 87.398 85.3061 88.4559C85.4658 88.9829 85.6415 89.5059 85.8291 90.0089C86.0168 90.5119 86.2283 91.015 86.424 91.4861C86.8122 92.3702 87.304 93.2051 87.8891 93.9732L86.7952 93.2546C87.0713 93.4168 87.3903 93.4906 87.7095 93.4662C88.2308 93.4175 88.7379 93.2684 89.2026 93.0271C89.805 92.7266 90.3783 92.3711 90.9153 91.9651C91.2027 91.7535 91.4942 91.53 91.7736 91.2904C91.9173 91.1747 92.0571 91.0549 92.1728 90.9351C92.2886 90.8154 92.4643 90.6796 92.5721 90.5958L92.7837 90.4241C93.0451 90.2147 93.3696 90.0997 93.7045 90.098C94.0395 90.0962 94.3652 90.2077 94.6288 90.4144C94.8923 90.6211 95.0783 90.9109 95.1565 91.2366C95.2346 91.5623 95.2003 91.9049 95.0592 92.2087C94.9395 92.4602 94.8596 92.6518 94.7518 92.8594C94.6441 93.067 94.5403 93.2586 94.4285 93.4582C94.1969 93.8575 93.9534 94.2367 93.6819 94.612C93.1235 95.3947 92.472 96.1065 91.7417 96.7319C91.3395 97.0728 90.908 97.3774 90.4522 97.6421C89.3986 98.2732 88.1987 98.6185 86.9709 98.6442C86.295 98.648 85.6222 98.5511 84.9748 98.3568C84.6188 98.2551 84.2955 98.0624 84.0366 97.7978L83.8849 97.6421C82.8546 96.5729 81.981 95.3633 81.2899 94.0491C80.6545 92.8521 80.1152 91.6066 79.677 90.3243C79.2361 89.0823 78.8669 87.816 78.5712 86.5316C78.4274 85.8969 78.2877 85.2581 78.1719 84.6154C78.116 84.292 78.0602 83.9726 78.0122 83.6452C77.9643 83.3179 77.9244 83.0105 77.8845 82.6152C77.8117 81.8477 78.0377 81.0817 78.5155 80.4766C78.9934 79.8716 79.6862 79.4741 80.4497 79.3671C81.2132 79.2601 81.9886 79.4517 82.6144 79.9021C83.2401 80.3525 83.6681 81.0269 83.809 81.7848L83.837 81.8966Z" fill="#263238"/>
<path d="M92.5201 90.3562C91.6778 90.6237 90.6877 91.5978 90.9991 92.7516C91.3105 93.9053 94.7239 94.7477 94.8357 92.6957C93.8496 90.7235 92.5201 90.3562 92.5201 90.3562Z" fill="white"/>
<path d="M92.0692 91.4701L92.4325 90.9151L96.1653 89.925C96.1653 89.925 96.7082 92.3005 94.0135 93.2027C93.8221 93.2497 93.6199 93.2196 93.4505 93.1189L92.3766 92.56C92.2822 92.5113 92.1989 92.4437 92.1317 92.3615C92.0645 92.2792 92.0149 92.184 91.9861 92.0818C91.9573 91.9796 91.9498 91.8725 91.9641 91.7673C91.9784 91.6621 92.0142 91.5609 92.0692 91.4701V91.4701Z" fill="#B55B52"/>
<path d="M63.9396 77.8485C68.7064 76.9821 75.1659 76.8184 79.8488 77.6209C80.9974 77.816 82.0307 78.4358 82.7436 79.3572C83.4565 80.2787 83.797 81.4345 83.6974 82.5953C83.4299 85.6733 83.0905 88.392 82.8989 90.5239C83.1105 95.9374 82.6514 104.984 82.6514 106.892L62.8138 107.172C61.9315 104.7 62.2229 93.566 60.6739 82.3597C60.5233 81.3305 60.7803 80.2832 61.3902 79.4406C62.0002 78.5981 62.9149 78.0268 63.9396 77.8485V77.8485Z" fill="#263238"/>
<path opacity="0.2" d="M74.1238 106.9L73.7246 106.848C74.8504 97.9654 73.7246 83.0822 73.7246 82.9345L74.1238 82.9026C74.1358 83.0543 75.2576 97.9774 74.1238 106.9Z" fill="black"/>
<path d="M75.9245 78.0761C75.126 77.8645 75.8486 77.0581 75.8486 77.0581C77.8543 77.0627 79.8566 77.2242 81.837 77.5412C82.2123 77.8286 81.8051 78.1999 81.8051 78.1999C81.8051 78.1999 78.248 78.7069 75.9245 78.0761Z" fill="#00080D"/>
<path opacity="0.2" d="M74.8025 76.9382C74.8025 76.9382 76.0002 79.3016 74.4033 81.4495C75.2577 81.5027 76.0833 81.7779 76.7987 82.2479C76.7987 82.2479 77.3616 80.2238 75.7767 77.1418C75.605 76.8504 74.8025 76.9382 74.8025 76.9382Z" fill="black"/>
<path d="M76.06 78.084C76.3674 79.5252 73.6886 82.2479 73.6886 82.2479C73.6886 82.2479 68.9537 79.7647 68.6543 78.3395L76.06 78.084Z" fill="#00080D"/>
<path opacity="0.2" d="M63.652 84.8828C64.171 85.8849 63.5402 90.0728 61.6558 92.1607C61.5321 90.3323 61.3764 88.42 61.1768 86.4757L63.652 84.8828Z" fill="black"/>
<path d="M69.1613 70.6904L74.5269 73.2614C73.96 74.7825 73.6885 76.3634 75.2774 77.118C75.4984 77.2247 75.6951 77.3758 75.8552 77.5618C76.0153 77.7478 76.1355 77.9647 76.2081 78.1992C76.2808 78.4336 76.3044 78.6804 76.2775 78.9244C76.2506 79.1683 76.1739 79.4042 76.0519 79.6171C75.8012 80.054 75.4483 80.4235 75.0235 80.694C74.5986 80.9644 74.1145 81.1278 73.6127 81.1701C71.7483 81.3578 69.9118 80.1601 68.8419 79.0383C68.4027 78.5752 68.8419 78.0322 68.8898 77.3855C69.0974 75.1019 69.4487 72.7105 69.1613 70.6904Z" fill="#B55B52"/>
<path opacity="0.2" d="M71.6323 71.2014L74.5267 73.2614C74.3598 73.6838 74.2328 74.1209 74.1474 74.5669C72.9497 74.9661 71.0734 73.9202 71.0414 72.8822C71.0254 72.3592 71.4925 71.4489 71.6323 71.2014Z" fill="black"/>
<path d="M75.3933 62.0152C76.4193 62.8496 77.5891 66.5784 76.084 68.0835C73.8643 65.5045 73.6128 61.628 75.3933 62.0152Z" fill="#263238"/>
<path d="M67.676 66.3309C68.0753 69.5247 68.1551 71.4011 69.8798 72.9221C72.4708 75.2097 76.3233 73.4491 76.8782 70.2034C77.3773 67.277 76.6307 62.5662 73.4169 61.5242C72.7051 61.2934 71.9463 61.2472 71.2117 61.3899C70.4772 61.5325 69.7908 61.8594 69.2171 62.3397C68.6433 62.8201 68.201 63.4383 67.9314 64.1364C67.6619 64.8345 67.574 65.5896 67.676 66.3309V66.3309Z" fill="#B55B52"/>
<path d="M67.7756 69.0774C69.2847 69.1892 69.8076 65.5403 68.8695 63.4882C69.5242 63.7597 71.3886 63.4882 71.9076 62.6379C74.9178 63.4922 76.0436 63.5082 76.4268 62.2666C76.8101 61.025 72.0793 59.9311 69.3406 60.518C66.6019 61.1049 67.4083 63.089 67.4083 63.089C67.4083 63.089 62.7693 64.5741 67.7756 69.0774Z" fill="#263238"/>
<path d="M66.674 69.321C67.0766 69.9688 67.7101 70.4397 68.4466 70.6384C69.3768 70.862 69.6961 69.9278 69.3209 68.9896C68.9775 68.1472 68.0873 66.9935 67.209 67.2131C66.3307 67.4326 66.151 68.4946 66.674 69.321Z" fill="#B55B52"/>
<path d="M71.9321 66.8657C71.9321 67.1252 72.0998 67.3248 72.2714 67.3128C72.4431 67.3008 72.5669 67.0813 72.5469 66.8178C72.5269 66.5543 72.3792 66.3587 72.2076 66.3706C72.0359 66.3826 71.9161 66.6062 71.9321 66.8657Z" fill="#263238"/>
<path d="M75.4613 66.5783C75.4813 66.8378 75.633 67.0414 75.8007 67.0254C75.9684 67.0095 76.0961 66.7939 76.0802 66.5344C76.0642 66.2749 75.9125 66.0713 75.7408 66.0833C75.5691 66.0952 75.4454 66.3188 75.4613 66.5783Z" fill="#263238"/>
<path d="M74.8906 66.8457C75.2534 67.6178 75.7223 68.3354 76.2839 68.9776C76.1153 69.1186 75.9179 69.221 75.7054 69.2776C75.493 69.3341 75.2707 69.3435 75.0543 69.3049L74.8906 66.8457Z" fill="#A02724"/>
<path d="M73.2735 64.8058C73.2923 64.8241 73.3049 64.8478 73.3094 64.8737C73.3179 64.9128 73.3111 64.9537 73.2903 64.9879C73.2695 65.0221 73.2363 65.047 73.1976 65.0573C72.9611 65.1197 72.713 65.1247 72.4742 65.0719C72.2353 65.0192 72.0125 64.9101 71.8243 64.7539C71.81 64.7398 71.7987 64.723 71.791 64.7045C71.7833 64.686 71.7793 64.6662 71.7793 64.6461C71.7793 64.6261 71.7833 64.6063 71.791 64.5878C71.7987 64.5692 71.81 64.5525 71.8243 64.5384C71.8539 64.5103 71.8932 64.4946 71.934 64.4946C71.9749 64.4946 72.0142 64.5103 72.0438 64.5384V64.5384C72.1943 64.6603 72.3715 64.7449 72.5609 64.7851C72.7504 64.8254 72.9467 64.8202 73.1337 64.7699C73.1581 64.763 73.1839 64.7628 73.2084 64.7691C73.233 64.7754 73.2554 64.7881 73.2735 64.8058V64.8058Z" fill="#263238"/>
<path d="M73.9201 65.5721C73.896 65.5599 73.8764 65.5403 73.8642 65.5162C73.8436 65.4818 73.8376 65.4406 73.8473 65.4017C73.857 65.3628 73.8818 65.3294 73.9161 65.3086C74.1233 65.1789 74.3583 65.1 74.6019 65.0785C74.8454 65.057 75.0906 65.0935 75.3174 65.1849C75.3356 65.1934 75.3518 65.2055 75.3653 65.2204C75.3788 65.2353 75.3892 65.2527 75.3959 65.2717C75.4025 65.2906 75.4054 65.3107 75.4043 65.3307C75.4031 65.3508 75.398 65.3704 75.3892 65.3885C75.3704 65.4248 75.3384 65.4524 75.2998 65.4658C75.2611 65.4792 75.2189 65.4772 75.1816 65.4604C75.0018 65.3903 74.808 65.3635 74.6158 65.3822C74.4237 65.4009 74.2387 65.4646 74.0758 65.5681C74.0528 65.5832 74.026 65.5916 73.9985 65.5923C73.971 65.593 73.9438 65.586 73.9201 65.5721V65.5721Z" fill="#263238"/>
<path d="M76.9098 64.111C76.8859 64.1175 76.8609 64.1184 76.8366 64.1135C76.8124 64.1087 76.7896 64.0983 76.77 64.0831C76.6257 63.9554 76.4528 63.8644 76.2658 63.8179C76.0789 63.7713 75.8834 63.7705 75.6961 63.8156C75.6575 63.8273 75.6158 63.8231 75.5802 63.804C75.5446 63.7849 75.5181 63.7525 75.5065 63.7138C75.4948 63.6752 75.499 63.6335 75.5181 63.5979C75.5372 63.5623 75.5696 63.5358 75.6083 63.5242C75.8434 63.4626 76.0901 63.4595 76.3267 63.5152C76.5633 63.5708 76.7827 63.6836 76.9657 63.8436C76.9935 63.8726 77.009 63.9112 77.009 63.9514C77.009 63.9915 76.9935 64.0302 76.9657 64.0591C76.9514 64.0806 76.9322 64.0984 76.9098 64.111V64.111Z" fill="#263238"/>
<path d="M94.313 103.898C94.2286 103.743 94.0862 103.628 93.9171 103.578C93.748 103.528 93.5659 103.547 93.4107 103.631L88.5282 106.27L86.2207 101.998C86.1334 101.849 85.9918 101.74 85.8257 101.693C85.6596 101.647 85.4819 101.666 85.33 101.748C85.178 101.83 85.0636 101.967 85.0109 102.131C84.9581 102.295 84.971 102.474 85.0469 102.629L87.3545 106.9L70.527 115.995C70.3723 116.079 70.257 116.221 70.2062 116.39C70.1554 116.559 70.1731 116.741 70.2556 116.897V116.897C70.3401 117.052 70.4821 117.167 70.651 117.218C70.8198 117.269 71.0019 117.251 71.1578 117.168L94.0455 104.792C94.1983 104.708 94.3118 104.567 94.3618 104.4C94.4119 104.233 94.3943 104.053 94.313 103.898V103.898Z" fill="#263238"/>
<path d="M93.9533 126.327C85.9687 120.338 61.3883 117.943 69.8839 106.996L82.6591 106.876C82.6591 106.876 100.624 116.098 101.602 125.744C102.605 135.776 104.397 151.574 104.397 151.574L99.4466 153.33C99.4466 153.33 92.2126 133.96 93.9533 126.327Z" fill="#00080D"/>
<path opacity="0.2" d="M70.3229 112.481C70.0274 113.128 69.756 113.799 69.5244 114.506C71.5206 116.761 75.437 118.498 79.6807 120.095C78.3633 117.795 75.4849 115.24 70.3229 112.481Z" fill="black"/>
<path d="M99.4902 155.083L104.628 153.761C104.95 153.667 105.295 153.684 105.606 153.809C107.395 154.608 108.537 154.376 110.305 154.269C112.421 154.133 111.946 156.408 110.457 156.796C108.002 157.434 108.181 157.295 106.066 157.842L104.612 158.217L103.778 157.71L103.379 158.508L100.684 159.163C100.615 159.182 100.544 159.186 100.473 159.176C100.403 159.166 100.336 159.142 100.275 159.104C100.215 159.067 100.163 159.017 100.123 158.958C100.082 158.9 100.055 158.834 100.041 158.764L99.4902 155.083Z" fill="#263238"/>
<path d="M99.622 155.586C99.6978 155.55 105.459 153.937 105.459 153.937L104.564 149.51L98.1768 151.246L99.622 155.586Z" fill="#263238"/>
<path d="M63.8159 139.757C64.0594 125.213 61.0213 110.406 62.8258 107.156L77.6451 106.948C77.6451 106.948 73.2177 131.197 72.0559 140.883C70.8582 150.959 64.8698 177.156 64.8698 177.156L60.0791 177.232C60.0791 177.232 60.646 150.209 63.8159 139.757Z" fill="#00080D"/>
<path d="M59.9148 178.007L64.3063 177.939C64.6453 177.924 64.9796 178.022 65.2564 178.218C66.8533 179.416 67.021 179.464 68.7696 179.775C70.8696 180.147 69.9274 182.242 68.3904 182.266C65.8513 182.306 66.0589 182.215 63.8951 182.246L61.5436 182.266L61.2003 181.576L60.801 182.266H60.1822C60.1103 182.267 60.039 182.252 59.9729 182.223C59.9068 182.195 59.8472 182.153 59.7979 182.101C59.7485 182.049 59.7104 181.987 59.6858 181.919C59.6613 181.851 59.6509 181.779 59.6553 181.707L59.9148 178.007Z" fill="#263238"/>
<path d="M59.8835 178.53C59.9594 178.53 65.4128 178.781 65.4128 178.781L65.7761 173.799L59.8516 173.967L59.8835 178.53Z" fill="#263238"/>
<path d="M74.6069 76.6548C74.6069 76.6548 75.9803 79.3017 74.4033 81.4456C75.298 81.4888 76.1803 81.672 77.0183 81.9885C77.0183 81.9885 78.1321 79.2937 75.6769 76.8824C75.5052 76.595 74.6069 76.6548 74.6069 76.6548Z" fill="white"/>
<path d="M62.2823 108.689C69.3686 109.112 77.4929 109.24 82.5751 108.689C82.6057 108.684 82.6346 108.672 82.6591 108.653C82.6836 108.634 82.7027 108.609 82.7148 108.581C83.0554 107.72 83.2052 106.795 83.1539 105.87C83.1539 105.726 83.0581 105.619 82.9623 105.623C76.2553 105.882 69.5882 105.866 62.6017 105.623C62.5259 105.623 62.45 105.687 62.4221 105.794C62.184 106.655 62.083 107.549 62.1227 108.441C62.1179 108.494 62.131 108.548 62.16 108.592C62.1889 108.637 62.232 108.671 62.2823 108.689V108.689Z" fill="#263238"/>
<path opacity="0.2" d="M62.2823 108.689C69.3686 109.112 77.4929 109.24 82.5751 108.689C82.6057 108.684 82.6346 108.672 82.6591 108.653C82.6836 108.634 82.7027 108.609 82.7148 108.581C83.0554 107.72 83.2052 106.795 83.1539 105.87C83.1539 105.726 83.0581 105.619 82.9623 105.623C76.2553 105.882 69.5882 105.866 62.6017 105.623C62.5259 105.623 62.45 105.687 62.4221 105.794C62.184 106.655 62.083 107.549 62.1227 108.441C62.1179 108.494 62.131 108.548 62.16 108.592C62.1889 108.637 62.232 108.671 62.2823 108.689V108.689Z" fill="black"/>
<path d="M74.371 109.779C73.8692 109.777 73.3679 109.745 72.8699 109.683L72.5306 109.639V109.3C72.5306 109.212 72.4787 107.148 72.5905 105.491L72.6144 105.156L72.9458 105.124C73.9528 105.026 74.9659 105.008 75.9759 105.068L76.3352 105.092V105.451C76.3906 106.725 76.3452 108.001 76.1995 109.268L76.1636 109.503L75.94 109.583C75.4301 109.728 74.9009 109.794 74.371 109.779ZM73.3131 108.928C74.0236 109.008 74.7415 108.996 75.4489 108.892C75.5491 107.88 75.5838 106.863 75.5527 105.846C74.822 105.817 74.0901 105.83 73.361 105.886C73.2971 107.032 73.3051 108.321 73.3131 108.928Z" fill="white"/>
<path d="M66.67 105.599C66.67 105.599 66.5542 107.838 66.3905 109.264C66.0751 109.591 65.4883 109.34 65.4883 109.34C65.4883 109.34 65.6041 107.272 65.7438 105.647C66.0442 105.556 66.3619 105.54 66.67 105.599V105.599Z" fill="#00080D"/>
<path d="M81.2979 105.599C81.2979 105.599 81.1821 107.838 81.0185 109.264C80.7031 109.591 80.1162 109.34 80.1162 109.34C80.1162 109.34 80.232 107.272 80.3717 105.647C80.6721 105.556 80.9898 105.54 81.2979 105.599V105.599Z" fill="#00080D"/>
<path d="M76.6826 85.386C76.8982 88.2724 78.7386 88.9232 78.9981 88.9152C79.2576 88.9072 80.9943 88.1886 80.7787 85.3022C80.0101 85.2787 79.2701 85.0054 78.6708 84.5237C78.4135 84.7926 78.1051 85.0073 77.7637 85.1554C77.4223 85.3035 77.0547 85.3819 76.6826 85.386Z" fill="#00080D"/>
<path d="M76.2833 61.7516C78.3354 62.0949 79.1099 63.0491 74.4908 63.608C71.8213 63.9508 69.122 63.9964 66.4424 63.7438C66.4424 63.7438 72.6025 61.7317 76.2833 61.7516Z" fill="#263238"/>
<path d="M66.0675 63.9754C69.4449 62.9478 72.9125 62.2446 76.4234 61.8754C76.4332 61.4656 76.3593 61.0581 76.2063 60.6778C76.0532 60.2975 75.8241 59.9524 75.5332 59.6637C75.5332 59.6637 77.8686 59.2645 76.7069 58.5658C75.9084 58.0987 74.0041 58.0468 71.8922 56.6895C71.0259 57.4879 68.6545 58.7654 67.0336 58.9291C66.6344 59.6158 65.5844 61.3245 63.8877 61.9952C63.9116 62.7457 65.6004 62.9414 65.6004 62.9414C65.5933 63.138 65.6318 63.3337 65.7128 63.513C65.7939 63.6924 65.9152 63.8506 66.0675 63.9754V63.9754Z" fill="#00080D"/>
<path opacity="0.8" d="M65.6001 62.9534C69.0374 60.7218 72.335 59.7596 75.5328 59.6758C75.8238 59.9645 76.0529 60.3096 76.206 60.6899C76.359 61.0702 76.4329 61.4777 76.4231 61.8875C72.9126 62.2528 69.445 62.952 66.0672 63.9755C65.9166 63.852 65.7962 63.6957 65.7152 63.5186C65.6343 63.3414 65.5949 63.1481 65.6001 62.9534V62.9534Z" fill="#263238"/>
<path d="M71.6963 59.0648C72.0955 61.029 73.4808 61.3883 73.6685 61.3723C73.8561 61.3563 75.0538 60.7814 74.6586 58.8172C74.0945 58.8368 73.5378 58.6851 73.0616 58.3821C72.8916 58.5818 72.683 58.7451 72.4485 58.8624C72.2139 58.9797 71.9581 59.0485 71.6963 59.0648V59.0648Z" fill="white"/>
<path d="M74.0282 65.2009C74.4833 65.2648 75.2259 68.6902 72.8505 68.8738C70.8543 69.0295 70.2275 67.1971 70.2275 66.5543C70.2275 65.5962 73.3814 65.1091 74.0282 65.2009Z" fill="#263238"/>
<path d="M75.0338 65.1731C74.7504 65.3447 75.3891 68.9937 77.0299 68.6104C78.4272 68.2871 78.1917 66.3029 77.9641 65.6601C77.6408 64.69 75.437 64.9176 75.0338 65.1731Z" fill="#263238"/>
<g opacity="0.2">
<path d="M73.186 65.2368L74.4276 67.5004C74.3443 67.933 74.1004 68.3181 73.7449 68.5783L72.0322 65.4484C72.412 65.3539 72.7974 65.2832 73.186 65.2368V65.2368Z" fill="white"/>
<path d="M71.5252 65.5723L73.2858 68.7661C73.1453 68.8069 73.0007 68.8323 72.8547 68.8419C72.7589 68.8478 72.6629 68.8478 72.5672 68.8419L70.8984 65.7998C71.1013 65.7081 71.3108 65.632 71.5252 65.5723V65.5723Z" fill="white"/>
<path d="M77.0465 65.0172L78.1483 67.0134C78.1346 67.3565 78.0402 67.6916 77.8729 67.9915L76.2041 64.9374C76.487 64.9335 76.7694 64.9603 77.0465 65.0172V65.0172Z" fill="white"/>
<path d="M77.657 68.2749C77.5561 68.3753 77.4369 68.4553 77.3057 68.5105L75.4014 65.0372C75.5475 65.0046 75.6955 64.9806 75.8445 64.9653L77.657 68.2749Z" fill="white"/>
</g>
<path d="M99.4586 87.1064C99.6622 87.0186 99.3189 86.2042 99.1153 86.288L71.1933 98.0014C71.1609 97.9481 71.1104 97.9083 71.051 97.8892C70.9916 97.8701 70.9273 97.8731 70.8699 97.8976L69.7002 98.3846C69.6429 98.41 69.5964 98.4546 69.5686 98.5108C69.5409 98.567 69.5338 98.6311 69.5485 98.692L65.8756 100.229C65.056 100.577 64.3228 101.1 63.7278 101.762L62.083 103.599C62.0523 104.023 61.8596 104.42 61.5445 104.707C61.2294 104.994 60.8162 105.149 60.3902 105.14H60.1467L51.707 110.238C51.3968 110.425 51.1554 110.708 51.0187 111.044C50.8821 111.38 50.8575 111.751 50.9485 112.102C51.2423 113.327 51.7389 114.494 52.4177 115.555C52.5544 115.76 52.7342 115.931 52.9445 116.059C53.1548 116.186 53.3905 116.265 53.6348 116.292C53.8792 116.318 54.1264 116.29 54.3589 116.211C54.5915 116.131 54.8037 116.001 54.9807 115.831L63.5082 107.619C63.8688 107.272 64.0939 106.807 64.143 106.309L64.2468 105.255L66.0912 103.195C66.3553 103.664 66.7894 104.013 67.3038 104.171C67.8182 104.328 68.3734 104.282 68.8546 104.041C69.3357 103.801 69.7059 103.384 69.8886 102.878C70.0713 102.372 70.0524 101.815 69.8359 101.323C69.8264 101.298 69.8144 101.274 69.8 101.251L70.4827 100.964C70.5153 101.019 70.5667 101.061 70.6276 101.081C70.6884 101.102 70.7546 101.1 70.8141 101.075L71.9838 100.588C72.0427 100.563 72.0905 100.517 72.1184 100.459C72.1462 100.401 72.1523 100.335 72.1355 100.273L88.42 93.4422C88.5105 93.4035 88.5819 93.3305 88.6186 93.2391C88.6553 93.1478 88.6542 93.0457 88.6156 92.9551V92.9551L97.3986 89.2703C97.5343 89.2144 97.3227 88.7153 97.187 88.7752L96.5403 89.0467L96.5043 88.3361L99.4586 87.1064ZM68.5544 103.666C68.1639 103.832 67.7247 103.842 67.3273 103.693C66.9299 103.544 66.6047 103.249 66.4186 102.868L66.6621 102.592L66.7858 102.541C66.8908 102.69 67.0157 102.824 67.1571 102.94C67.3743 103.111 67.6234 103.238 67.89 103.313C68.1566 103.388 68.4353 103.409 68.7101 103.375L68.6542 102.936C68.4374 102.962 68.2175 102.945 68.0071 102.887C67.7968 102.828 67.6002 102.728 67.4286 102.592C67.3474 102.528 67.2725 102.456 67.205 102.377L69.4088 101.455C69.4192 101.478 69.4312 101.501 69.4447 101.523C69.6057 101.925 69.6027 102.375 69.4363 102.776C69.2699 103.176 68.9534 103.496 68.5544 103.666V103.666ZM95.7578 89.382L88.424 92.4561L88.1645 91.8413L95.7218 88.6714L95.7578 89.382Z" fill="#00080D"/>
<path opacity="0.2" d="M99.4586 87.1064C99.6622 87.0186 99.3189 86.2042 99.1153 86.288L71.1933 98.0014C71.1609 97.9481 71.1104 97.9083 71.051 97.8892C70.9916 97.8701 70.9273 97.8731 70.8699 97.8976L69.7002 98.3846C69.6429 98.41 69.5964 98.4546 69.5686 98.5108C69.5409 98.567 69.5338 98.6311 69.5485 98.692L65.8756 100.229C65.056 100.577 64.3228 101.1 63.7278 101.762L62.083 103.599C62.0523 104.023 61.8596 104.42 61.5445 104.707C61.2294 104.994 60.8162 105.149 60.3902 105.14H60.1467L51.707 110.238C51.3968 110.425 51.1554 110.708 51.0187 111.044C50.8821 111.38 50.8575 111.751 50.9485 112.102C51.2423 113.327 51.7389 114.494 52.4177 115.555C52.5544 115.76 52.7342 115.931 52.9445 116.059C53.1548 116.186 53.3905 116.265 53.6348 116.292C53.8792 116.318 54.1264 116.29 54.3589 116.211C54.5915 116.131 54.8037 116.001 54.9807 115.831L63.5082 107.619C63.8688 107.272 64.0939 106.807 64.143 106.309L64.2468 105.255L66.0912 103.195C66.3553 103.664 66.7894 104.013 67.3038 104.171C67.8182 104.328 68.3734 104.282 68.8546 104.041C69.3357 103.801 69.7059 103.384 69.8886 102.878C70.0713 102.372 70.0524 101.815 69.8359 101.323C69.8264 101.298 69.8144 101.274 69.8 101.251L70.4827 100.964C70.5153 101.019 70.5667 101.061 70.6276 101.081C70.6884 101.102 70.7546 101.1 70.8141 101.075L71.9838 100.588C72.0427 100.563 72.0905 100.517 72.1184 100.459C72.1462 100.401 72.1523 100.335 72.1355 100.273L88.42 93.4422C88.5105 93.4035 88.5819 93.3305 88.6186 93.2391C88.6553 93.1478 88.6542 93.0457 88.6156 92.9551V92.9551L97.3986 89.2703C97.5343 89.2144 97.3227 88.7153 97.187 88.7752L96.5403 89.0467L96.5043 88.3361L99.4586 87.1064ZM68.5544 103.666C68.1639 103.832 67.7247 103.842 67.3273 103.693C66.9299 103.544 66.6047 103.249 66.4186 102.868L66.6621 102.592L66.7858 102.541C66.8908 102.69 67.0157 102.824 67.1571 102.94C67.3743 103.111 67.6234 103.238 67.89 103.313C68.1566 103.388 68.4353 103.409 68.7101 103.375L68.6542 102.936C68.4374 102.962 68.2175 102.945 68.0071 102.887C67.7968 102.828 67.6002 102.728 67.4286 102.592C67.3474 102.528 67.2725 102.456 67.205 102.377L69.4088 101.455C69.4192 101.478 69.4312 101.501 69.4447 101.523C69.6057 101.925 69.6027 102.375 69.4363 102.776C69.2699 103.176 68.9534 103.496 68.5544 103.666V103.666ZM95.7578 89.382L88.424 92.4561L88.1645 91.8413L95.7218 88.6714L95.7578 89.382Z" fill="black"/>
<path d="M88.688 91.7735L80.951 95.0192C80.8224 95.0734 80.7193 95.1746 80.6629 95.3023C80.6065 95.43 80.601 95.5743 80.6476 95.7059L80.967 96.5842C80.9916 96.6539 81.0303 96.7179 81.0806 96.7722C81.1308 96.8265 81.1917 96.8699 81.2594 96.8998C81.327 96.9297 81.4001 96.9455 81.4741 96.9461C81.548 96.9468 81.6214 96.9323 81.6896 96.9036L89.4266 93.6579C89.5551 93.6038 89.6579 93.5023 89.7137 93.3744C89.7694 93.2466 89.7738 93.1022 89.726 92.9712L89.4106 92.0929C89.386 92.0231 89.3473 91.9592 89.297 91.9049C89.2467 91.8506 89.1859 91.8072 89.1182 91.7773C89.0506 91.7474 88.9775 91.7316 88.9035 91.731C88.8295 91.7303 88.7562 91.7448 88.688 91.7735V91.7735Z" fill="#00080D"/>
<path d="M93.6102 88.7475L93.8777 88.6756C94.2159 88.584 94.573 88.5893 94.9083 88.691C95.2436 88.7926 95.5436 88.9865 95.774 89.2505L96.0135 89.526C96.0773 89.5983 96.1229 89.685 96.1462 89.7786C96.1696 89.8722 96.1702 89.9701 96.1479 90.064C96.1256 90.1579 96.0811 90.245 96.0181 90.3181C95.9551 90.3912 95.8755 90.4482 95.786 90.4841L93.1551 91.57C93.0802 91.601 92.9999 91.6166 92.9189 91.6161C92.8379 91.6155 92.7578 91.5987 92.6834 91.5667C92.609 91.5347 92.5418 91.4882 92.4856 91.4298C92.4295 91.3714 92.3856 91.3023 92.3566 91.2267V91.2267C92.2625 90.9824 92.2207 90.7211 92.2338 90.4596C92.2469 90.1982 92.3148 89.9424 92.4329 89.7087C92.551 89.4751 92.7168 89.2689 92.9196 89.1033C93.1224 88.9377 93.3576 88.8165 93.6102 88.7475Z" fill="#B55B52"/>
<path d="M65.7439 83.2381L65.5443 83.4777L65.3127 83.7611L64.8416 84.336C64.5302 84.7352 64.2149 85.1345 63.9074 85.5617C63.2886 86.3881 62.7098 87.2424 62.1229 88.1127C61.536 88.983 61.0091 89.8733 60.4661 90.7676C59.9232 91.6618 59.4441 92.588 58.969 93.5182L58.6177 94.2209L58.5339 94.3926C58.5247 94.412 58.514 94.4307 58.5019 94.4484C58.4745 94.492 58.453 94.5389 58.438 94.5882C58.3313 94.8875 58.2695 95.201 58.2544 95.5184C58.2225 96.424 58.3002 97.3302 58.4859 98.2172C58.9099 100.259 59.4769 102.268 60.1827 104.23L60.2106 104.305C60.3238 104.64 60.3151 105.004 60.1861 105.332C60.0571 105.661 59.816 105.934 59.5054 106.102C59.1949 106.27 58.8349 106.323 58.4891 106.251C58.1433 106.18 57.8339 105.988 57.6156 105.711C56.8802 104.778 56.2131 103.793 55.6195 102.764C55.0184 101.721 54.5005 100.632 54.0705 99.5067C53.575 98.2821 53.2577 96.9927 53.1283 95.6781C53.0513 94.8845 53.093 94.0839 53.2521 93.3027C53.2953 93.0806 53.354 92.8618 53.4277 92.6479L53.5395 92.3126L53.6194 92.101L53.9427 91.2786C54.8074 89.0869 55.8544 86.9715 57.0727 84.9548C57.6835 83.9448 58.3263 82.9587 59.0289 81.9965C59.3802 81.5175 59.7395 81.0384 60.1188 80.5753C60.3104 80.3398 60.518 80.1082 60.7056 79.8767L61.0131 79.5253L61.3684 79.1261C61.9028 78.5697 62.6314 78.241 63.4022 78.2087C64.1731 78.1763 64.9267 78.4428 65.5058 78.9525C66.085 79.4622 66.4451 80.1757 66.5111 80.9444C66.577 81.7131 66.3436 82.4776 65.8597 83.0785L65.7439 83.2381Z" fill="#263238"/>
<path d="M68.8698 78.3835C69.6682 78.1 68.6542 77.2417 68.6542 77.2417C68.6542 77.2417 64.4184 77.3734 61.9033 78.0402C61.504 78.4035 61.9592 78.8386 61.9592 78.8386C61.9592 78.8386 66.4904 79.2259 68.8698 78.3835Z" fill="#00080D"/>
<path opacity="0.2" d="M68.8064 77.1499C68.8064 77.1499 69.4331 79.5094 72.2836 81.4376C71.038 81.4376 69.2735 82.6832 69.2735 82.6832C68.7467 81.9067 68.3804 81.0328 68.196 80.1128C68.0116 79.1927 68.0128 78.2452 68.1995 77.3256C68.3752 77.0501 68.8064 77.1499 68.8064 77.1499Z" fill="black"/>
<path d="M68.8894 76.7505C69.558 78.6093 70.7334 80.2439 72.2828 81.4694C71.2259 81.5494 70.1828 81.7585 69.1768 82.0922C69.1768 82.0922 67.6158 80.627 68.1987 77.3573C68.3905 77.1151 68.6245 76.9096 68.8894 76.7505Z" fill="white"/>
<path d="M59.7632 104.062L62.2424 106.198L58.9527 108.337C58.9527 108.337 56.9566 106.13 57.9387 104.872L59.7632 104.062Z" fill="#B55B52"/>
<path d="M57.5956 105.862C57.3044 105.627 57.0732 105.326 56.9209 104.984C57.7194 104.165 59.3163 103.491 60.0309 103.307C60.3222 103.67 60.4838 104.12 60.49 104.585C60.49 104.585 58.3861 104.948 57.5956 105.862Z" fill="white"/>
<path d="M62.5262 109.587L61.2447 110.142C60.9979 110.249 60.721 110.265 60.4635 110.187C60.2061 110.108 59.9849 109.941 59.8394 109.715L58.9531 108.337L62.2428 106.198L63.1051 108.07C63.1681 108.207 63.2031 108.356 63.2081 108.507C63.213 108.658 63.1878 108.809 63.1339 108.95C63.08 109.091 62.9985 109.22 62.8942 109.33C62.7898 109.439 62.6647 109.526 62.5262 109.587Z" fill="#B55B52"/>
<path d="M72.4951 70.3628C72.88 70.109 73.3206 69.9518 73.7793 69.9045C74.238 69.8572 74.7013 69.9213 75.13 70.0914C75.1422 70.0969 75.1532 70.1049 75.1623 70.1148C75.1714 70.1247 75.1784 70.1364 75.1828 70.149C75.1873 70.1617 75.1892 70.1752 75.1883 70.1886C75.1875 70.202 75.1839 70.2151 75.1779 70.2271C75.1658 70.2511 75.145 70.2695 75.1197 70.2784C75.0944 70.2873 75.0666 70.2861 75.0421 70.275C74.6433 70.1225 74.214 70.0665 73.7894 70.1116C73.3647 70.1567 72.9568 70.3016 72.5989 70.5345C72.5761 70.5476 72.549 70.5512 72.5236 70.5445C72.4982 70.5377 72.4765 70.5212 72.4631 70.4986C72.4559 70.4877 72.451 70.4754 72.4488 70.4626C72.4465 70.4497 72.4468 70.4365 72.4498 70.4238C72.4528 70.4111 72.4584 70.3991 72.4661 70.3887C72.4739 70.3782 72.4838 70.3694 72.4951 70.3628Z" fill="#263238"/>
<path d="M65.9632 85.338L71.3488 85.1344L71.3288 84.6992L65.9473 84.9028L65.9632 85.338Z" fill="white"/>
<path d="M112.565 182.729H102.113L109.711 122.374H120.166L112.565 182.729Z" fill="#00080D"/>
<path opacity="0.4" d="M112.565 182.729H102.113L109.711 122.374H120.166L112.565 182.729Z" fill="black"/>
<path d="M101.179 182.729H102.113L109.71 122.374H108.776L101.179 182.729Z" fill="#263238"/>
<path d="M151.549 182.729H141.098L148.695 122.374H159.151L151.549 182.729Z" fill="#00080D"/>
<path opacity="0.4" d="M151.549 182.729H141.098L148.695 122.374H159.151L151.549 182.729Z" fill="black"/>
<path d="M140.159 182.729H141.097L148.695 122.374H147.76L140.159 182.729Z" fill="#263238"/>
<path d="M122.242 175.547H160.152L158.499 162.409H120.589L122.242 175.547Z" fill="#00080D"/>
<path d="M122.242 175.547H121.624L119.967 162.409H120.59L122.242 175.547Z" fill="#263238"/>
<path d="M158.064 162.984L159.573 174.972H157.334L151.317 162.984H158.064Z" fill="white"/>
<path d="M147.498 162.984L153.514 174.972H145.29L139.273 162.984H147.498Z" fill="white"/>
<path d="M135.453 162.984L141.469 174.972H133.241L127.229 162.984H135.453Z" fill="white"/>
<path d="M123.412 162.984L129.424 174.972H122.677L121.168 162.984H123.412Z" fill="white"/>
<path d="M156.524 182.729H166.98L159.379 122.374H148.927L156.524 182.729Z" fill="#00080D"/>
<path opacity="0.2" d="M152.312 149.262L163.311 153.586L160.153 128.522H149.697L152.312 149.262Z" fill="black"/>
<path d="M156.524 182.729H155.589L147.992 122.374H148.926L156.524 182.729Z" fill="#263238"/>
<path d="M117.539 182.729H127.994L120.397 122.374H109.941L117.539 182.729Z" fill="#00080D"/>
<path opacity="0.2" d="M113.328 149.262L124.326 153.586L121.169 128.522H110.717L113.328 149.262Z" fill="black"/>
<path d="M117.539 182.729H116.605L109.008 122.374H109.942L117.539 182.729Z" fill="#263238"/>
<path d="M109.151 146.48H166.237L163.746 126.698H106.66L109.151 146.48Z" fill="#00080D"/>
<path d="M109.151 146.48H108.217L105.726 126.698H106.66L109.151 146.48Z" fill="#263238"/>
<path d="M163.091 127.56L165.367 145.613H161.993L152.935 127.56H163.091Z" fill="white"/>
<path d="M147.182 127.56L156.24 145.613H143.852L134.798 127.56H147.182Z" fill="white"/>
<path d="M129.045 127.56L138.104 145.613H125.716L116.657 127.56H129.045Z" fill="white"/>
<path d="M110.912 127.56L119.966 145.613H109.806L107.534 127.56H110.912Z" fill="white"/>
</g>
</svg>
