<svg width="226" height="226" viewBox="0 0 226 226" fill="none" xmlns="http://www.w3.org/2000/svg">
<circle cx="113" cy="113" r="113" fill="#E1E5F2"/>
<path d="M81.6553 58.6391L87.1825 39.5372L103.771 35.0123L113.823 12.395L129.41 0.331055L144.488 16.9199L149.013 24.9602L171.129 34.5111L163.089 67.1877L136.949 88.8026L117.346 95.3322L102.762 92.318L90.6979 82.2659L81.6553 58.6391Z" fill="white"/>
<path opacity="0.5" d="M81.6553 58.6391L87.1825 39.5372L103.771 35.0123L113.823 12.395L129.41 0.331055L144.488 16.9199L149.013 24.9602L171.129 34.5111L163.089 67.1877L136.949 88.8026L117.346 95.3322L102.762 92.318L90.6979 82.2659L81.6553 58.6391Z" fill="white"/>
<path d="M117.367 95.6903H117.289L102.712 92.676C102.653 92.663 102.599 92.636 102.554 92.5973L90.4901 82.5738C90.4449 82.5355 90.4104 82.4862 90.3899 82.4306L81.3401 58.8038C81.315 58.7295 81.315 58.649 81.3401 58.5747L86.8387 39.4514C86.8549 39.3921 86.8867 39.3382 86.9308 39.2954C86.9748 39.2526 87.0296 39.2224 87.0893 39.2079L103.513 34.726L113.494 12.2448C113.52 12.1902 113.556 12.1415 113.601 12.1016L129.188 0.0734023C129.26 0.0191269 129.35 -0.00651899 129.44 0.00141383C129.529 0.00934665 129.613 0.0502943 129.675 0.116358L144.753 16.7052C144.77 16.725 144.784 16.7466 144.796 16.7697L149.264 24.7097L171.272 34.2105C171.349 34.245 171.412 34.3056 171.448 34.3816C171.485 34.4575 171.494 34.544 171.473 34.6258L163.432 67.3023C163.416 67.3771 163.373 67.4433 163.311 67.4885L137.178 89.1034C137.143 89.1302 137.105 89.1519 137.064 89.1678L117.453 95.7046L117.367 95.6903ZM102.948 91.9887L117.346 94.9671L136.791 88.4805L162.788 67.0016L170.728 34.7332L148.87 25.2896C148.797 25.2601 148.737 25.2071 148.698 25.1393L144.195 17.1276L129.367 0.789365L114.117 12.5956L104.093 35.1341C104.071 35.1818 104.038 35.2238 103.997 35.2572C103.956 35.2906 103.908 35.3146 103.857 35.3274L87.4616 39.8022L82.0203 58.5962L90.9985 82.0225L102.948 91.9887Z" fill="#143A56"/>
<path d="M182.62 19.0821L177.014 17.7576L173.112 26.2847L166.604 35.0123L156.029 38.0193L147.481 39.53L137.457 57.6295L130.419 59.1331L115.341 83.7622L95.2299 70.6959L92.7097 61.6461L84.6694 53.1047L74.6459 53.6058L60.0689 57.1212L55.5154 43.0311L40.3227 38.0981C40.3227 38.857 40.3227 39.6159 40.3227 40.382C40.2811 52.9565 43.3794 65.3425 49.3367 76.4164C59.2599 94.5804 76.8941 113.646 73.6078 136.321C73.0422 140.223 72.6269 143.438 74.8464 146.745H151.49C154.748 142.213 154.046 136.557 153.839 129.963C153.459 117.792 157.01 105.893 163.06 95.4897C168.144 86.7549 175.511 79.0225 179.742 69.8868C183.973 60.7511 185.677 50.4198 185.677 40.3963C185.67 33.1829 184.641 26.0068 182.62 19.0821V19.0821Z" fill="white"/>
<path d="M151.455 147.154H74.8467C74.7885 147.154 74.7312 147.14 74.68 147.112C74.6288 147.085 74.5852 147.045 74.5531 146.996C72.2119 143.517 72.7131 140.016 73.2501 136.314C75.7488 119.131 66.1835 104.096 56.9333 89.6405C54.0694 85.1586 51.3631 80.9201 49.0577 76.6386C43.0588 65.517 39.9448 53.0685 40.0007 40.4324C40.0007 39.6663 40.0007 38.9002 40.0007 38.1413C40.0027 38.0863 40.0172 38.0325 40.0433 37.9841C40.0694 37.9357 40.1063 37.8939 40.1511 37.862C40.1954 37.8283 40.2473 37.806 40.3023 37.7973C40.3573 37.7885 40.4136 37.7936 40.4661 37.8119L55.6588 42.7378C55.7132 42.7536 55.7627 42.7829 55.8028 42.8229C55.8428 42.863 55.8721 42.9125 55.888 42.9669L60.3126 56.7277L74.5674 53.2839L84.684 52.7756C84.7356 52.7718 84.7874 52.7794 84.8356 52.798C84.8839 52.8166 84.9275 52.8456 84.9632 52.8829L93.0106 61.4315C93.0475 61.4765 93.0766 61.5273 93.0966 61.5819L95.5666 70.4956L115.22 83.2756L130.105 58.9328C130.13 58.8913 130.163 58.8553 130.202 58.827C130.242 58.7987 130.286 58.7787 130.334 58.7682L137.214 57.3362L147.188 39.3799C147.214 39.3339 147.25 39.2941 147.293 39.2633C147.337 39.2324 147.386 39.2111 147.438 39.2009L155.987 37.6902L166.39 34.719L172.798 26.1274L176.692 17.6433C176.724 17.5674 176.782 17.5054 176.856 17.4687C176.929 17.4319 177.014 17.4227 177.093 17.4428L182.706 18.7602C182.768 18.7748 182.825 18.8058 182.87 18.8499C182.915 18.894 182.948 18.9496 182.964 19.0107C184.99 25.9901 186.012 33.2223 186 40.4896C186 51.4439 183.931 61.6965 180.029 70.1305C177.566 75.4573 173.986 80.3759 170.535 85.1657C167.955 88.585 165.551 92.1336 163.333 95.7978C156.975 106.738 153.803 118.587 154.161 130.085C154.161 130.873 154.218 131.646 154.254 132.405C154.483 138.09 154.691 142.994 151.748 147.082C151.707 147.114 151.66 147.137 151.609 147.149C151.558 147.161 151.506 147.163 151.455 147.154V147.154ZM75.0042 146.438H151.269C153.961 142.572 153.76 137.846 153.538 132.355C153.538 131.596 153.474 130.816 153.445 130.028C153.08 118.401 156.309 106.401 162.717 95.361C164.949 91.6765 167.365 88.1065 169.955 84.6645C173.392 79.9392 176.943 75.0492 179.377 69.7868C183.243 61.4459 185.284 51.3007 185.284 40.4324C185.291 33.3195 184.298 26.2409 182.334 19.4045L177.215 18.1945L173.435 26.4568C173.426 26.4797 173.414 26.5013 173.399 26.5212L166.891 35.2488C166.845 35.3115 166.78 35.357 166.705 35.3777L156.144 38.399L147.732 39.8811L137.765 57.8303C137.739 57.8749 137.704 57.9138 137.662 57.9445C137.62 57.9753 137.573 57.9973 137.522 58.0092L130.634 59.4984L115.635 83.9987C115.585 84.0784 115.505 84.135 115.413 84.1562C115.366 84.1678 115.316 84.1693 115.268 84.1606C115.22 84.152 115.174 84.1334 115.134 84.1061L95.0297 71.004C94.9561 70.9552 94.9027 70.8814 94.8793 70.7963L92.3877 61.8396L84.5122 53.4772L74.6247 53.9712L60.0907 57.4794C60.0035 57.5001 59.9117 57.4873 59.8335 57.4435C59.7553 57.3998 59.6963 57.3283 59.6682 57.2432L55.2006 43.3392L40.6379 38.621C40.6379 39.2152 40.6379 39.8095 40.6379 40.4109C40.5814 52.9273 43.6659 65.2578 49.609 76.2735C51.9358 80.5334 54.6207 84.7576 57.4846 89.2395C66.7921 103.824 76.4433 118.909 73.9087 136.4C73.3933 140.051 72.935 143.216 75.0042 146.416V146.438Z" fill="#143A56"/>
<path d="M65.102 78.1133H65.0376C64.9447 78.0959 64.8625 78.0425 64.8088 77.9647C64.7552 77.8869 64.7345 77.7911 64.7512 77.6981L65.7535 72.1708L68.1735 63.7941L59.8182 57.4077C59.7778 57.3803 59.7434 57.3448 59.7171 57.3036C59.6909 57.2624 59.6734 57.2162 59.6656 57.168C59.6579 57.1197 59.6601 57.0704 59.6722 57.023C59.6843 56.9757 59.7059 56.9313 59.7358 56.8926C59.7656 56.8539 59.8031 56.8218 59.8459 56.7981C59.8886 56.7745 59.9358 56.7598 59.9844 56.7551C60.0331 56.7504 60.0822 56.7556 60.1287 56.7706C60.1752 56.7856 60.2182 56.8099 60.2549 56.8421L68.8035 63.3717C68.8598 63.4169 68.9013 63.4777 68.923 63.5465C68.9446 63.6153 68.9454 63.689 68.9253 63.7583L66.4122 72.3069L65.417 77.7983C65.4091 77.8792 65.3734 77.9548 65.316 78.0123C65.2585 78.0697 65.1829 78.1054 65.102 78.1133Z" fill="#143A56"/>
<path d="M79.3783 97.7237C79.312 97.7245 79.2467 97.7068 79.1898 97.6727C79.133 97.6386 79.0867 97.5893 79.0562 97.5304L72.2617 83.9271C72.2405 83.8811 72.2295 83.831 72.2295 83.7803C72.2295 83.7296 72.2405 83.6796 72.2617 83.6336L75.19 76.1589C75.2043 76.1118 75.2282 76.0681 75.2601 76.0307C75.2921 75.9932 75.3314 75.9627 75.3757 75.9412C75.42 75.9196 75.4682 75.9074 75.5175 75.9053C75.5667 75.9033 75.6158 75.9114 75.6617 75.9292C75.7076 75.9469 75.7494 75.974 75.7844 76.0087C75.8194 76.0433 75.8468 76.0848 75.865 76.1306C75.8833 76.1763 75.8919 76.2253 75.8903 76.2746C75.8887 76.3238 75.8769 76.3722 75.8558 76.4166L72.992 83.7481L79.7148 97.1939C79.7369 97.2355 79.7502 97.2812 79.7542 97.3282C79.7582 97.3751 79.7526 97.4224 79.7379 97.4672C79.7232 97.5119 79.6997 97.5533 79.6686 97.5888C79.6376 97.6242 79.5998 97.6531 79.5573 97.6736C79.5041 97.7079 79.4417 97.7254 79.3783 97.7237V97.7237Z" fill="#143A56"/>
<path d="M72.2622 75.2497C72.2149 75.2592 72.1662 75.2592 72.119 75.2497L65.9259 72.572C65.8826 72.5532 65.8435 72.5261 65.8108 72.4921C65.778 72.4582 65.7522 72.4182 65.735 72.3743C65.7 72.2857 65.7018 72.1868 65.7397 72.0995C65.7777 72.0121 65.8488 71.9434 65.9375 71.9085C66.0261 71.8736 66.1249 71.8753 66.2123 71.9133L72.4054 74.5982C72.4774 74.633 72.5357 74.6909 72.571 74.7627C72.6063 74.8345 72.6165 74.916 72.6001 74.9943C72.5836 75.0726 72.5413 75.1431 72.4801 75.1946C72.4189 75.2461 72.3421 75.2756 72.2622 75.2783V75.2497Z" fill="#143A56"/>
<path d="M146.006 79.6097C145.959 79.6061 145.913 79.5932 145.871 79.5718C145.829 79.5504 145.792 79.5208 145.761 79.4849C145.731 79.449 145.707 79.4073 145.693 79.3624C145.679 79.3175 145.673 79.2701 145.677 79.2231L145.935 75.3139C145.944 75.2202 145.988 75.1335 146.058 75.071C146.129 75.0086 146.22 74.9752 146.314 74.9774C146.362 74.9801 146.409 74.9923 146.451 75.0134C146.494 75.0344 146.533 75.0638 146.564 75.0998C146.595 75.1358 146.619 75.1778 146.634 75.2231C146.649 75.2685 146.655 75.3164 146.651 75.364L146.386 79.2732C146.383 79.3202 146.371 79.3663 146.351 79.4087C146.33 79.451 146.301 79.489 146.266 79.5202C146.231 79.5515 146.19 79.5755 146.145 79.5908C146.101 79.6062 146.053 79.6126 146.006 79.6097Z" fill="#143A56"/>
<path d="M146.5 72.0636C146.444 72.0642 146.388 72.0515 146.337 72.0267C146.286 72.0018 146.241 71.9654 146.207 71.9204L143.723 68.4408L138.711 64.4458C138.649 64.3971 138.606 64.3289 138.589 64.2524L137.078 57.7157C137.068 57.6696 137.066 57.6219 137.074 57.5753C137.082 57.5287 137.1 57.4842 137.125 57.4442C137.15 57.4043 137.183 57.3697 137.222 57.3426C137.261 57.3155 137.304 57.2963 137.35 57.2861C137.442 57.2665 137.538 57.2831 137.618 57.3324C137.698 57.3818 137.756 57.4601 137.78 57.551L139.255 63.9947L144.188 67.9397C144.213 67.96 144.235 67.9842 144.252 68.0113L146.765 71.5266C146.82 71.6041 146.842 71.6996 146.827 71.7931C146.813 71.8866 146.762 71.9708 146.687 72.0278C146.629 72.0556 146.565 72.0679 146.5 72.0636V72.0636Z" fill="#143A56"/>
<path d="M138.99 201.524L131.035 217.01C130.615 217.831 129.976 218.521 129.189 219.002C128.402 219.483 127.497 219.738 126.575 219.738H99.4685C98.5448 219.739 97.6387 219.485 96.8503 219.004C96.0619 218.522 95.4219 217.832 95.0009 217.01L87.0537 201.524H138.99Z" fill="#143A56"/>
<path d="M126.575 220.096H99.4691C98.4798 220.099 97.5089 219.828 96.6646 219.312C95.8202 218.796 95.1355 218.057 94.6865 217.175L86.725 201.682C86.6982 201.627 86.6858 201.566 86.689 201.506C86.6921 201.445 86.7107 201.386 86.7429 201.334C86.7751 201.283 86.82 201.24 86.8732 201.211C86.9265 201.181 86.9863 201.166 87.0472 201.166H138.99C139.051 201.166 139.111 201.182 139.163 201.212C139.216 201.242 139.26 201.286 139.291 201.338C139.321 201.39 139.337 201.449 139.337 201.51C139.337 201.57 139.321 201.629 139.291 201.682L131.344 217.175C130.895 218.054 130.213 218.792 129.371 219.307C128.53 219.823 127.562 220.096 126.575 220.096V220.096ZM87.6343 201.882L95.3165 216.846C95.7063 217.609 96.2999 218.251 97.0316 218.698C97.7632 219.145 98.6044 219.381 99.462 219.38H126.575C127.433 219.381 128.274 219.145 129.006 218.698C129.738 218.251 130.331 217.609 130.721 216.846L138.403 201.882H87.6343Z" fill="#143A56"/>
<path d="M151.218 146.774H74.8105V201.016H151.218V146.774Z" fill="#143A56"/>
<path d="M151.219 201.374H74.8111C74.7162 201.374 74.6251 201.336 74.558 201.269C74.4908 201.202 74.4531 201.111 74.4531 201.016V146.774C74.4531 146.679 74.4908 146.588 74.558 146.521C74.6251 146.454 74.7162 146.416 74.8111 146.416H151.219C151.314 146.416 151.405 146.454 151.472 146.521C151.539 146.588 151.577 146.679 151.577 146.774V201.016C151.577 201.111 151.539 201.202 151.472 201.269C151.405 201.336 151.314 201.374 151.219 201.374V201.374ZM75.1691 200.658H150.861V147.132H75.1691V200.658Z" fill="#143A56"/>
<path d="M105.555 146.774H84.627V201.016H105.555V146.774Z" fill="white"/>
<path d="M105.561 201.374H84.6265C84.5316 201.374 84.4405 201.336 84.3734 201.269C84.3063 201.202 84.2686 201.111 84.2686 201.016V146.774C84.2704 146.68 84.3087 146.59 84.3754 146.523C84.4422 146.456 84.5322 146.418 84.6265 146.416H105.561C105.656 146.418 105.746 146.456 105.812 146.523C105.879 146.59 105.917 146.68 105.919 146.774V201.016C105.919 201.111 105.882 201.202 105.814 201.269C105.747 201.336 105.656 201.374 105.561 201.374V201.374ZM84.9845 200.658H105.196V147.132H84.9845V200.658Z" fill="#143A56"/>
<path d="M151.218 201.016L145.627 208.132C144.992 208.983 144.168 209.673 143.22 210.149C142.271 210.625 141.225 210.874 140.164 210.874H85.8653C84.804 210.875 83.7571 210.628 82.8086 210.152C81.86 209.675 81.036 208.984 80.4025 208.132L74.8037 201.016H151.218Z" fill="#143A56"/>
<path d="M140.164 211.233H85.8652C84.7542 211.229 83.6592 210.969 82.6655 210.472C81.6719 209.975 80.8066 209.255 80.1375 208.369L74.5315 201.259C74.49 201.206 74.464 201.142 74.4564 201.076C74.4488 201.009 74.4599 200.941 74.4885 200.88C74.518 200.819 74.5639 200.769 74.6208 200.733C74.6778 200.698 74.7436 200.679 74.8107 200.679H151.218C151.286 200.678 151.353 200.696 151.41 200.732C151.468 200.767 151.515 200.818 151.545 200.879C151.575 200.939 151.587 201.007 151.58 201.075C151.573 201.142 151.547 201.206 151.505 201.259L145.906 208.376C145.234 209.263 144.367 209.983 143.37 210.479C142.374 210.974 141.277 211.232 140.164 211.233V211.233ZM75.5481 201.374L80.6887 207.91C81.2912 208.717 82.0732 209.373 82.9729 209.825C83.8726 210.278 84.8653 210.514 85.8723 210.517H140.164C141.169 210.513 142.159 210.276 143.057 209.825C143.956 209.375 144.737 208.721 145.34 207.918L150.488 201.374H75.5481Z" fill="#143A56"/>
<path d="M105.518 208.132L99.9268 201.016H84.8916L90.4904 208.132C91.1243 208.983 91.9483 209.675 92.8968 210.151C93.8453 210.627 94.892 210.875 95.9532 210.874H110.988C109.926 210.875 108.878 210.627 107.929 210.151C106.979 209.675 106.154 208.984 105.518 208.132V208.132Z" fill="white"/>
<path d="M110.982 211.232H95.8893C94.7784 211.229 93.6833 210.969 92.6897 210.472C91.6961 209.975 90.8308 209.255 90.1616 208.369L84.5771 201.259C84.5355 201.206 84.5095 201.143 84.5022 201.076C84.4948 201.01 84.5063 200.942 84.5354 200.882C84.5646 200.821 84.6101 200.77 84.6668 200.735C84.7236 200.699 84.7892 200.68 84.8563 200.679H99.8916C99.9454 200.679 99.9986 200.691 100.047 200.715C100.095 200.738 100.138 200.773 100.171 200.815L105.77 207.932C106.373 208.736 107.154 209.389 108.052 209.84C108.951 210.291 109.941 210.527 110.946 210.531C111.041 210.531 111.132 210.569 111.199 210.636C111.266 210.703 111.304 210.794 111.304 210.889C111.301 210.975 111.267 211.058 111.207 211.121C111.148 211.184 111.068 211.224 110.982 211.232ZM85.5938 201.374L90.7344 207.91C91.3376 208.717 92.1198 209.372 93.0193 209.824C93.9189 210.276 94.9111 210.513 95.918 210.517H107.867C106.832 210.021 105.931 209.285 105.24 208.369L99.7555 201.388L85.5938 201.374Z" fill="#143A56"/>
<path d="M151.218 161.051H74.8105V201.016H151.218V161.051Z" fill="#143A56"/>
<path d="M151.219 201.374H74.8111C74.7162 201.374 74.6251 201.336 74.558 201.269C74.4908 201.202 74.4531 201.111 74.4531 201.016V161.051C74.4531 160.956 74.4908 160.865 74.558 160.797C74.6251 160.73 74.7162 160.693 74.8111 160.693H151.219C151.314 160.693 151.405 160.73 151.472 160.797C151.539 160.865 151.577 160.956 151.577 161.051V201.016C151.577 201.111 151.539 201.202 151.472 201.269C151.405 201.336 151.314 201.374 151.219 201.374V201.374ZM75.1691 200.658H150.861V161.409H75.1691V200.658Z" fill="#143A56"/>
<path d="M150.767 169.757L75.5913 173.981C74.7844 174.028 73.9918 173.753 73.3877 173.216C72.7836 172.679 72.4174 171.924 72.3694 171.117V171.117C72.3224 170.31 72.5975 169.516 73.1342 168.911C73.671 168.306 74.4258 167.938 75.2333 167.888L150.409 163.664C151.217 163.619 152.009 163.895 152.614 164.431C153.218 164.967 153.587 165.721 153.638 166.528C153.685 167.337 153.409 168.131 152.871 168.736C152.333 169.342 151.576 169.709 150.767 169.757Z" fill="#143A56"/>
<path d="M75.434 174.353C74.5946 174.353 73.7846 174.044 73.1572 173.487C72.6541 173.035 72.2959 172.445 72.1279 171.79C71.9599 171.135 71.9896 170.445 72.2132 169.807C72.4368 169.17 72.8444 168.612 73.3845 168.206C73.9245 167.799 74.5729 167.561 75.2479 167.523L150.424 163.299C151.329 163.247 152.217 163.558 152.893 164.161C153.569 164.765 153.978 165.612 154.029 166.517C154.08 167.422 153.77 168.31 153.166 168.986C152.563 169.662 151.715 170.071 150.811 170.122L75.6345 174.346L75.434 174.353ZM150.61 164.007H150.453L75.2765 168.232C74.9209 168.251 74.5726 168.34 74.2518 168.495C73.931 168.65 73.6441 168.867 73.4077 169.133C73.1713 169.399 72.9901 169.71 72.8746 170.047C72.7591 170.384 72.7116 170.74 72.7348 171.096C72.754 171.451 72.8435 171.799 72.9982 172.12C73.1529 172.441 73.3697 172.728 73.636 172.964C73.9024 173.201 74.213 173.382 74.5499 173.497C74.8868 173.613 75.2433 173.66 75.5987 173.637L150.775 169.413C151.491 169.394 152.17 169.091 152.662 168.572C153.155 168.052 153.421 167.358 153.402 166.642C153.383 165.926 153.081 165.247 152.561 164.755C152.042 164.262 151.347 163.996 150.632 164.015L150.61 164.007Z" fill="#143A56"/>
<path d="M75.2621 170.394L150.438 166.17C151.053 166.134 151.665 166.286 152.191 166.606C152.718 166.926 153.135 167.398 153.388 167.96C153.609 167.482 153.702 166.956 153.658 166.432C153.614 165.908 153.435 165.405 153.137 164.971C152.839 164.538 152.434 164.189 151.961 163.96C151.488 163.731 150.963 163.629 150.438 163.664L75.2621 167.888C74.7685 167.916 74.2892 168.064 73.8655 168.319C73.4419 168.574 73.0865 168.928 72.83 169.351C72.5736 169.774 72.4238 170.252 72.3934 170.746C72.3631 171.239 72.4532 171.733 72.656 172.184C72.8867 171.677 73.2512 171.242 73.7104 170.927C74.1696 170.611 74.706 170.427 75.2621 170.394V170.394Z" fill="white"/>
<path d="M72.6556 172.556C72.5875 172.557 72.5208 172.537 72.4636 172.5C72.4064 172.464 72.3612 172.411 72.3334 172.349C72.0996 171.844 71.9932 171.289 72.0237 170.733C72.0541 170.178 72.2205 169.638 72.5082 169.162C72.7958 168.685 73.196 168.287 73.6736 168.001C74.1512 167.715 74.6916 167.551 75.2474 167.523L150.424 163.299C150.87 163.275 151.316 163.339 151.738 163.487C152.159 163.636 152.547 163.866 152.88 164.164C153.212 164.463 153.482 164.824 153.675 165.227C153.868 165.63 153.98 166.067 154.003 166.514C154.034 167.06 153.931 167.606 153.703 168.103C153.674 168.167 153.628 168.22 153.569 168.259C153.511 168.297 153.443 168.317 153.373 168.318C153.304 168.322 153.234 168.303 153.176 168.264C153.118 168.225 153.074 168.169 153.051 168.103C152.826 167.608 152.457 167.192 151.992 166.91C151.527 166.628 150.988 166.492 150.445 166.521L75.2689 170.752C74.776 170.781 74.3007 170.946 73.8953 171.227C73.4898 171.509 73.1699 171.897 72.9706 172.349C72.9428 172.411 72.8976 172.464 72.8404 172.5C72.7832 172.537 72.7165 172.557 72.6484 172.556H72.6556ZM150.602 164.029H150.445L75.2689 168.253C74.9139 168.274 74.5665 168.365 74.2466 168.52C73.9267 168.676 73.6406 168.893 73.4045 169.159C73.1685 169.425 72.9872 169.734 72.8709 170.071C72.7547 170.407 72.7059 170.762 72.7272 171.117C72.7272 171.196 72.7272 171.282 72.7272 171.361C73.0261 170.981 73.4021 170.67 73.8304 170.446C74.2586 170.223 74.7294 170.093 75.2116 170.065V170.065L150.388 165.841C150.933 165.808 151.478 165.907 151.977 166.131C152.475 166.354 152.913 166.694 153.252 167.122C153.307 166.74 153.279 166.35 153.171 165.979C153.063 165.608 152.876 165.264 152.624 164.972C152.371 164.679 152.059 164.444 151.707 164.283C151.356 164.122 150.975 164.037 150.588 164.036L150.602 164.029Z" fill="#143A56"/>
<path d="M150.767 196.612L75.5913 200.837C74.7844 200.884 73.9918 200.608 73.3877 200.071C72.7836 199.534 72.4174 198.78 72.3694 197.973V197.973C72.3224 197.165 72.5975 196.372 73.1342 195.767C73.671 195.161 74.4258 194.794 75.2333 194.744L150.409 190.52C151.217 190.473 152.01 190.748 152.616 191.284C153.221 191.821 153.589 192.576 153.638 193.383V193.383C153.685 194.192 153.409 194.987 152.871 195.592C152.333 196.197 151.576 196.564 150.767 196.612Z" fill="white"/>
<path d="M75.4333 201.202C74.5276 201.226 73.6491 200.89 72.9912 200.267C72.3333 199.644 71.9498 198.785 71.9251 197.88C71.9004 196.974 72.2365 196.095 72.8596 195.438C73.4826 194.78 74.3414 194.396 75.2472 194.372L150.423 190.147C151.328 190.096 152.216 190.406 152.892 191.01C153.568 191.613 153.977 192.461 154.028 193.366C154.079 194.27 153.769 195.158 153.166 195.835C152.562 196.511 151.715 196.919 150.81 196.97L75.6338 201.195L75.4333 201.202ZM150.609 190.856H150.452L75.2758 195.08C74.5609 195.121 73.8915 195.444 73.4148 195.979C72.9382 196.513 72.6933 197.215 72.7341 197.93C72.775 198.645 73.0981 199.314 73.6325 199.791C74.1669 200.267 74.8688 200.512 75.5837 200.471L150.76 196.247C151.476 196.228 152.155 195.926 152.647 195.406C153.14 194.886 153.406 194.192 153.387 193.477C153.368 192.761 153.066 192.082 152.546 191.589C152.027 191.096 151.332 190.83 150.617 190.849L150.609 190.856Z" fill="#143A56"/>
<path d="M150.767 183.188L75.5913 187.412C74.7844 187.459 73.9918 187.184 73.3877 186.647C72.7836 186.11 72.4174 185.355 72.3694 184.548V184.548C72.3224 183.741 72.5975 182.947 73.1342 182.342C73.671 181.737 74.4258 181.369 75.2333 181.319L150.409 177.095C151.217 177.048 152.01 177.323 152.616 177.86C153.221 178.397 153.589 179.152 153.638 179.959C153.685 180.768 153.409 181.562 152.871 182.168C152.333 182.773 151.576 183.14 150.767 183.188Z" fill="#143A56"/>
<path d="M75.434 187.777C74.5946 187.777 73.7846 187.469 73.1572 186.911C72.6541 186.46 72.2959 185.869 72.1279 185.214C71.9599 184.56 71.9896 183.87 72.2132 183.232C72.4368 182.594 72.8444 182.036 73.3845 181.63C73.9245 181.223 74.5729 180.986 75.2479 180.947L150.424 176.723C150.872 176.698 151.321 176.761 151.744 176.909C152.168 177.057 152.558 177.287 152.893 177.586C153.228 177.884 153.5 178.246 153.695 178.65C153.89 179.055 154.003 179.493 154.029 179.941C154.054 180.389 153.991 180.838 153.843 181.262C153.695 181.685 153.465 182.075 153.166 182.41C152.867 182.745 152.506 183.018 152.101 183.212C151.697 183.407 151.259 183.521 150.811 183.546V183.546L75.6345 187.77L75.434 187.777ZM150.61 177.432H150.453L75.2765 181.656C74.9215 181.677 74.5741 181.768 74.2543 181.923C73.9344 182.078 73.6482 182.295 73.4122 182.561C73.1761 182.827 72.9948 183.137 72.8786 183.473C72.7624 183.809 72.7135 184.165 72.7348 184.52C72.7521 184.874 72.8402 185.221 72.994 185.541C73.1477 185.861 73.3639 186.147 73.6298 186.381C73.8922 186.624 74.2 186.812 74.5355 186.935C74.871 187.058 75.2274 187.113 75.5844 187.097L150.76 182.873C151.115 182.864 151.464 182.785 151.788 182.64C152.112 182.496 152.404 182.289 152.648 182.032C152.892 181.775 153.083 181.472 153.21 181.141C153.337 180.81 153.397 180.457 153.388 180.102C153.379 179.748 153.3 179.399 153.155 179.075C153.011 178.751 152.804 178.459 152.547 178.215C152.29 177.971 151.987 177.78 151.656 177.653C151.325 177.526 150.972 177.465 150.617 177.475L150.61 177.432Z" fill="#143A56"/>
<path d="M75.2621 183.818L150.438 179.594C151.053 179.559 151.665 179.711 152.191 180.031C152.718 180.35 153.135 180.822 153.388 181.384C153.609 180.907 153.702 180.381 153.658 179.857C153.614 179.333 153.435 178.829 153.137 178.396C152.839 177.962 152.434 177.614 151.961 177.385C151.488 177.155 150.963 177.053 150.438 177.088L75.2621 181.313C74.7685 181.341 74.2892 181.489 73.8655 181.744C73.4419 181.999 73.0865 182.353 72.83 182.775C72.5736 183.198 72.4238 183.677 72.3934 184.17C72.3631 184.664 72.4532 185.157 72.656 185.608C72.8867 185.101 73.2512 184.667 73.7104 184.351C74.1696 184.036 74.706 183.852 75.2621 183.818Z" fill="white"/>
<path d="M72.6556 185.98C72.5875 185.981 72.5208 185.961 72.4636 185.924C72.4064 185.888 72.3612 185.835 72.3334 185.773C72.0996 185.268 71.9932 184.713 72.0237 184.157C72.0541 183.602 72.2205 183.062 72.5082 182.586C72.7958 182.109 73.196 181.711 73.6736 181.425C74.1512 181.139 74.6916 180.975 75.2474 180.947L150.424 176.723C150.87 176.699 151.316 176.763 151.738 176.911C152.159 177.06 152.547 177.29 152.88 177.589C153.212 177.887 153.482 178.248 153.675 178.651C153.868 179.054 153.98 179.491 154.003 179.938C154.034 180.484 153.931 181.03 153.703 181.527C153.674 181.591 153.628 181.645 153.569 181.683C153.511 181.721 153.443 181.741 153.373 181.742V181.742C153.304 181.742 153.237 181.721 153.18 181.683C153.123 181.645 153.078 181.591 153.051 181.527C152.826 181.032 152.457 180.616 151.992 180.334C151.527 180.052 150.988 179.916 150.445 179.945L75.2689 184.176C74.776 184.205 74.3007 184.37 73.8953 184.651C73.4898 184.933 73.1699 185.321 72.9706 185.773C72.9428 185.835 72.8976 185.888 72.8404 185.924C72.7832 185.961 72.7165 185.981 72.6484 185.98H72.6556ZM150.602 177.432H150.445L75.2689 181.656C74.9139 181.677 74.5665 181.768 74.2466 181.923C73.9267 182.078 73.6406 182.295 73.4045 182.561C73.1685 182.827 72.9872 183.137 72.8709 183.473C72.7547 183.809 72.7059 184.165 72.7272 184.52C72.7272 184.599 72.7272 184.684 72.7272 184.763C73.0261 184.384 73.4021 184.072 73.8304 183.849C74.2586 183.625 74.7294 183.495 75.2116 183.467L150.388 179.243C150.933 179.211 151.478 179.31 151.977 179.533C152.475 179.756 152.913 180.096 153.252 180.525C153.307 180.142 153.279 179.752 153.171 179.381C153.063 179.01 152.876 178.667 152.624 178.375C152.371 178.082 152.059 177.847 151.707 177.686C151.356 177.524 150.975 177.44 150.588 177.439L150.602 177.432Z" fill="#143A56"/>
<path d="M75.2621 197.243L150.438 193.018C151.053 192.983 151.665 193.135 152.191 193.455C152.718 193.775 153.135 194.247 153.388 194.808C153.609 194.331 153.702 193.805 153.658 193.281C153.614 192.757 153.435 192.254 153.137 191.82C152.839 191.387 152.434 191.038 151.961 190.809C151.488 190.58 150.963 190.478 150.438 190.513L75.2621 194.737C74.7685 194.765 74.2892 194.913 73.8655 195.168C73.4419 195.423 73.0865 195.777 72.83 196.2C72.5736 196.622 72.4238 197.101 72.3934 197.595C72.3631 198.088 72.4532 198.582 72.656 199.033C72.8867 198.526 73.2512 198.091 73.7104 197.776C74.1696 197.46 74.706 197.276 75.2621 197.243V197.243Z" fill="#143A56"/>
<path d="M72.6556 199.405C72.5875 199.405 72.5208 199.386 72.4636 199.349C72.4064 199.312 72.3612 199.259 72.3334 199.197C72.0996 198.692 71.9932 198.137 72.0237 197.582C72.0541 197.026 72.2205 196.486 72.5082 196.01C72.7958 195.534 73.196 195.135 73.6736 194.849C74.1512 194.564 74.6916 194.4 75.2474 194.371L150.424 190.147C150.87 190.123 151.316 190.187 151.738 190.336C152.159 190.484 152.547 190.714 152.88 191.013C153.212 191.311 153.482 191.673 153.675 192.076C153.868 192.479 153.98 192.916 154.003 193.362C154.034 193.908 153.931 194.454 153.703 194.951C153.674 195.015 153.628 195.069 153.569 195.107C153.511 195.145 153.443 195.166 153.373 195.166V195.166C153.304 195.166 153.237 195.145 153.18 195.107C153.123 195.069 153.078 195.015 153.051 194.951C152.824 194.459 152.454 194.046 151.989 193.767C151.524 193.487 150.986 193.354 150.445 193.383L75.2689 197.615C74.776 197.644 74.3007 197.808 73.8953 198.09C73.4898 198.372 73.1699 198.76 72.9706 199.211C72.9428 199.274 72.8976 199.326 72.8404 199.363C72.7832 199.4 72.7165 199.419 72.6484 199.419L72.6556 199.405ZM150.602 190.856H150.445L75.2689 195.08C74.9139 195.101 74.5665 195.192 74.2466 195.347C73.9267 195.503 73.6406 195.72 73.4045 195.985C73.1685 196.251 72.9872 196.561 72.8709 196.897C72.7547 197.233 72.7059 197.589 72.7272 197.944C72.7272 198.023 72.7272 198.109 72.7272 198.188C73.0261 197.808 73.4021 197.496 73.8304 197.273C74.2586 197.05 74.7294 196.92 75.2116 196.892L150.388 192.667C150.933 192.635 151.478 192.734 151.977 192.957C152.475 193.181 152.913 193.521 153.252 193.949C153.307 193.567 153.279 193.177 153.171 192.806C153.063 192.435 152.876 192.091 152.624 191.799C152.371 191.506 152.059 191.271 151.707 191.11C151.356 190.949 150.975 190.864 150.588 190.863L150.602 190.856Z" fill="#143A56"/>
<path d="M105.533 140.724H105.497C105.45 140.72 105.404 140.706 105.362 140.684C105.321 140.662 105.284 140.631 105.254 140.595C105.224 140.558 105.201 140.516 105.188 140.471C105.174 140.425 105.17 140.378 105.175 140.331C105.175 140.209 106.285 128.288 106.485 115.387C106.485 115.34 106.494 115.294 106.512 115.251C106.53 115.208 106.557 115.169 106.59 115.136C106.624 115.103 106.663 115.078 106.707 115.06C106.75 115.043 106.796 115.035 106.843 115.036V115.036C106.938 115.036 107.029 115.073 107.096 115.141C107.163 115.208 107.201 115.299 107.201 115.394C107.001 128.324 105.912 140.281 105.912 140.402C105.9 140.493 105.854 140.577 105.784 140.636C105.714 140.696 105.625 140.727 105.533 140.724V140.724Z" fill="#143A56"/>
<path d="M120.676 133.601C120.581 133.601 120.49 133.563 120.423 133.496C120.356 133.429 120.318 133.337 120.318 133.243C120.225 118.802 121.177 96.1986 121.936 78.0346C122.007 76.2662 122.086 74.5336 122.151 72.8582C120.885 73.5341 119.531 74.0282 118.127 74.326C114.171 75.131 110.057 74.472 106.55 72.4716C107.027 79.4833 107.266 88.0462 107.266 98.1604C107.264 98.2547 107.226 98.3447 107.159 98.4115C107.092 98.4782 107.002 98.5165 106.908 98.5183V98.5183C106.86 98.5183 106.813 98.5089 106.769 98.4904C106.725 98.472 106.685 98.445 106.652 98.411C106.619 98.377 106.593 98.3367 106.575 98.2924C106.557 98.2481 106.549 98.2008 106.55 98.1532C106.55 87.8791 106.314 79.1372 105.834 72.0205C103.006 70.2543 100.764 67.691 99.3902 64.6533C95.209 55.3458 93.7484 47.0263 96.0681 45.6946C97.4142 44.9213 99.5334 46.5323 102.361 50.4915C104.366 53.3053 105.769 60.3861 106.557 71.6124C109.987 73.6993 114.076 74.42 118.012 73.6315C119.491 73.3147 120.912 72.7687 122.222 72.0134C122.516 64.9325 122.752 58.854 122.859 54.5367C123.031 47.1623 126.439 41.2556 129.138 41.2556C130.348 41.2556 132.375 42.4369 132.375 50.0978C132.375 60.7942 128.917 68.7558 122.902 72.4358C122.826 74.2544 122.747 76.1302 122.666 78.0633C121.907 96.2201 120.955 118.816 121.048 133.235C121.049 133.283 121.04 133.33 121.023 133.375C121.005 133.419 120.979 133.459 120.946 133.493C120.912 133.527 120.873 133.554 120.829 133.573C120.785 133.591 120.738 133.601 120.69 133.601H120.676ZM129.103 41.9573C127.026 41.9573 123.704 47.3413 123.54 54.5367C123.439 58.7681 123.21 64.6604 122.924 71.548C128.465 67.8823 131.644 60.2573 131.644 50.0691C131.644 45.0001 130.699 41.9644 129.117 41.9429L129.103 41.9573ZM96.7125 46.253C96.5886 46.2505 96.4659 46.2775 96.3545 46.3318C94.672 47.2983 95.746 54.9233 99.9773 64.3741C101.218 67.1196 103.202 69.4632 105.705 71.1399C104.925 60.4005 103.557 53.5559 101.688 50.9211C98.8461 46.8902 97.364 46.2387 96.7125 46.2387V46.253Z" fill="#143A56"/>
<path d="M120.825 142.486C120.733 142.486 120.644 142.45 120.577 142.386C120.51 142.322 120.471 142.234 120.467 142.142C120.467 142.142 120.417 140.338 120.367 137.345C120.367 137.25 120.405 137.159 120.472 137.092C120.539 137.025 120.63 136.987 120.725 136.987C120.818 136.989 120.907 137.026 120.974 137.091C121.04 137.157 121.08 137.245 121.083 137.338C121.133 140.316 121.183 142.121 121.183 142.121C121.184 142.168 121.176 142.214 121.159 142.258C121.142 142.302 121.116 142.342 121.084 142.376C121.051 142.41 121.012 142.437 120.969 142.456C120.926 142.475 120.88 142.485 120.833 142.486H120.825Z" fill="#143A56"/>
<path d="M149.1 119.518C150.427 111.055 153.342 102.92 157.691 95.5399C162.775 86.8052 170.142 79.0728 174.366 69.9371C178.59 60.8014 180.301 50.4701 180.308 40.4466C180.308 38.5851 180.244 36.7451 180.115 34.9265" fill="white"/>
<path d="M149.1 120.234H148.999C148.811 120.207 148.642 120.107 148.528 119.955C148.413 119.803 148.364 119.612 148.391 119.424C149.721 110.868 152.668 102.643 157.075 95.1891C159.311 91.488 161.734 87.9035 164.335 84.4497C167.758 79.7315 171.302 74.8558 173.722 69.6293C177.566 61.3312 179.6 51.2362 179.6 40.4395C179.6 38.6137 179.535 36.7737 179.406 34.9695C179.4 34.8755 179.412 34.7811 179.442 34.6917C179.472 34.6023 179.519 34.5197 179.581 34.4486C179.642 34.3774 179.718 34.3192 179.802 34.2771C179.886 34.235 179.978 34.21 180.072 34.2034C180.166 34.1968 180.261 34.2088 180.35 34.2387C180.439 34.2686 180.522 34.3158 180.593 34.3777C180.664 34.4395 180.723 34.5147 180.765 34.5991C180.807 34.6834 180.832 34.7752 180.838 34.8693C180.974 36.7093 181.039 38.578 181.039 40.4395C181.039 51.4438 178.955 61.7465 175.032 70.2307C172.547 75.5861 168.968 80.5191 165.502 85.2659C162.94 88.6784 160.55 92.2173 158.343 95.8693C154.014 103.178 151.117 111.246 149.808 119.639C149.78 119.806 149.693 119.957 149.563 120.066C149.433 120.175 149.269 120.234 149.1 120.234V120.234Z" fill="#143A56"/>
<path d="M148.354 141.254C148.927 137.911 148.605 134.145 148.476 130.014C148.476 129.298 148.44 128.517 148.476 127.773" fill="white"/>
<path d="M148.354 141.97H148.233C148.139 141.955 148.05 141.921 147.97 141.87C147.89 141.82 147.821 141.754 147.766 141.677C147.712 141.6 147.673 141.513 147.652 141.42C147.631 141.328 147.629 141.233 147.646 141.14C148.104 138.505 147.975 135.526 147.846 132.376C147.846 131.61 147.782 130.837 147.76 130.042C147.739 129.247 147.724 128.524 147.76 127.773C147.76 127.583 147.836 127.401 147.97 127.266C148.104 127.132 148.286 127.057 148.476 127.057C148.666 127.057 148.848 127.132 148.982 127.266C149.117 127.401 149.192 127.583 149.192 127.773C149.192 128.489 149.192 129.255 149.192 129.992C149.192 130.73 149.249 131.553 149.278 132.312C149.518 135.333 149.443 138.37 149.056 141.376C149.028 141.542 148.942 141.692 148.813 141.801C148.685 141.909 148.523 141.969 148.354 141.97V141.97Z" fill="#143A56"/>
</svg>
