<svg width="25" height="23" viewBox="0 0 25 23" fill="none" xmlns="http://www.w3.org/2000/svg">
<path fill-rule="evenodd" clip-rule="evenodd" d="M12.3773 1.40029C6.46192 1.40029 1.67299 6.16479 1.67299 12.0323C1.67299 16.3405 4.25503 20.048 7.97128 21.7156C8.3601 21.8905 8.74013 21.8211 9.03712 21.5984C9.20136 21.4705 9.33376 21.3063 9.42393 21.1187C9.5141 20.931 9.55959 20.7251 9.55685 20.5169V19.9601L8.23115 19.7803C8.22133 19.779 8.21156 19.7774 8.20184 19.7754C7.47109 19.6328 6.97774 19.3759 6.61628 19.0056C6.31245 18.694 6.12683 18.3208 5.96955 18.0043L5.91484 17.8939C5.76947 17.5906 5.61072 17.294 5.43907 17.0048C5.30719 16.7958 5.20461 16.6883 5.10301 16.6209C4.8451 16.45 4.59696 16.1598 4.59696 15.7974C4.59607 15.693 4.61841 15.5898 4.66234 15.4952C4.70627 15.4006 4.7707 15.3169 4.85096 15.2503C5.00244 15.1303 5.19122 15.0674 5.38436 15.0725C5.60124 15.0725 5.80542 15.1389 5.97541 15.2151C6.1493 15.2933 6.32222 15.3968 6.48341 15.5043C6.87614 15.7661 7.26301 16.0758 7.59028 16.4578C7.93123 16.8544 8.17253 17.1064 8.53595 17.1582C8.83489 17.2012 9.1397 17.2022 9.37709 17.1914C9.41008 17.0035 9.46449 16.8199 9.53926 16.6444C9.24932 16.5767 8.9633 16.4932 8.68249 16.3943C8.04358 16.1676 7.33139 15.8149 6.8527 15.2806C6.32711 14.6924 6.00179 14.1678 5.82008 13.5543C5.64325 12.9564 5.61394 12.3087 5.61394 11.5116C5.61394 10.2904 6.14247 9.26167 6.5391 8.71557C6.38671 8.23746 6.27719 7.74673 6.21183 7.24919C6.16854 6.93543 6.16887 6.61719 6.2128 6.30352C6.26165 6.01728 6.38377 5.66558 6.70518 5.45359C7.01487 5.24745 7.37829 5.25625 7.6616 5.309C7.95565 5.36469 8.26143 5.4868 8.54279 5.6265C9.00097 5.85315 9.45622 6.156 9.79717 6.41294C10.3853 6.24002 11.4257 6.01728 12.3665 5.99676H12.388C13.3298 6.01728 14.3233 6.24002 14.8968 6.41196C15.2387 6.156 15.693 5.85218 16.1502 5.6265C16.4315 5.4868 16.7363 5.36469 17.0314 5.309C17.3147 5.25625 17.6781 5.24745 17.9888 5.45261C18.3092 5.66558 18.4323 6.01728 18.4802 6.30352C18.53 6.60148 18.5183 6.93462 18.4802 7.24919C18.4151 7.74669 18.3059 8.23742 18.1539 8.71557C18.5505 9.26265 19.079 10.2914 19.079 11.5116C19.079 12.3087 19.0497 12.9564 18.8739 13.5533C18.6912 14.1688 18.3659 14.6924 17.8403 15.2806C17.3616 15.8149 16.6494 16.1676 16.0105 16.3943C15.6713 16.5135 15.3247 16.6104 14.973 16.6844C15.0931 17.0478 15.1361 17.3419 15.1361 17.5109V20.5296C15.1361 20.9888 15.3501 21.3805 15.6539 21.6091C15.9489 21.8329 16.328 21.9022 16.7168 21.7322C20.4682 20.0793 23.0805 16.362 23.0805 12.0313C23.0805 6.16479 18.2936 1.40029 12.3773 1.40029ZM9.91147 18.1694C9.65747 18.2055 9.9105 18.1694 9.9105 18.1694H9.90757L9.89975 18.1713L9.87142 18.1752C9.72631 18.1923 9.58067 18.2043 9.43473 18.2114C9.08704 18.2295 8.73842 18.2154 8.39332 18.1694C7.62057 18.0599 7.15066 17.5129 6.84683 17.1572L6.81753 17.124C6.71819 17.0088 6.61148 16.9001 6.49807 16.7987C6.59869 16.9843 6.70323 17.1914 6.81557 17.4142L6.82534 17.4337L6.87516 17.5353C7.04613 17.8753 7.15848 18.1019 7.34507 18.2915C7.52678 18.4771 7.81009 18.6568 8.38257 18.7702L10.1352 19.0076C10.2576 19.0241 10.3698 19.0846 10.451 19.1776C10.5323 19.2707 10.5769 19.3901 10.5768 19.5136V20.5169C10.5768 21.2985 10.2104 21.995 9.64868 22.4171C9.35375 22.6424 9.00291 22.783 8.63397 22.8236C8.26504 22.8642 7.89201 22.8034 7.55511 22.6476C3.48911 20.8237 0.654053 16.7626 0.654053 12.0323C0.654053 5.59231 5.90702 0.379395 12.3773 0.379395C18.8475 0.379395 24.1005 5.59231 24.1005 12.0323C24.1005 16.787 21.2292 20.8589 17.1281 22.6672C16.7909 22.82 16.4185 22.8782 16.0508 22.8357C15.6831 22.7932 15.3338 22.6516 15.0404 22.4259C14.7502 22.2025 14.5158 21.915 14.3555 21.5858C14.1951 21.2566 14.1132 20.8948 14.1162 20.5286V17.5099C14.1162 17.4415 14.0683 17.0469 13.8016 16.5164C13.7648 16.4428 13.7463 16.3615 13.7476 16.2792C13.7488 16.197 13.7699 16.1163 13.809 16.0439C13.8482 15.9715 13.9041 15.9097 13.9722 15.8635C14.0403 15.8174 14.1185 15.7883 14.2002 15.7788C14.7011 15.716 15.1937 15.5994 15.6695 15.431C16.2498 15.2259 16.7705 14.9445 17.0802 14.5987C17.5403 14.0848 17.7699 13.6901 17.896 13.2632C18.0269 12.8206 18.0601 12.3058 18.0601 11.5116C18.0601 10.3969 17.4739 9.45999 17.2043 9.15812C17.1431 9.0899 17.1013 9.00646 17.0835 8.91657C17.0656 8.82668 17.0722 8.73363 17.1027 8.64718C17.2763 8.15497 17.3991 7.64627 17.469 7.12903C17.5003 6.86037 17.5022 6.63568 17.4749 6.47351C17.4688 6.41421 17.4508 6.35675 17.4221 6.3045C17.3549 6.29286 17.2859 6.29586 17.2199 6.31329C17.0538 6.34455 16.8418 6.42271 16.6015 6.54189C16.1228 6.77831 15.6246 7.12805 15.3159 7.37815C15.2478 7.43338 15.1666 7.47006 15.0801 7.48461C14.9937 7.49916 14.9049 7.49109 14.8225 7.46119C14.0315 7.20244 13.2088 7.05353 12.3773 7.01863C11.3935 7.04208 10.2583 7.32148 9.87044 7.46119C9.78803 7.49109 9.69929 7.49916 9.61284 7.48461C9.52639 7.47006 9.44517 7.43338 9.37709 7.37815C8.97786 7.05673 8.54711 6.77655 8.09145 6.54189C7.89578 6.43914 7.68757 6.36229 7.47207 6.31329C7.40639 6.296 7.33776 6.293 7.27082 6.3045C7.24211 6.35674 7.22417 6.41421 7.21807 6.47351C7.19071 6.63568 7.19267 6.86037 7.22393 7.12903C7.29433 7.64618 7.41708 8.15484 7.59028 8.64718C7.65183 8.82303 7.61373 9.01842 7.48868 9.15812C7.21905 9.45999 6.63289 10.3969 6.63289 11.5116C6.63289 12.3048 6.6661 12.8206 6.79701 13.2632C6.92401 13.6901 7.15261 14.0838 7.61177 14.5987C7.92244 14.9445 8.44217 15.2259 9.02344 15.431C9.49899 15.5993 9.99127 15.7159 10.4918 15.7788C10.5947 15.7898 10.6919 15.832 10.7704 15.8996C10.8488 15.9672 10.9048 16.0571 10.9309 16.1574C10.957 16.2576 10.9519 16.3634 10.9164 16.4607C10.8809 16.558 10.8166 16.6421 10.7321 16.702C10.5709 16.8173 10.4644 17.0244 10.4048 17.2637C10.3741 17.387 10.3557 17.513 10.3501 17.6399V17.6584C10.3514 17.7823 10.3076 17.9024 10.2269 17.9964C10.1462 18.0904 10.0341 18.1518 9.91147 18.1694Z" fill="#1F1F1F"/>
</svg>
