<svg width="18" height="22" viewBox="0 0 18 22" fill="none" xmlns="http://www.w3.org/2000/svg">
<path d="M9.42213 1.93388C9.63563 1.35138 10.2896 0.748882 11.1136 0.993382C11.9391 1.23788 12.4766 1.82738 12.7956 2.54188C13.1071 3.23988 13.2241 4.07938 13.2306 4.92388C13.2421 6.28388 12.9681 7.77888 12.6106 8.99888H15.1306C16.8621 8.99888 18.1191 10.6449 17.6636 12.3149L15.9966 18.4239C15.6803 19.5831 14.9252 20.5737 13.8912 21.1859C12.8573 21.7981 11.6257 21.9839 10.4571 21.7039L3.42213 20.0189C2.79316 19.8681 2.21598 19.5519 1.75045 19.1029C1.28492 18.6539 0.947996 18.0885 0.774629 17.4654L0.157629 15.2489C-0.221871 13.8854 0.552629 12.5404 1.76013 11.9864C4.92213 10.5354 6.61363 8.42288 7.93863 5.72338C8.35863 4.86838 8.66613 4.01888 9.08313 2.86588C9.18813 2.57588 9.29963 2.26688 9.42213 1.93388ZM10.7136 2.20588C10.6588 2.24519 10.6176 2.30058 10.5956 2.36438C10.4801 2.67938 10.3721 2.97688 10.2696 3.26088C9.84963 4.42338 9.51363 5.35188 9.06113 6.27438C7.64563 9.15738 5.77213 11.5209 2.28113 13.1224C1.55113 13.4574 1.17013 14.2239 1.36213 14.9134L1.97863 17.1299C2.09225 17.5382 2.31305 17.9086 2.61814 18.2028C2.92322 18.497 3.30147 18.7042 3.71363 18.8029L10.7486 20.4879C11.6013 20.6921 12.5 20.5565 13.2544 20.1097C14.0088 19.663 14.5598 18.9402 14.7906 18.0944L16.4576 11.9859C16.5133 11.7819 16.5212 11.5678 16.4806 11.3603C16.4401 11.1528 16.3523 10.9574 16.2239 10.7893C16.0956 10.6213 15.9302 10.4851 15.7407 10.3914C15.5512 10.2976 15.3426 10.2489 15.1311 10.2489H11.7501C11.6497 10.2489 11.5507 10.2247 11.4616 10.1783C11.3724 10.132 11.2958 10.0648 11.2382 9.98252C11.1805 9.90025 11.1436 9.80529 11.1304 9.70569C11.1173 9.6061 11.1283 9.5048 11.1626 9.41038C11.6046 8.19438 11.9936 6.44288 11.9811 4.93388C11.9751 4.17838 11.8681 3.53088 11.6541 3.05138C11.4471 2.58838 11.1561 2.30938 10.7586 2.19138C10.7521 2.18988 10.7501 2.18988 10.7476 2.19038C10.7354 2.19316 10.7239 2.19825 10.7136 2.20538V2.20588Z" fill="#1F1F1F"/>
</svg>
