<svg width="18" height="18" viewBox="0 0 18 18" fill="none" xmlns="http://www.w3.org/2000/svg">
    <svg x="33.33%" y="20.83%" width="6" height="7" viewBox="0 0 6 7" fill="none" xmlns="http://www.w3.org/2000/svg">
    <path fill-rule="evenodd" clip-rule="evenodd" d="M6 3.75C6 4.54565 5.68393 5.30871 5.12132 5.87132C4.55871 6.43393 3.79565 6.75 3 6.75C2.20435 6.75 1.44129 6.43393 0.87868 5.87132C0.31607 5.30871 0 4.54565 0 3.75C0 2.95435 0.31607 2.19129 0.87868 1.62868C1.44129 1.06607 2.20435 0.75 3 0.75C3.79565 0.75 4.55871 1.06607 5.12132 1.62868C5.68393 2.19129 6 2.95435 6 3.75ZM4.5 3.75C4.5 4.14782 4.34196 4.52936 4.06066 4.81066C3.77936 5.09196 3.39782 5.25 3 5.25C2.60218 5.25 2.22064 5.09196 1.93934 4.81066C1.65804 4.52936 1.5 4.14782 1.5 3.75C1.5 3.35218 1.65804 2.97064 1.93934 2.68934C2.22064 2.40804 2.60218 2.25 3 2.25C3.39782 2.25 3.77936 2.40804 4.06066 2.68934C4.34196 2.97064 4.5 3.35218 4.5 3.75Z" fill="#808080"/>
    </svg>
<path fill-rule="evenodd" clip-rule="evenodd" d="M9 0.75C4.44375 0.75 0.75 4.44375 0.75 9C0.75 13.5562 4.44375 17.25 9 17.25C13.5562 17.25 17.25 13.5562 17.25 9C17.25 4.44375 13.5562 0.75 9 0.75ZM2.25 9C2.25 10.5675 2.78475 12.0105 3.681 13.1565C4.31042 12.3299 5.12243 11.6601 6.05357 11.1992C6.98472 10.7384 8.00981 10.4991 9.04875 10.5C10.0742 10.499 11.0864 10.7321 12.0082 11.1816C12.93 11.631 13.737 12.2849 14.3678 13.0935C15.0176 12.2412 15.4551 11.2464 15.6442 10.1914C15.8332 9.13647 15.7683 8.05165 15.4549 7.02674C15.1414 6.00183 14.5884 5.06629 13.8416 4.29753C13.0948 3.52877 12.1757 2.94889 11.1603 2.60588C10.1449 2.26287 9.0624 2.16658 8.00239 2.32498C6.94239 2.48338 5.93534 2.89192 5.06458 3.51679C4.19381 4.14166 3.48436 4.9649 2.99492 5.9184C2.50549 6.87189 2.25014 7.92823 2.25 9ZM9 15.75C7.45046 15.7523 5.9477 15.2193 4.746 14.241C5.2297 13.5486 5.8735 12.9832 6.62264 12.593C7.37179 12.2028 8.20409 11.9994 9.04875 12C9.88287 11.9993 10.7051 12.1977 11.4472 12.5786C12.1893 12.9595 12.8298 13.5119 13.3155 14.19C12.1045 15.2 10.5769 15.7522 9 15.75Z" fill="#808080"/>
</svg>
