<svg width="16" height="17" viewBox="0 0 16 17" fill="none" xmlns="http://www.w3.org/2000/svg">
<path d="M15.84 6.70001H14.865C14.917 6.96434 14.9537 7.23145 14.975 7.50001H7.74499L3.14999 13.035C2.02474 11.9426 1.29891 10.504 1.08891 8.94982C0.87891 7.39566 1.19689 5.816 1.99187 4.46413C2.78685 3.11227 4.01276 2.06652 5.47304 1.49458C6.93332 0.922643 8.54336 0.857645 10.045 1.31001L10.545 0.43001C8.93963 -0.108677 7.20475 -0.12408 5.59008 0.386018C3.97541 0.896115 2.56424 1.9054 1.55972 3.26859C0.555191 4.63178 0.00912012 6.27855 0.000113235 7.97185C-0.00889365 9.66515 0.519628 11.3176 1.5096 12.6914C2.49956 14.0652 3.89992 15.0895 5.50907 15.6167C7.11822 16.144 8.85316 16.147 10.4642 15.6254C12.0752 15.1039 13.4791 14.0846 14.4739 12.7143C15.4687 11.344 16.003 9.69333 16 8.00001C15.9974 7.5626 15.9589 7.12613 15.885 6.69501L15.84 6.70001ZM7.99999 15C6.53435 14.9993 5.10641 14.5355 3.91999 13.675L8.21499 8.50001H14.975C14.8486 10.2642 14.0591 11.9152 12.7652 13.1211C11.4712 14.3269 9.76872 14.9982 7.99999 15Z" fill="#1F1F1F" fill-opacity="0.6"/>
</svg>
