<svg width="6" height="7" viewBox="0 0 6 7" fill="none" xmlns="http://www.w3.org/2000/svg">
<path fill-rule="evenodd" clip-rule="evenodd" d="M6 3.75C6 4.54565 5.68393 5.30871 5.12132 5.87132C4.55871 6.43393 3.79565 6.75 3 6.75C2.20435 6.75 1.44129 6.43393 0.87868 5.87132C0.31607 5.30871 0 4.54565 0 3.75C0 2.95435 0.31607 2.19129 0.87868 1.62868C1.44129 1.06607 2.20435 0.75 3 0.75C3.79565 0.75 4.55871 1.06607 5.12132 1.62868C5.68393 2.19129 6 2.95435 6 3.75ZM4.5 3.75C4.5 4.14782 4.34196 4.52936 4.06066 4.81066C3.77936 5.09196 3.39782 5.25 3 5.25C2.60218 5.25 2.22064 5.09196 1.93934 4.81066C1.65804 4.52936 1.5 4.14782 1.5 3.75C1.5 3.35218 1.65804 2.97064 1.93934 2.68934C2.22064 2.40804 2.60218 2.25 3 2.25C3.39782 2.25 3.77936 2.40804 4.06066 2.68934C4.34196 2.97064 4.5 3.35218 4.5 3.75Z" fill="#808080"/>
</svg>
