<svg width="16" height="14" viewBox="0 0 16 14" fill="none" xmlns="http://www.w3.org/2000/svg">
<path d="M8.75 10V10.75C8.75 11.3467 8.51295 11.919 8.09099 12.341C7.66903 12.7629 7.09674 13 6.5 13H3.5C2.90326 13 2.33097 12.7629 1.90901 12.341C1.48705 11.919 1.25 11.3467 1.25 10.75V3.25C1.25 2.65326 1.48705 2.08097 1.90901 1.65901C2.33097 1.23705 2.90326 1 3.5 1H6.5C7.09674 1 7.66903 1.23705 8.09099 1.65901C8.51295 2.08097 8.75 2.65326 8.75 3.25V4M11.75 10L14.75 7L11.75 10ZM14.75 7L11.75 4L14.75 7ZM14.75 7H4.25H14.75Z" stroke="#FF4040" stroke-width="1.5" stroke-linecap="round" stroke-linejoin="round"/>
</svg>
