<svg xmlns="http://www.w3.org/2000/svg" height="800" width="1200" xml:space="preserve" y="0" x="0" id="Layer_1" version="1.1" viewBox="-18.42 -30.7 159.64 184.2"><style id="style166" type="text/css">.st0{fill:#e01e5a}.st1{fill:#36c5f0}.st2{fill:#2eb67d}.st3{fill:#ecb22e}</style><g transform="translate(-73.6 -73.6)" id="g192"><g id="g172"><path id="path168" d="M99.4 151.2c0 7.1-5.8 12.9-12.9 12.9-7.1 0-12.9-5.8-12.9-12.9 0-7.1 5.8-12.9 12.9-12.9h12.9z" class="st0"/><path id="path170" d="M105.9 151.2c0-7.1 5.8-12.9 12.9-12.9 7.1 0 12.9 5.8 12.9 12.9v32.3c0 7.1-5.8 12.9-12.9 12.9-7.1 0-12.9-5.8-12.9-12.9z" class="st0"/></g><g id="g178"><path id="path174" d="M118.8 99.4c-7.1 0-12.9-5.8-12.9-12.9 0-7.1 5.8-12.9 12.9-12.9 7.1 0 12.9 5.8 12.9 12.9v12.9z" class="st1"/><path id="path176" d="M118.8 105.9c7.1 0 12.9 5.8 12.9 12.9 0 7.1-5.8 12.9-12.9 12.9H86.5c-7.1 0-12.9-5.8-12.9-12.9 0-7.1 5.8-12.9 12.9-12.9z" class="st1"/></g><g id="g184"><path id="path180" d="M170.6 118.8c0-7.1 5.8-12.9 12.9-12.9 7.1 0 12.9 5.8 12.9 12.9 0 7.1-5.8 12.9-12.9 12.9h-12.9z" class="st2"/><path id="path182" d="M164.1 118.8c0 7.1-5.8 12.9-12.9 12.9-7.1 0-12.9-5.8-12.9-12.9V86.5c0-7.1 5.8-12.9 12.9-12.9 7.1 0 12.9 5.8 12.9 12.9z" class="st2"/></g><g id="g190"><path id="path186" d="M151.2 170.6c7.1 0 12.9 5.8 12.9 12.9 0 7.1-5.8 12.9-12.9 12.9-7.1 0-12.9-5.8-12.9-12.9v-12.9z" class="st3"/><path id="path188" d="M151.2 164.1c-7.1 0-12.9-5.8-12.9-12.9 0-7.1 5.8-12.9 12.9-12.9h32.3c7.1 0 12.9 5.8 12.9 12.9 0 7.1-5.8 12.9-12.9 12.9z" class="st3"/></g></g></svg>