<svg width="23" height="18" viewBox="0 0 23 18" fill="none" xmlns="http://www.w3.org/2000/svg">
<path d="M22.3412 2.19187C21.5156 2.55762 20.6399 2.7977 19.7432 2.90412C20.6772 2.34431 21.3943 1.45783 21.732 0.401605C20.8441 0.928501 19.8727 1.29973 18.8597 1.49926C18.0345 0.620188 16.859 0.0708008 15.5579 0.0708008C13.0598 0.0708008 11.0344 2.0961 11.0344 4.59405C11.0344 4.94863 11.0745 5.29382 11.1516 5.62496C7.39222 5.43626 4.05921 3.63549 1.82816 0.898801C1.43888 1.56687 1.21581 2.34397 1.21581 3.17283C1.21581 4.74219 2.01445 6.12664 3.22811 6.93784C2.50979 6.91535 1.80727 6.72134 1.17921 6.37201C1.17895 6.39095 1.17895 6.4099 1.17895 6.42894C1.17895 8.62054 2.73815 10.4488 4.80737 10.8643C4.14128 11.0455 3.44259 11.072 2.76467 10.9419C3.34024 12.7389 5.0108 14.0466 6.99011 14.0832C5.44202 15.2964 3.49156 16.0196 1.37239 16.0196C1.00722 16.0196 0.64722 15.9981 0.293335 15.9564C2.29512 17.2398 4.67276 17.9886 7.22721 17.9886C15.5474 17.9886 20.0971 11.096 20.0971 5.11864C20.0971 4.92245 20.0928 4.72738 20.084 4.53342C20.9696 3.89325 21.7339 3.10033 22.3412 2.19187" fill="#55ACEE"/>
</svg>
