<svg width="175" height="43" viewBox="0 0 175 43" fill="none" xmlns="http://www.w3.org/2000/svg">
<path d="M38.6103 31.2513L46.3143 9.96662H50.6478L58.3518 31.2513H54.259L52.5738 26.3254H44.3582L42.6428 31.2513H38.6103ZM45.4115 23.2847H51.5205L48.4509 14.4364L45.4115 23.2847Z" fill="#1F1F1F"/>
<path d="M65.7068 31.6162C63.841 31.6162 62.3965 31.0283 61.3734 29.8526C60.3702 28.6769 59.8687 26.9538 59.8687 24.6834V16.1696H63.6906V24.3186C63.6906 25.6159 63.9514 26.6092 64.473 27.2984C64.9946 27.9876 65.8172 28.3322 66.9407 28.3322C68.004 28.3322 68.8767 27.9471 69.5589 27.1768C70.261 26.4065 70.6121 25.3321 70.6121 23.9537V16.1696H74.4641V31.2513H71.0635L70.7626 28.6971C70.3012 29.589 69.6291 30.2985 68.7463 30.8256C67.8836 31.3526 66.8705 31.6162 65.7068 31.6162Z" fill="#1F1F1F"/>
<path d="M84.4973 31.2513C82.9325 31.2513 81.6786 30.8661 80.7356 30.0958C79.7927 29.3255 79.3212 27.9572 79.3212 25.9909V19.4231H76.7632V16.1696H79.3212L79.7726 12.1255H83.1732V16.1696H87.2058V19.4231H83.1732V26.0213C83.1732 26.7511 83.3237 27.2579 83.6246 27.5417C83.9456 27.8052 84.4873 27.937 85.2497 27.937H87.1155V31.2513H84.4973Z" fill="#1F1F1F"/>
<path d="M89.9412 31.2513V9.35849H93.7932V18.4805C94.2948 17.6494 94.9669 17.0007 95.8095 16.5345C96.6722 16.048 97.6553 15.8047 98.7587 15.8047C100.604 15.8047 102.029 16.3926 103.032 17.5683C104.055 18.744 104.567 20.4671 104.567 22.7374V31.2513H100.745V23.1023C100.745 21.8049 100.484 20.8117 99.9625 20.1224C99.4609 19.4332 98.6584 19.0886 97.555 19.0886C96.4716 19.0886 95.5688 19.4738 94.8465 20.2441C94.1443 21.0144 93.7932 22.0887 93.7932 23.4672V31.2513H89.9412Z" fill="#1F1F1F"/>
<path d="M107.347 24.0753V20.8218H119.957V24.0753H107.347Z" fill="#1F1F1F"/>
<path d="M125.895 31.2513L121.532 16.1696H125.354L127.942 27.0248L130.951 16.1696H135.225L138.234 27.0248L140.852 16.1696H144.674L140.28 31.2513H136.278L133.088 19.9704L129.898 31.2513H125.895Z" fill="#1F1F1F"/>
<path d="M148.609 13.8283C147.907 13.8283 147.325 13.6154 146.864 13.1897C146.422 12.764 146.201 12.2269 146.201 11.5782C146.201 10.9295 146.422 10.4025 146.864 9.99703C147.325 9.57134 147.907 9.35849 148.609 9.35849C149.311 9.35849 149.883 9.57134 150.324 9.99703C150.786 10.4025 151.016 10.9295 151.016 11.5782C151.016 12.2269 150.786 12.764 150.324 13.1897C149.883 13.6154 149.311 13.8283 148.609 13.8283ZM146.683 31.2513V16.1696H150.535V31.2513H146.683Z" fill="#1F1F1F"/>
<path d="M153.984 31.2513V9.35849H157.836V22.2813L163.132 16.1696H167.706L161.597 23.0415L168.7 31.2513H163.885L157.836 23.68V31.2513H153.984Z" fill="#1F1F1F"/>
<path d="M172.592 13.8283C171.89 13.8283 171.309 13.6154 170.847 13.1897C170.406 12.764 170.185 12.2269 170.185 11.5782C170.185 10.9295 170.406 10.4025 170.847 9.99703C171.309 9.57134 171.89 9.35849 172.592 9.35849C173.295 9.35849 173.866 9.57134 174.308 9.99703C174.769 10.4025 175 10.9295 175 11.5782C175 12.2269 174.769 12.764 174.308 13.1897C173.866 13.6154 173.295 13.8283 172.592 13.8283ZM170.666 31.2513V16.1696H174.519V31.2513H170.666Z" fill="#1F1F1F"/>
<path d="M12.7648 21.6141C12.7648 22.4397 13.0072 23.2467 13.4614 23.9331C13.9154 24.6194 14.561 25.1542 15.316 25.4697C16.0711 25.7853 16.9017 25.8674 17.7031 25.7058C18.5043 25.544 19.2401 25.1459 19.8173 24.5615C20.3945 23.9771 20.7872 23.2329 20.9455 22.4229C21.1039 21.613 21.021 20.7737 20.7071 20.0115C20.3933 19.2492 19.8627 18.5981 19.1825 18.1407C18.5023 17.6832 17.7031 17.44 16.8859 17.4416C15.7922 17.4439 14.744 17.8844 13.9714 18.6667C13.1987 19.4489 12.7648 20.5089 12.7648 21.6141Z" fill="#1F1F1F"/>
<path d="M16.8857 34.655C16.069 34.655 15.2706 34.8997 14.5915 35.3582C13.9124 35.8167 13.3831 36.4684 13.0706 37.2307C12.758 37.9932 12.6762 38.8322 12.8356 39.6416C12.9949 40.4509 13.3882 41.1943 13.9657 41.7779C14.5432 42.3614 15.279 42.7588 16.0801 42.9198C16.8812 43.0808 17.7114 42.9982 18.466 42.6824C19.2206 42.3666 19.8656 41.8318 20.3193 41.1456C20.7731 40.4594 21.0152 39.6527 21.0152 38.8275C21.0152 37.7209 20.5802 36.6596 19.8057 35.8771C19.0313 35.0947 17.9809 34.655 16.8857 34.655Z" fill="#1F1F1F"/>
<path d="M29.5587 17.4416C28.7419 17.4416 27.9435 17.6863 27.2645 18.1448C26.5853 18.6033 26.056 19.2549 25.7435 20.0174C25.4309 20.7797 25.3492 21.6187 25.5085 22.4281C25.6678 23.2374 26.0611 23.981 26.6387 24.5644C27.2161 25.148 27.952 25.5454 28.753 25.7064C29.5541 25.8673 30.3844 25.7847 31.1389 25.4689C31.8935 25.1531 32.5385 24.6183 32.9922 23.9321C33.446 23.246 33.6882 22.4393 33.6882 21.614C33.6882 20.5075 33.2531 19.4461 32.4787 18.6637C31.7042 17.8812 30.6538 17.4416 29.5587 17.4416Z" fill="#1F1F1F"/>
<path d="M16.8859 8.34493C17.7031 8.34662 18.5023 8.10328 19.1825 7.64583C19.8627 7.18838 20.3933 6.53734 20.7071 5.77506C21.021 5.01279 21.1039 4.17356 20.9455 3.36365C20.7872 2.55373 20.3945 1.80945 19.8173 1.22505C19.2401 0.640735 18.5043 0.24249 17.7031 0.0808282C16.9017 -0.0809183 16.0711 0.00126401 15.316 0.316817C14.561 0.632371 13.9154 1.16711 13.4614 1.85345C13.0072 2.5398 12.7648 3.34684 12.7648 4.17246C12.7648 5.27758 13.1987 6.33759 13.9714 7.11988C14.744 7.90209 15.7922 8.34265 16.8859 8.34493Z" fill="#1F1F1F"/>
<path d="M8.25899 21.1326C8.25899 20.3073 8.01682 19.5006 7.56307 18.8144C7.10933 18.1284 6.4644 17.5935 5.7098 17.2777C4.9552 16.9619 4.12495 16.8793 3.32387 17.0403C2.52279 17.2013 1.787 17.5987 1.20945 18.1822C0.631989 18.7657 0.238678 19.5092 0.0793489 20.3186C-0.0799806 21.128 0.00177499 21.9669 0.314332 22.7293C0.626889 23.4918 1.1562 24.1434 1.83524 24.6019C2.51435 25.0603 3.31275 25.3051 4.12946 25.3051C5.22471 25.3051 6.27506 24.8655 7.04956 24.083C7.82397 23.3004 8.25899 22.2392 8.25899 21.1326Z" fill="#1F1F1F"/>
<path d="M26.2818 27.2984C24.8046 25.7967 23.9754 23.7652 23.9754 21.6478C23.9754 19.5304 24.8046 17.499 26.2818 15.9973C26.8578 15.413 27.2494 14.6696 27.4075 13.8607C27.5655 13.0517 27.4827 12.2137 27.1697 11.4522C26.8567 10.6907 26.3274 10.04 25.6486 9.58231C24.9699 9.12452 24.1722 8.88026 23.3561 8.88026C22.54 8.88026 21.7423 9.12452 21.0636 9.58231C20.3848 10.04 19.8555 10.6907 19.5425 11.4522C19.2295 12.2137 19.1467 13.0517 19.3047 13.8607C19.4628 14.6696 19.8544 15.413 20.4303 15.9973C21.1723 16.7401 21.7614 17.6243 22.1634 18.5985C22.5653 19.5727 22.7723 20.6177 22.7723 21.6732C22.7723 22.7286 22.5653 23.7737 22.1634 24.7479C21.7614 25.7221 21.1723 26.6061 20.4303 27.3491C19.8544 27.9332 19.4628 28.6768 19.3047 29.4857C19.1467 30.2946 19.2295 31.1327 19.5425 31.8942C19.8555 32.6556 20.3848 33.3063 21.0636 33.764C21.7423 34.2218 22.54 34.4661 23.3561 34.4661C24.1722 34.4661 24.9699 34.2218 25.6486 33.764C26.3274 33.3063 26.8567 32.6556 27.1697 31.8942C27.4827 31.1327 27.5655 30.2946 27.4075 29.4857C27.2494 28.6768 26.8578 27.9332 26.2818 27.3491V27.2984Z" fill="#1F1F1F"/>
<path d="M14.3947 29.7309C14.3903 28.6355 13.9646 27.5845 13.2077 26.8001C11.7304 25.2983 10.9012 23.2669 10.9012 21.1495C10.9012 19.0321 11.7304 17.0008 13.2077 15.4989C13.7836 14.9148 14.1753 14.1713 14.3333 13.3624C14.4913 12.5535 14.4086 11.7153 14.0955 10.9539C13.7825 10.1924 13.2532 9.54177 12.5744 9.08398C11.8957 8.62628 11.0979 8.38193 10.2819 8.38193C9.46585 8.38193 8.66811 8.62628 7.98933 9.08398C7.31063 9.54177 6.78132 10.1924 6.46826 10.9539C6.15529 11.7153 6.07253 12.5535 6.23052 13.3624C6.38859 14.1713 6.78023 14.9148 7.35611 15.4989C8.09692 16.2417 8.68491 17.1253 9.08616 18.0987C9.48741 19.0721 9.69397 20.1162 9.69397 21.1706C9.69397 22.2251 9.48741 23.2692 9.08616 24.2426C8.68491 25.2161 8.09692 26.0996 7.35611 26.8423C6.88071 27.3302 6.53137 27.9288 6.33902 28.5853C6.14667 29.2417 6.11708 29.9359 6.253 30.6067C6.38893 31.2775 6.6861 31.9041 7.11837 32.4314C7.55063 32.9587 8.1046 33.3704 8.73156 33.6302C9.35851 33.89 10.039 33.99 10.7132 33.9212C11.3874 33.8525 12.0345 33.6172 12.5974 33.236C13.1604 32.8549 13.6218 32.3397 13.941 31.7358C14.2604 31.1318 14.4276 30.4578 14.4281 29.7732L14.3947 29.7309Z" fill="#1F1F1F"/>
</svg>
