<svg width="64" height="64" viewBox="0 0 64 64" fill="none" xmlns="http://www.w3.org/2000/svg">
<path d="M32.2725 19.75C29.2835 19.75 26.613 21.115 24.849 23.25C23.7604 24.5692 23.0431 26.1546 22.7707 27.843C22.4984 29.5315 22.6808 31.262 23.2993 32.8565C23.9178 34.4511 24.95 35.852 26.2897 36.9152C27.6293 37.9784 29.2281 38.6654 30.9215 38.9055C33.2232 34.4653 37.158 31.0913 41.8975 29.494V29.375C41.8975 27.0475 41.0715 24.9125 39.696 23.25C37.932 21.115 35.2615 19.75 32.2725 19.75ZM62.642 35.227C60.5459 32.774 57.8658 30.8886 54.8488 29.7447C51.8319 28.6008 48.5754 28.2353 45.38 28.682C45.2832 26.7841 44.7731 24.9303 43.8855 23.25H58.5225C59.9148 23.25 61.2502 23.8031 62.2348 24.7877C63.2193 25.7723 63.7725 27.1076 63.7725 28.5V30.25C63.7725 31.93 63.3875 33.624 62.642 35.227ZM29.497 42.5C29.0146 44.2082 28.7708 45.975 28.7725 47.75C28.7725 54.0395 31.786 59.622 36.4515 63.1325C35.0723 63.3802 33.6737 63.5032 32.2725 63.5C21.2825 63.5 14.7725 56.3985 14.7725 49.5V47.75C14.7706 47.06 14.9051 46.3765 15.1683 45.7387C15.4315 45.1009 15.8182 44.5214 16.306 44.0336C16.7939 43.5457 17.3734 43.159 18.0112 42.8959C18.649 42.6327 19.3325 42.4981 20.0225 42.5H29.497ZM12.375 43.494C4.98996 41.4955 0.772461 35.8045 0.772461 30.25V28.5C0.772461 27.1076 1.32558 25.7723 2.31015 24.7877C3.29472 23.8031 4.63007 23.25 6.02246 23.25H20.663C19.6651 25.1372 19.1448 27.2402 19.1475 29.375C19.1451 31.1824 19.5171 32.9706 20.2399 34.6271C20.9628 36.2837 22.0208 37.7725 23.3475 39H20.0225C18.4629 38.9996 16.9316 39.416 15.587 40.2061C14.2425 40.9962 13.1335 42.1314 12.375 43.494ZM18.2725 0.5C20.8252 0.5 23.2733 1.51406 25.0784 3.3191C26.8834 5.12413 27.8975 7.57229 27.8975 10.125C27.8975 12.6777 26.8834 15.1259 25.0784 16.9309C23.2733 18.7359 20.8252 19.75 18.2725 19.75C15.7198 19.75 13.2716 18.7359 11.4666 16.9309C9.66152 15.1259 8.64746 12.6777 8.64746 10.125C8.64746 7.57229 9.66152 5.12413 11.4666 3.3191C13.2716 1.51406 15.7198 0.5 18.2725 0.5ZM46.2725 0.5C48.8252 0.5 51.2733 1.51406 53.0784 3.3191C54.8834 5.12413 55.8975 7.57229 55.8975 10.125C55.8975 12.6777 54.8834 15.1259 53.0784 16.9309C51.2733 18.7359 48.8252 19.75 46.2725 19.75C43.7198 19.75 41.2716 18.7359 39.4666 16.9309C37.6615 15.1259 36.6475 12.6777 36.6475 10.125C36.6475 7.57229 37.6615 5.12413 39.4666 3.3191C41.2716 1.51406 43.7198 0.5 46.2725 0.5ZM48.0225 63.5C52.1996 63.5 56.2057 61.8406 59.1594 58.8869C62.1131 55.9332 63.7725 51.9272 63.7725 47.75C63.7725 43.5728 62.1131 39.5668 59.1594 36.6131C56.2057 33.6594 52.1996 32 48.0225 32C43.8453 32 39.8392 33.6594 36.8855 36.6131C33.9318 39.5668 32.2725 43.5728 32.2725 47.75C32.2725 51.9272 33.9318 55.9332 36.8855 58.8869C39.8392 61.8406 43.8453 63.5 48.0225 63.5ZM48.0225 39C48.4866 39 48.9317 39.1844 49.2599 39.5126C49.5881 39.8407 49.7725 40.2859 49.7725 40.75V46H55.0225C55.4866 46 55.9317 46.1844 56.2599 46.5126C56.5881 46.8407 56.7725 47.2859 56.7725 47.75C56.7725 48.2141 56.5881 48.6592 56.2599 48.9874C55.9317 49.3156 55.4866 49.5 55.0225 49.5H49.7725V54.75C49.7725 55.2141 49.5881 55.6592 49.2599 55.9874C48.9317 56.3156 48.4866 56.5 48.0225 56.5C47.5583 56.5 47.1132 56.3156 46.785 55.9874C46.4568 55.6592 46.2725 55.2141 46.2725 54.75V49.5H41.0225C40.5583 49.5 40.1132 49.3156 39.785 48.9874C39.4568 48.6592 39.2725 48.2141 39.2725 47.75C39.2725 47.2859 39.4568 46.8407 39.785 46.5126C40.1132 46.1844 40.5583 46 41.0225 46H46.2725V40.75C46.2725 40.2859 46.4568 39.8407 46.785 39.5126C47.1132 39.1844 47.5583 39 48.0225 39Z" fill="#143A56"/>
</svg>
