<svg width="52" height="49" viewBox="0 0 58 49" fill="none" xmlns="http://www.w3.org/2000/svg">
    <path d="M19.5565 36.0992L29.0056 45.5483M29.0056 45.5483L38.4546 36.0992M29.0056 45.5483V24.288M49.9828 38.6739C52.0365 37.2298 53.5766 35.1687 54.3796 32.7899C55.1826 30.4111 55.2067 27.8383 54.4484 25.4449C53.6901 23.0515 52.1888 20.962 50.1625 19.4796C48.1362 17.9972 45.6902 17.1991 43.1795 17.201H40.2031C39.4926 14.4322 38.1632 11.8606 36.3151 9.67982C34.4669 7.49907 32.1481 5.76599 29.5332 4.61107C26.9184 3.45615 24.0756 2.90948 21.2189 3.01221C18.3621 3.11494 15.566 3.8644 13.0408 5.20417C10.5157 6.54393 8.32733 8.43909 6.6406 10.747C4.95386 13.0548 3.81266 15.7153 3.3029 18.528C2.79315 21.3408 2.92813 24.2325 3.69768 26.9856C4.46723 29.7386 5.8513 32.2812 7.74569 34.4219" stroke="#181818" stroke-width="5" stroke-linecap="round" stroke-linejoin="round"/>
</svg>
