<svg width="52" height="52" viewBox="0 0 52 52" fill="none" xmlns="http://www.w3.org/2000/svg">
    <path d="M23.0383 0C35.7554 0 46.0766 10.3212 46.0766 23.0383C46.0766 35.7554 35.7554 46.0766 23.0383 46.0766C10.3212 46.0766 0 35.7554 0 23.0383C0 10.3212 10.3212 0 23.0383 0ZM23.0383 40.957C32.9371 40.957 40.957 32.9371 40.957 23.0383C40.957 13.137 32.9371 5.11962 23.0383 5.11962C13.137 5.11962 5.11962 13.137 5.11962 23.0383C5.11962 32.9371 13.137 40.957 23.0383 40.957ZM44.7583 41.1387L52 48.3779L48.3779 52L41.1387 44.7583L44.7583 41.1387Z" fill="#181818"/>
</svg>