<svg width="17" height="17" viewBox="0 0 17 17" fill="none" xmlns="http://www.w3.org/2000/svg">
<path d="M13.1378 9.83531L13.1321 9.84656L13.2232 9.84994C13.2834 9.85275 13.3459 9.85556 13.4089 9.8595C13.383 9.85725 13.3582 9.85387 13.3324 9.85219L13.1378 9.83531ZM8.71875 0.703125C4.29188 0.703125 0.703125 4.29188 0.703125 8.71875C0.703125 13.1456 4.29188 16.7344 8.71875 16.7344C13.1456 16.7344 16.7344 13.1456 16.7344 8.71875C16.7344 4.29188 13.1456 0.703125 8.71875 0.703125ZM2.12063 9.61425C2.64241 9.55975 3.16652 9.53047 3.69112 9.5265C3.8385 9.5265 3.97631 9.52312 4.09444 9.51975C4.12931 9.63956 4.17038 9.756 4.21706 9.86456H4.21369C3.53877 9.89332 2.86686 9.97133 2.20331 10.098C2.16956 9.93881 2.14256 9.77737 2.12063 9.61425ZM6.86025 12.4999C6.804 12.5168 6.73425 12.5393 6.65944 12.5662C6.38944 12.6619 6.28481 12.6827 6.01256 12.6827C5.72963 12.6911 5.66269 12.6714 5.49394 12.5871C5.2337 12.4591 5.01564 12.2592 4.86562 12.0111C4.61137 11.5914 4.17094 11.2939 3.80363 11.2939C3.48863 11.2939 3.43012 11.4216 3.65737 11.6072C3.99881 11.8862 4.25363 12.1686 4.35881 12.3863C4.41731 12.5072 4.50787 12.6934 4.55962 12.8048C4.61588 12.9206 4.734 13.0714 4.8465 13.185C5.11256 13.4325 5.36963 13.5562 5.75212 13.6193C6.0075 13.653 6.0705 13.653 6.37313 13.617C6.51937 13.6001 6.64312 13.5793 6.75337 13.5506V13.9838C6.75337 14.5744 6.74888 14.9006 6.7365 15.0784C5.61334 14.7277 4.60303 14.086 3.80829 13.2183C3.01355 12.3507 2.4627 11.2881 2.21175 10.1385C2.8399 10.0272 3.47308 9.94649 4.10906 9.89662L4.22606 9.8865C4.44994 10.4068 4.79419 10.8034 5.28131 11.1128C5.57944 11.3018 6.05756 11.4975 6.29775 11.5245C6.36413 11.5358 6.5565 11.5751 6.72525 11.6145C6.89513 11.6516 7.22587 11.7113 7.46212 11.7473H7.46663C7.46269 11.7574 7.45875 11.7585 7.45425 11.7585C7.16962 11.9076 6.98456 12.1382 6.85969 12.501L6.86025 12.4999ZM7.72425 15.3034C7.6302 15.2888 7.53643 15.2725 7.443 15.2544C7.4565 15.0936 7.46438 14.8129 7.47338 14.2852C7.48913 13.2913 7.49588 13.194 7.56113 13.0534C7.6005 12.969 7.65675 12.8734 7.68825 12.8531C7.74169 12.8098 7.7445 12.8964 7.7445 14.085C7.7445 14.7054 7.74169 15.0671 7.72425 15.3039V15.3034ZM8.71875 15.3776C8.6355 15.3776 8.55225 15.3737 8.46956 15.3703C8.51794 15.0542 8.52806 14.5671 8.52919 13.7559L8.53088 12.7322L8.64169 12.7423L8.75419 12.7536L8.77106 14.0839C8.78119 14.7645 8.78681 15.1403 8.81381 15.3754C8.78175 15.3754 8.75081 15.3771 8.71819 15.3771L8.71875 15.3776ZM9.56588 15.3214C9.54338 15.0486 9.54506 14.6222 9.55069 13.8853C9.56081 12.8357 9.56081 12.8357 9.62381 12.8897C9.76219 13.0286 9.79537 13.2407 9.79537 14.2251C9.79537 14.7482 9.801 15.0677 9.8415 15.2809C9.74981 15.2978 9.65756 15.3107 9.56588 15.3219V15.3214ZM15.2376 10.0828C14.6334 9.96877 14.0226 9.89362 13.4089 9.85781C14.112 9.91856 14.7172 9.99731 15.2342 10.0929C14.9685 11.3565 14.3403 12.5153 13.4263 13.4274C12.6388 14.2149 11.6544 14.8044 10.5548 15.1194C10.5356 14.9316 10.5221 14.5305 10.5176 13.8763C10.5007 12.6568 10.4951 12.6028 10.422 12.4121C10.3302 12.1744 10.1716 11.9682 9.96525 11.8187C9.91271 11.7851 9.85597 11.7586 9.7965 11.7399C9.8775 11.7287 9.954 11.7287 10.0361 11.7079C10.8337 11.6021 11.2556 11.5071 11.5954 11.3794C12.3058 11.1037 12.7935 10.6481 13.0612 9.99169C13.086 9.93375 13.1108 9.87919 13.1304 9.83419L13.1361 9.83531C13.1465 9.81101 13.1587 9.78751 13.1726 9.765C13.1839 9.75544 13.1929 9.71719 13.194 9.68062C13.194 9.65925 13.2036 9.59175 13.2165 9.50175C13.3571 9.50737 13.5428 9.51188 13.7453 9.513C14.2841 9.5175 14.8387 9.549 15.3163 9.60075C15.2961 9.76275 15.2702 9.92475 15.2376 10.0845V10.0828ZM14.5249 9.48825C14.0923 9.46223 13.6589 9.45154 13.2255 9.45619C13.2367 9.39825 13.2457 9.33356 13.2581 9.26719C13.3054 9.01181 13.3211 8.75419 13.3223 8.24175C13.3234 7.44694 13.2806 7.22925 13.0219 6.70331C12.9241 6.50054 12.8003 6.31143 12.6534 6.14081C12.78 5.77069 12.7699 5.19581 12.6422 4.69294C12.5353 4.28006 12.4971 4.25419 12.1224 4.33294C11.8095 4.39911 11.5072 4.50814 11.2241 4.65694C11.07 4.73456 10.8574 4.85606 10.7049 4.95056C10.3027 4.80994 9.88931 4.71431 9.44381 4.66481C8.99381 4.61306 7.89131 4.64231 7.50094 4.71544C7.11844 4.78575 6.77363 4.87294 6.46144 4.97419C6.30619 4.87856 6.08006 4.74919 5.91919 4.66706C5.63636 4.518 5.33396 4.40949 5.02087 4.34475C4.64737 4.26375 4.60912 4.29131 4.50225 4.70475C4.37006 5.21494 4.36894 5.79881 4.5 6.16894C4.51406 6.21112 4.52363 6.24206 4.52813 6.26456C3.99769 6.93225 3.825 7.67925 3.93919 8.721C3.969 8.99212 4.01569 9.24187 4.07981 9.47081C3.74231 9.46856 3.26081 9.48094 2.91375 9.50287C2.65837 9.51975 2.37544 9.54562 2.11613 9.576C1.98267 8.56492 2.08411 7.53667 2.41258 6.57116C2.74105 5.60565 3.2877 4.72887 4.01006 4.00894C4.62749 3.38951 5.36133 2.89831 6.16935 2.56361C6.97736 2.22892 7.8436 2.05734 8.71819 2.05875C10.5592 2.05875 12.2203 2.80294 13.4263 4.00894C14.1469 4.72719 14.6927 5.60158 15.0214 6.56447C15.3501 7.52736 15.4529 8.55296 15.3219 9.56194C15.0632 9.53044 14.7797 9.504 14.5249 9.48769V9.48825Z" fill="#1F1F1F"/>
</svg>
