<svg width="16" height="16" viewBox="0 0 16 16" fill="none" xmlns="http://www.w3.org/2000/svg">
<path d="M15.74 13.815L12.37 4.91C12.3234 4.7872 12.2531 4.67479 12.163 4.57918C12.0729 4.48358 11.9649 4.40665 11.8451 4.35279C11.7254 4.29893 11.5961 4.26919 11.4648 4.26528C11.3336 4.26137 11.2028 4.28336 11.08 4.33L9.5 4.925V3.46C9.5 3.20539 9.39886 2.96121 9.21882 2.78118C9.03879 2.60114 8.79461 2.5 8.54 2.5H6V1.46C6 1.20539 5.89886 0.961212 5.71882 0.781178C5.53879 0.601143 5.29461 0.5 5.04 0.5H1.5C1.23478 0.5 0.98043 0.605357 0.792893 0.792893C0.605357 0.98043 0.5 1.23478 0.5 1.5V15C0.5 15.1326 0.552678 15.2598 0.646447 15.3536C0.740215 15.4473 0.867392 15.5 1 15.5H9C9.13261 15.5 9.25979 15.4473 9.35355 15.3536C9.44732 15.2598 9.5 15.1326 9.5 15V8.635L12 15.24C12.0233 15.3014 12.0585 15.3576 12.1035 15.4054C12.1485 15.4532 12.2025 15.4917 12.2624 15.5186C12.3223 15.5455 12.3869 15.5604 12.4526 15.5624C12.5182 15.5643 12.5836 15.5533 12.645 15.53L15.45 14.46C15.5114 14.4367 15.5676 14.4015 15.6154 14.3565C15.6632 14.3115 15.7017 14.2575 15.7286 14.1976C15.7555 14.1377 15.7704 14.0731 15.7724 14.0074C15.7743 13.9418 15.7633 13.8764 15.74 13.815ZM5 3.415V14.5H1.5V1.5H5V3.415ZM8.5 14.5H6V3.5H8.5V14.5ZM12.755 14.375L9.565 5.96L11.435 5.25L14.63 13.665L12.755 14.375Z" fill="#808080"/>
</svg>
