<svg width="12" height="15" viewBox="0 0 12 15" fill="none" xmlns="http://www.w3.org/2000/svg">
<path d="M9.25 0.25H4.75C4.15326 0.25 3.58097 0.487053 3.15901 0.90901C2.73705 1.33097 2.5 1.90326 2.5 2.5V5.5H3.25V2.5C3.25 2.10218 3.40804 1.72064 3.68934 1.43934C3.97064 1.15804 4.35218 1 4.75 1H9.25C9.64782 1 10.0294 1.15804 10.3107 1.43934C10.592 1.72064 10.75 2.10218 10.75 2.5V12.25C10.75 12.6478 10.592 13.0294 10.3107 13.3107C10.0294 13.592 9.64782 13.75 9.25 13.75H4.75C4.35218 13.75 3.97064 13.592 3.68934 13.3107C3.40804 13.0294 3.25 12.6478 3.25 12.25V9.25H2.5V12.25C2.5 12.8467 2.73705 13.419 3.15901 13.841C3.58097 14.2629 4.15326 14.5 4.75 14.5H9.25C9.84674 14.5 10.419 14.2629 10.841 13.841C11.2629 13.419 11.5 12.8467 11.5 12.25V2.5C11.5 1.90326 11.2629 1.33097 10.841 0.90901C10.419 0.487053 9.84674 0.25 9.25 0.25V0.25ZM0.25 7H7.9375L5.5 4.5625L5.998 4L9.373 7.375L5.998 10.75L5.5 10.1875L7.9375 7.75H0.25V7Z" fill="#1F1F1F"/>
</svg>
