<svg width="78" height="98" viewBox="0 0 78 98" fill="none" xmlns="http://www.w3.org/2000/svg">
<path d="M29.1766 48.8587C29.1766 50.725 29.7307 52.5494 30.7688 54.1009C31.8067 55.6524 33.2822 56.8611 35.0079 57.5744C36.7339 58.2878 38.6325 58.4735 40.4642 58.1081C42.2956 57.7425 43.9774 56.8424 45.2967 55.5214C46.6161 54.2003 47.5135 52.5181 47.8754 50.6871C48.2375 48.8562 48.048 46.9592 47.3305 45.236C46.6132 43.5129 45.4005 42.0412 43.8457 41.0071C42.291 39.9731 40.4642 39.4232 38.5964 39.4268C36.0965 39.432 33.7006 40.4279 31.9346 42.1963C30.1685 43.9644 29.1766 46.3606 29.1766 48.8587Z" fill="#1F1F1F"/>
<path d="M38.5959 78.3379C36.7291 78.3379 34.9042 78.8911 33.3519 79.9274C31.7997 80.964 30.59 82.437 29.8756 84.1603C29.1612 85.8838 28.9741 87.7803 29.3385 89.61C29.7027 91.4395 30.6017 93.12 31.9216 94.4392C33.2417 95.7583 34.9235 96.6566 36.7545 97.0205C38.5856 97.3844 40.4833 97.1977 42.2081 96.4838C43.9329 95.7699 45.407 94.561 46.4442 93.0099C47.4813 91.4588 48.0348 89.6352 48.0348 87.7698C48.0348 85.2683 47.0405 82.8693 45.2702 81.1005C43.5001 79.3317 41.0993 78.3379 38.5959 78.3379Z" fill="#1F1F1F"/>
<path d="M67.5627 39.4268C65.6957 39.4268 63.8708 39.9799 62.3188 41.0165C60.7665 42.0529 59.5566 43.5259 58.8422 45.2494C58.1278 46.9727 57.9409 48.8692 58.3051 50.6989C58.6693 52.5284 59.5683 54.2091 60.8884 55.528C62.2083 56.8472 63.8903 57.7455 65.7212 58.1094C67.5522 58.4733 69.4501 58.2866 71.1747 57.5727C72.8995 56.8588 74.3736 55.6499 75.4108 54.0988C76.4479 52.5478 77.0016 50.7243 77.0016 48.8587C77.0016 46.3573 76.0071 43.9581 74.237 42.1894C72.4667 40.4206 70.0659 39.4268 67.5627 39.4268Z" fill="#1F1F1F"/>
<path d="M38.5964 18.8638C40.4642 18.8676 42.291 18.3175 43.8457 17.2835C45.4005 16.2494 46.6132 14.7777 47.3305 13.0546C48.048 11.3314 48.2375 9.43437 47.8754 7.60355C47.5135 5.77273 46.6161 4.09027 45.2967 2.76923C43.9774 1.44838 42.2956 0.548151 40.4642 0.182713C38.6325 -0.182916 36.7339 0.00285727 35.0079 0.716168C33.2822 1.42948 31.8067 2.63825 30.7688 4.18974C29.7307 5.74123 29.1766 7.56555 29.1766 9.43188C29.1766 11.93 30.1685 14.3262 31.9346 16.0945C33.7006 17.8627 36.0965 18.8586 38.5964 18.8638Z" fill="#1F1F1F"/>
<path d="M18.8777 47.7704C18.8777 45.9048 18.3242 44.0813 17.287 42.5302C16.2499 40.9793 14.7758 39.7703 13.051 39.0564C11.3262 38.3425 9.42846 38.1558 7.59742 38.5197C5.76639 38.8836 4.08458 39.7819 2.76447 41.1011C1.44455 42.42 0.545551 44.1006 0.181369 45.9302C-0.182813 47.7599 0.00405711 49.6564 0.718473 51.3797C1.43289 53.1032 2.64275 54.5763 4.19483 55.6126C5.74709 56.649 7.57201 57.2023 9.43878 57.2023C11.9422 57.2023 14.343 56.2085 16.1133 54.4398C17.8834 52.6708 18.8777 50.2718 18.8777 47.7704Z" fill="#1F1F1F"/>
<path d="M60.0728 61.7082C56.6962 58.3135 54.8009 53.7215 54.8009 48.9351C54.8009 44.1487 56.6962 39.5566 60.0728 36.1619C61.3893 34.8413 62.2844 33.1607 62.6457 31.3322C63.0069 29.5035 62.8177 27.6091 62.1021 25.8877C61.3868 24.1664 60.1769 22.6955 58.6254 21.6609C57.0741 20.626 55.2507 20.0739 53.3853 20.0739C51.52 20.0739 49.6966 20.626 48.1453 21.6609C46.5938 22.6955 45.384 24.1664 44.6686 25.8877C43.953 27.6091 43.7639 29.5035 44.125 31.3322C44.4863 33.1607 45.3815 34.8413 46.6978 36.1619C48.3939 37.8411 49.7404 39.8398 50.6593 42.042C51.5779 44.2441 52.051 46.6065 52.051 48.9924C52.051 51.3782 51.5779 53.7406 50.6593 55.9427C49.7404 58.1449 48.3939 60.1434 46.6978 61.8228C45.3815 63.1432 44.4863 64.824 44.125 66.6525C43.7639 68.4812 43.953 70.3756 44.6686 72.097C45.384 73.8183 46.5938 75.2892 48.1453 76.3238C49.6966 77.3587 51.52 77.9108 53.3853 77.9108C55.2507 77.9108 57.0741 77.3587 58.6254 76.3238C60.1769 75.2892 61.3868 73.8183 62.1021 72.097C62.8177 70.3756 63.0069 68.4812 62.6457 66.6525C62.2844 64.824 61.3893 63.1432 60.0728 61.8228V61.7082Z" fill="#1F1F1F"/>
<path d="M32.9022 67.207C32.892 64.7306 31.9191 62.3549 30.189 60.5818C26.8123 57.187 24.9171 52.595 24.9171 47.8086C24.9171 43.0222 26.8123 38.4304 30.189 35.0355C31.5054 33.715 32.4006 32.0342 32.7617 30.2057C33.123 28.3772 32.9339 26.4826 32.2183 24.7614C31.503 23.04 30.2931 21.5692 28.7416 20.5344C27.1903 19.4998 25.3667 18.9474 23.5015 18.9474C21.6362 18.9474 19.8128 19.4998 18.2613 20.5344C16.71 21.5692 15.5002 23.04 14.7846 24.7614C14.0692 26.4826 13.8801 28.3772 14.2412 30.2057C14.6025 32.0342 15.4977 33.715 16.814 35.0355C18.5072 36.7145 19.8512 38.7118 20.7684 40.9123C21.6855 43.1127 22.1577 45.4728 22.1577 47.8563C22.1577 50.2401 21.6855 52.6002 20.7684 54.8006C19.8512 57.0011 18.5072 58.9984 16.814 60.6772C15.7273 61.78 14.9289 63.1331 14.4892 64.6172C14.0495 66.1011 13.9819 67.6704 14.2926 69.1867C14.6033 70.7029 15.2825 72.1194 16.2706 73.3114C17.2586 74.5033 18.5248 75.4339 19.9578 76.0212C21.3909 76.6085 22.9464 76.8346 24.4874 76.6792C26.0284 76.5238 27.5075 75.9918 28.7941 75.1302C30.0808 74.2687 31.1355 73.104 31.8652 71.7389C32.5951 70.3737 32.9774 68.8501 32.9786 67.3025L32.9022 67.207Z" fill="#1F1F1F"/>
</svg>
