<svg width="16" height="16" viewBox="0 0 16 16" fill="none" xmlns="http://www.w3.org/2000/svg">
<path d="M13.7112 8.75003C13.7439 8.50132 13.7614 8.25086 13.7637 8.00003C13.7614 7.74919 13.7439 7.49873 13.7112 7.25003L15.335 5.97878C15.4083 5.92277 15.4584 5.84169 15.4757 5.75106C15.493 5.66043 15.4762 5.5666 15.4287 5.48752L13.8912 2.82128C13.8467 2.7413 13.7744 2.68038 13.6881 2.64998C13.6017 2.61959 13.5073 2.62183 13.4225 2.65628L11.5062 3.42878C11.1075 3.12446 10.6714 2.87241 10.2087 2.67878L9.91995 0.642526C9.90722 0.552422 9.86215 0.470023 9.79316 0.410688C9.72416 0.351353 9.63595 0.31913 9.54495 0.320026H6.46245C6.37146 0.31913 6.28324 0.351353 6.21425 0.410688C6.14525 0.470023 6.10019 0.552422 6.08745 0.642526L5.7987 2.67878C5.33538 2.8712 4.89919 3.12334 4.5012 3.42878L2.57745 2.65628C2.49264 2.62183 2.39817 2.61959 2.31182 2.64998C2.22548 2.68038 2.15323 2.7413 2.1087 2.82128L0.571201 5.48752C0.523655 5.5666 0.50693 5.66043 0.524227 5.75106C0.541523 5.84169 0.591626 5.92277 0.664951 5.97878L2.28495 7.25003C2.25241 7.49874 2.23488 7.7492 2.23245 8.00003C2.23475 8.25086 2.25228 8.50132 2.28495 8.75003L0.664951 10.0213C0.591626 10.0773 0.541523 10.1584 0.524227 10.249C0.50693 10.3396 0.523655 10.4335 0.571201 10.5125L2.1087 13.1788C2.15323 13.2587 2.22548 13.3197 2.31182 13.3501C2.39817 13.3805 2.49264 13.3782 2.57745 13.3438L4.4937 12.5713C4.89244 12.8756 5.32848 13.1276 5.7912 13.3213L6.07995 15.3575C6.09269 15.4476 6.13775 15.53 6.20675 15.5894C6.27574 15.6487 6.36396 15.6809 6.45495 15.68H9.52995C9.62095 15.6809 9.70916 15.6487 9.77816 15.5894C9.84715 15.53 9.89222 15.4476 9.90495 15.3575L10.1937 13.3213C10.657 13.1288 11.0932 12.8767 11.4912 12.5713L13.4075 13.3438C13.4923 13.3782 13.5867 13.3805 13.6731 13.3501C13.7594 13.3197 13.8317 13.2587 13.8762 13.1788L15.4137 10.5125C15.4612 10.4335 15.478 10.3396 15.4607 10.249C15.4434 10.1584 15.3933 10.0773 15.32 10.0213L13.7112 8.75003ZM7.99995 10.6925C7.46727 10.6933 6.94633 10.536 6.50306 10.2406C6.05979 9.94518 5.7141 9.52493 5.50973 9.033C5.30537 8.54108 5.25151 7.99959 5.35498 7.47705C5.45845 6.95451 5.71459 6.4744 6.09099 6.09747C6.46739 5.72054 6.94714 5.46373 7.46954 5.35954C7.99194 5.25534 8.5335 5.30844 9.02571 5.51212C9.51792 5.7158 9.93865 6.0609 10.2347 6.50376C10.5307 6.94662 10.6887 7.46734 10.6887 8.00003C10.6892 8.35343 10.62 8.70347 10.4851 9.03012C10.3502 9.35676 10.1522 9.65361 9.90251 9.90368C9.65279 10.1538 9.35622 10.3521 9.02976 10.4875C8.7033 10.6229 8.35336 10.6925 7.99995 10.6925Z" fill="#808080"/>
</svg>
