<svg width="52" height="52" viewBox="0 0 52 58" fill="none" xmlns="http://www.w3.org/2000/svg">
    <path d="M20.137 51.337C8.6008 48.6772 0 38.3422 0 26C0 11.6402 11.6402 0 26 0C40.3598 0 52 11.6402 52 26C52 38.3422 43.3992 48.6772 31.863 51.337L26 57.2L20.137 51.337ZM13.0312 42.2682C15.4539 44.2057 18.2814 45.5733 21.3044 46.2696L22.7604 46.605L26 49.8472L29.2422 46.605L30.6982 46.267C33.9186 45.5246 36.9142 44.0215 39.4342 41.8834C37.7411 40.1455 35.7166 38.7647 33.4806 37.8229C31.2445 36.881 28.8423 36.3972 26.416 36.4C21.1224 36.4 16.354 38.662 13.0312 42.2682ZM9.4016 38.532C11.5868 36.213 14.2237 34.3661 17.15 33.1051C20.0762 31.8441 23.2296 31.1957 26.416 31.2C29.4883 31.196 32.5311 31.7989 35.3697 32.9742C38.2084 34.1494 40.7869 35.8739 42.9572 38.0484C45.183 34.9157 46.4974 31.2277 46.7547 27.3934C47.0119 23.5591 46.2019 19.7285 44.4145 16.3266C42.6271 12.9247 39.9322 10.0844 36.6287 8.12096C33.3253 6.1575 29.5425 5.14758 25.7 5.20326C21.8575 5.25893 18.1055 6.37802 14.8604 8.43637C11.6152 10.4947 9.00369 13.4118 7.3156 16.8641C5.6275 20.3164 4.92881 24.1689 5.29702 27.9941C5.66524 31.8193 7.08597 35.4677 9.4016 38.5346V38.532ZM26 28.6C23.2417 28.6 20.5965 27.5043 18.6461 25.5539C16.6957 23.6035 15.6 20.9583 15.6 18.2C15.6 15.4417 16.6957 12.7965 18.6461 10.8461C20.5965 8.89571 23.2417 7.8 26 7.8C28.7583 7.8 31.4035 8.89571 33.3539 10.8461C35.3043 12.7965 36.4 15.4417 36.4 18.2C36.4 20.9583 35.3043 23.6035 33.3539 25.5539C31.4035 27.5043 28.7583 28.6 26 28.6ZM26 23.4C27.3791 23.4 28.7018 22.8521 29.677 21.877C30.6521 20.9018 31.2 19.5791 31.2 18.2C31.2 16.8209 30.6521 15.4982 29.677 14.523C28.7018 13.5479 27.3791 13 26 13C24.6209 13 23.2982 13.5479 22.323 14.523C21.3479 15.4982 20.8 16.8209 20.8 18.2C20.8 19.5791 21.3479 20.9018 22.323 21.877C23.2982 22.8521 24.6209 23.4 26 23.4Z" fill="#181818"/>
</svg>