<svg width="19" height="16" viewBox="0 0 19 16" fill="none" xmlns="http://www.w3.org/2000/svg">
<path d="M16.5777 4.09733V4.58579C16.5777 9.50465 12.8458 15.1416 6.01705 15.1416C4.00112 15.1459 2.028 14.5601 0.341064 13.4564C0.634035 13.4961 0.929557 13.5141 1.22519 13.5101C2.89624 13.5147 4.5203 12.9573 5.83632 11.9275C5.05998 11.916 4.30701 11.6602 3.6844 11.1963C3.0618 10.7324 2.60125 10.0841 2.3682 9.34346C2.59945 9.39248 2.83521 9.41704 3.07159 9.41673C3.40168 9.41681 3.73028 9.37244 4.04853 9.28485C3.20767 9.11722 2.4512 8.6626 1.90855 7.99877C1.3659 7.33494 1.07081 6.50316 1.07376 5.64577V5.59692C1.58822 5.8843 2.16498 6.0419 2.75409 6.05608C1.9699 5.54005 1.41236 4.74405 1.19538 3.83073C0.978396 2.9174 1.11835 1.9557 1.58665 1.1421C2.51975 2.28975 3.68393 3.22818 5.0035 3.89638C6.32308 4.56459 7.7685 4.9476 9.24581 5.02053C9.17268 4.74329 9.13817 4.45728 9.14324 4.1706C9.11573 3.41294 9.3224 2.66522 9.73511 2.02924C10.1478 1.39326 10.7465 0.899929 11.4497 0.616425C12.1528 0.332921 12.9263 0.273018 13.6647 0.444874C14.4031 0.616729 15.0706 1.01199 15.5763 1.57684C16.4076 1.40908 17.205 1.10366 17.9356 0.673176C17.6586 1.5482 17.0691 2.29064 16.2797 2.75893C17.0171 2.65732 17.736 2.45004 18.4143 2.14346C17.9228 2.89845 17.3009 3.56004 16.5777 4.09733V4.09733Z" stroke="#1F1F1F" stroke-width="0.488467" stroke-linecap="round" stroke-linejoin="round"/>
</svg>
