<svg width="18" height="11" viewBox="0 0 18 11" fill="none" xmlns="http://www.w3.org/2000/svg">
    <path d="M8.95621 4.80736C8.91986 4.73202 8.86301 4.66846 8.79217 4.62396C8.72134 4.57946 8.6394 4.55584 8.55574 4.55579H6.77785V1.44447C6.77785 1.32659 6.73102 1.21354 6.64767 1.13018C6.56431 1.04683 6.45126 1 6.33337 1H4.99995H3.66653C3.54865 1 3.4356 1.04683 3.35224 1.13018C3.26889 1.21354 3.22206 1.32659 3.22206 1.44447V4.55579H1.44416C1.36048 4.55593 1.27854 4.57967 1.20774 4.62428C1.13694 4.66889 1.08016 4.73256 1.04391 4.80798C1.00766 4.8834 0.993418 4.96751 1.00281 5.05066C1.01221 5.13381 1.04486 5.21263 1.09703 5.27806L4.65282 9.7228C4.69446 9.77487 4.74728 9.81691 4.80737 9.8458C4.86746 9.87468 4.93328 9.88969 4.99995 9.88969C5.06663 9.88969 5.13245 9.87468 5.19254 9.8458C5.25263 9.81691 5.30545 9.77487 5.34709 9.7228L8.90288 5.27806C9.00955 5.14427 9.03 4.9616 8.95621 4.80736ZM4.99995 8.7334L2.36911 5.44474H4.11101V1.88895H5.8889V5.44474H7.63079L4.99995 8.7334Z" fill="#181818"/>
    <path d="M13.3472 1.38883C13.1778 1.1777 12.8223 1.1777 12.6529 1.38883L9.09712 5.83357C9.04496 5.899 9.01231 5.97781 9.00291 6.06096C8.99351 6.14411 9.00776 6.22823 9.04401 6.30365C9.08026 6.37907 9.13704 6.44274 9.20784 6.48735C9.27864 6.53196 9.36058 6.55569 9.44426 6.55584H11.2222V9.66715C11.2222 9.78504 11.269 9.89809 11.3523 9.98144C11.4357 10.0648 11.5487 10.1116 11.6666 10.1116H14.3335C14.4514 10.1116 14.5644 10.0648 14.6478 9.98144C14.7311 9.89809 14.7779 9.78504 14.7779 9.66715V6.55584H16.5558C16.6395 6.55569 16.7215 6.53196 16.7923 6.48735C16.8631 6.44274 16.9198 6.37907 16.9561 6.30365C16.9923 6.22823 17.0066 6.14411 16.9972 6.06096C16.9878 5.97781 16.9551 5.899 16.903 5.83357L13.3472 1.38883ZM13.889 5.66689V9.22268H12.1111V5.66689H10.3692L13 2.37823L15.6309 5.66689H13.889Z" fill="#181818"/>
    <path d="M8.95621 4.80736C8.91986 4.73202 8.86301 4.66846 8.79217 4.62396C8.72134 4.57946 8.6394 4.55584 8.55574 4.55579H6.77785V1.44447C6.77785 1.32659 6.73102 1.21354 6.64767 1.13018C6.56431 1.04683 6.45126 1 6.33337 1H4.99995H3.66653C3.54865 1 3.4356 1.04683 3.35224 1.13018C3.26889 1.21354 3.22206 1.32659 3.22206 1.44447V4.55579H1.44416C1.36048 4.55593 1.27854 4.57967 1.20774 4.62428C1.13694 4.66889 1.08016 4.73256 1.04391 4.80798C1.00766 4.8834 0.993418 4.96751 1.00281 5.05066C1.01221 5.13381 1.04486 5.21263 1.09703 5.27806L4.65282 9.7228C4.69446 9.77487 4.74728 9.81691 4.80737 9.8458C4.86746 9.87468 4.93328 9.88969 4.99995 9.88969C5.06663 9.88969 5.13245 9.87468 5.19254 9.8458C5.25263 9.81691 5.30545 9.77487 5.34709 9.7228L8.90288 5.27806C9.00955 5.14427 9.03 4.9616 8.95621 4.80736ZM4.99995 8.7334L2.36911 5.44474H4.11101V1.88895H5.8889V5.44474H7.63079L4.99995 8.7334Z" stroke="#181818" stroke-width="0.3"/>
    <path d="M13.3472 1.38883C13.1778 1.1777 12.8223 1.1777 12.6529 1.38883L9.09712 5.83357C9.04496 5.899 9.01231 5.97781 9.00291 6.06096C8.99351 6.14411 9.00776 6.22823 9.04401 6.30365C9.08026 6.37907 9.13704 6.44274 9.20784 6.48735C9.27864 6.53196 9.36058 6.55569 9.44426 6.55584H11.2222V9.66715C11.2222 9.78504 11.269 9.89809 11.3523 9.98144C11.4357 10.0648 11.5487 10.1116 11.6666 10.1116H14.3335C14.4514 10.1116 14.5644 10.0648 14.6478 9.98144C14.7311 9.89809 14.7779 9.78504 14.7779 9.66715V6.55584H16.5558C16.6395 6.55569 16.7215 6.53196 16.7923 6.48735C16.8631 6.44274 16.9198 6.37907 16.9561 6.30365C16.9923 6.22823 17.0066 6.14411 16.9972 6.06096C16.9878 5.97781 16.9551 5.899 16.903 5.83357L13.3472 1.38883ZM13.889 5.66689V9.22268H12.1111V5.66689H10.3692L13 2.37823L15.6309 5.66689H13.889Z" stroke="#181818" stroke-width="0.3"/>
</svg>