<svg width="20" height="21" viewBox="0 0 20 21" fill="none" xmlns="http://www.w3.org/2000/svg">
<path d="M14.3426 12.4571C14.4208 11.8123 14.4794 11.1675 14.4794 10.5032C14.4794 9.83891 14.4208 9.19413 14.3426 8.54935H17.6446C17.801 9.17459 17.8986 9.82914 17.8986 10.5032C17.8986 11.1773 17.801 11.8319 17.6446 12.4571H14.3426ZM12.6134 17.8888C13.1996 16.8044 13.649 15.6321 13.9616 14.411H16.8436C15.8971 16.0408 14.3955 17.2753 12.6134 17.8888ZM12.3692 12.4571H7.79715C7.69946 11.8123 7.64084 11.1675 7.64084 10.5032C7.64084 9.83891 7.69946 9.18436 7.79715 8.54935H12.3692C12.4571 9.18436 12.5255 9.83891 12.5255 10.5032C12.5255 11.1675 12.4571 11.8123 12.3692 12.4571ZM10.0832 18.2796C9.27232 17.1073 8.61778 15.808 8.21723 14.411H11.9491C11.5486 15.808 10.894 17.1073 10.0832 18.2796ZM6.17544 6.59549H3.3228C4.25954 4.96129 5.76005 3.72476 7.54315 3.1176C6.95699 4.202 6.51737 5.37432 6.17544 6.59549ZM3.3228 14.411H6.17544C6.51737 15.6321 6.95699 16.8044 7.54315 17.8888C5.76379 17.275 4.26539 16.0402 3.3228 14.411ZM2.52171 12.4571C2.3654 11.8319 2.26771 11.1773 2.26771 10.5032C2.26771 9.82914 2.3654 9.17459 2.52171 8.54935H5.82375C5.74559 9.19413 5.68698 9.83891 5.68698 10.5032C5.68698 11.1675 5.74559 11.8123 5.82375 12.4571H2.52171ZM10.0832 2.71706C10.894 3.88938 11.5486 5.19847 11.9491 6.59549H8.21723C8.61778 5.19847 9.27232 3.88938 10.0832 2.71706ZM16.8436 6.59549H13.9616C13.6558 5.38551 13.2031 4.21753 12.6134 3.1176C14.411 3.73307 15.9057 4.97378 16.8436 6.59549ZM10.0832 0.733887C4.68074 0.733887 0.313843 5.13009 0.313843 10.5032C0.313843 13.0942 1.34311 15.5791 3.17521 17.4112C4.08238 18.3184 5.15934 19.038 6.34461 19.5289C7.52988 20.0199 8.80025 20.2726 10.0832 20.2726C12.6742 20.2726 15.159 19.2433 16.9911 17.4112C18.8232 15.5791 19.8525 13.0942 19.8525 10.5032C19.8525 9.22029 19.5998 7.94993 19.1089 6.76466C18.6179 5.57939 17.8983 4.50243 16.9911 3.59526C16.084 2.68809 15.007 1.96849 13.8217 1.47753C12.6365 0.986578 11.3661 0.733887 10.0832 0.733887Z" fill="#1F1F1F"/>
</svg>
