<svg width="60" height="60" viewBox="0 0 60 60" fill="none" xmlns="http://www.w3.org/2000/svg">
    <path d="M53.4375 0H6.5625C2.93813 0 0 2.93813 0 6.5625V53.4375C0 57.0619 2.93813 60 6.5625 60H53.4375C57.0619 60 60 57.0619 60 53.4375V6.5625C60 2.93813 57.0619 0 53.4375 0Z" fill="#092E20" />
    <path d="M43.6825 22.0777V37.5994C43.6825 42.9478 43.2911 45.5128 42.1174 47.7303C41.0301 49.8612 39.5953 51.2089 36.6389 52.6873L30.4209 49.7307C33.3778 48.3394 34.8126 47.1221 35.7255 45.2517C36.6822 43.339 36.9869 41.1214 36.9869 35.2953V22.0777H43.6825ZM33.0304 11.7371V42.7306C29.5957 43.3826 27.0738 43.6435 24.3346 43.6435C16.1604 43.6435 11.8994 39.9481 11.8994 32.8606C11.8994 26.0342 16.4214 21.5996 23.4213 21.5996C24.5083 21.5996 25.3345 21.6863 26.3346 21.9471V11.7375H33.0307L33.0304 11.7371ZM24.0738 26.9907C20.6824 26.9907 18.7256 29.0778 18.7256 32.7298C18.7256 36.2956 20.5954 38.2519 24.0304 38.2519C24.7692 38.2519 25.3781 38.2085 26.3346 38.0785V27.3382C25.552 27.0776 24.9 26.9907 24.0738 26.9907ZM43.6825 11.7727V18.6427H36.9869V11.7729H43.6825V11.7727Z" fill="#FFFFFD" />
</svg>